%TF.GenerationSoftware,KiCad,Pcbnew,5.1.9*%
%TF.CreationDate,2021-05-04T18:35:03+02:00*%
%TF.ProjectId,mmms_sorter_schema,6d6d6d73-5f73-46f7-9274-65725f736368,rev?*%
%TF.SameCoordinates,Original*%
%TF.FileFunction,Copper,L2,Bot*%
%TF.FilePolarity,Positive*%
%FSLAX46Y46*%
G04 Gerber Fmt 4.6, Leading zero omitted, Abs format (unit mm)*
G04 Created by KiCad (PCBNEW 5.1.9) date 2021-05-04 18:35:03*
%MOMM*%
%LPD*%
G01*
G04 APERTURE LIST*
%TA.AperFunction,ComponentPad*%
%ADD10O,1.700000X1.700000*%
%TD*%
%TA.AperFunction,ComponentPad*%
%ADD11R,1.700000X1.700000*%
%TD*%
%TA.AperFunction,ComponentPad*%
%ADD12O,1.905000X2.000000*%
%TD*%
%TA.AperFunction,ComponentPad*%
%ADD13R,1.905000X2.000000*%
%TD*%
%TA.AperFunction,ComponentPad*%
%ADD14O,1.400000X1.400000*%
%TD*%
%TA.AperFunction,ComponentPad*%
%ADD15C,1.400000*%
%TD*%
%TA.AperFunction,ComponentPad*%
%ADD16C,1.200000*%
%TD*%
%TA.AperFunction,ComponentPad*%
%ADD17R,1.200000X1.200000*%
%TD*%
%TA.AperFunction,ComponentPad*%
%ADD18O,1.600000X1.600000*%
%TD*%
%TA.AperFunction,ComponentPad*%
%ADD19R,1.600000X1.600000*%
%TD*%
G04 APERTURE END LIST*
D10*
%TO.P,U2,6*%
%TO.N,Net-(U2-Pad6)*%
X148590000Y-78740000D03*
%TO.P,U2,5*%
%TO.N,SCL*%
X146050000Y-78740000D03*
%TO.P,U2,4*%
%TO.N,SDA*%
X143510000Y-78740000D03*
%TO.P,U2,3*%
%TO.N,Net-(U2-Pad3)*%
X140970000Y-78740000D03*
%TO.P,U2,2*%
%TO.N,3v3*%
X138430000Y-78740000D03*
D11*
%TO.P,U2,1*%
%TO.N,GND*%
X135890000Y-78740000D03*
%TD*%
D12*
%TO.P,U1,3*%
%TO.N,5V*%
X123190000Y-86360000D03*
%TO.P,U1,2*%
%TO.N,GND*%
X120650000Y-86360000D03*
D13*
%TO.P,U1,1*%
%TO.N,External5V*%
X118110000Y-86360000D03*
%TD*%
D14*
%TO.P,R1,2*%
%TO.N,Net-(D1-Pad2)*%
X129540000Y-85090000D03*
D15*
%TO.P,R1,1*%
%TO.N,Net-(A1-Pad10)*%
X129540000Y-87630000D03*
%TD*%
D10*
%TO.P,M2,3*%
%TO.N,GND*%
X124460000Y-113030000D03*
%TO.P,M2,2*%
%TO.N,5V*%
X127000000Y-113030000D03*
D11*
%TO.P,M2,1*%
%TO.N,Net-(A1-Pad9)*%
X129540000Y-113030000D03*
%TD*%
D10*
%TO.P,M1,3*%
%TO.N,GND*%
X124460000Y-123190000D03*
%TO.P,M1,2*%
%TO.N,5V*%
X127000000Y-123190000D03*
D11*
%TO.P,M1,1*%
%TO.N,Net-(A1-Pad8)*%
X129540000Y-123190000D03*
%TD*%
D10*
%TO.P,D1,2*%
%TO.N,Net-(D1-Pad2)*%
X142240000Y-73660000D03*
D11*
%TO.P,D1,1*%
%TO.N,GND*%
X142240000Y-71120000D03*
%TD*%
D16*
%TO.P,C2,2*%
%TO.N,GND*%
X124230000Y-92710000D03*
D17*
%TO.P,C2,1*%
%TO.N,5V*%
X125730000Y-92710000D03*
%TD*%
D16*
%TO.P,C1,2*%
%TO.N,GND*%
X117070000Y-92710000D03*
D17*
%TO.P,C1,1*%
%TO.N,External5V*%
X115570000Y-92710000D03*
%TD*%
D18*
%TO.P,A1,16*%
%TO.N,Net-(A1-Pad16)*%
X149860000Y-123190000D03*
%TO.P,A1,15*%
%TO.N,Net-(A1-Pad15)*%
X134620000Y-123190000D03*
%TO.P,A1,30*%
%TO.N,5V*%
X149860000Y-87630000D03*
%TO.P,A1,14*%
%TO.N,Net-(A1-Pad14)*%
X134620000Y-120650000D03*
%TO.P,A1,29*%
%TO.N,GND*%
X149860000Y-90170000D03*
%TO.P,A1,13*%
%TO.N,Net-(A1-Pad13)*%
X134620000Y-118110000D03*
%TO.P,A1,28*%
%TO.N,Net-(A1-Pad28)*%
X149860000Y-92710000D03*
%TO.P,A1,12*%
%TO.N,Net-(A1-Pad12)*%
X134620000Y-115570000D03*
%TO.P,A1,27*%
%TO.N,Net-(A1-Pad27)*%
X149860000Y-95250000D03*
%TO.P,A1,11*%
%TO.N,Net-(A1-Pad11)*%
X134620000Y-113030000D03*
%TO.P,A1,26*%
%TO.N,Net-(A1-Pad26)*%
X149860000Y-97790000D03*
%TO.P,A1,10*%
%TO.N,Net-(A1-Pad10)*%
X134620000Y-110490000D03*
%TO.P,A1,25*%
%TO.N,Net-(A1-Pad25)*%
X149860000Y-100330000D03*
%TO.P,A1,9*%
%TO.N,Net-(A1-Pad9)*%
X134620000Y-107950000D03*
%TO.P,A1,24*%
%TO.N,SCL*%
X149860000Y-102870000D03*
%TO.P,A1,8*%
%TO.N,Net-(A1-Pad8)*%
X134620000Y-105410000D03*
%TO.P,A1,23*%
%TO.N,SDA*%
X149860000Y-105410000D03*
%TO.P,A1,7*%
%TO.N,Net-(A1-Pad7)*%
X134620000Y-102870000D03*
%TO.P,A1,22*%
%TO.N,Net-(A1-Pad22)*%
X149860000Y-107950000D03*
%TO.P,A1,6*%
%TO.N,Net-(A1-Pad6)*%
X134620000Y-100330000D03*
%TO.P,A1,21*%
%TO.N,Net-(A1-Pad21)*%
X149860000Y-110490000D03*
%TO.P,A1,5*%
%TO.N,Net-(A1-Pad5)*%
X134620000Y-97790000D03*
%TO.P,A1,20*%
%TO.N,Net-(A1-Pad20)*%
X149860000Y-113030000D03*
%TO.P,A1,4*%
%TO.N,Net-(A1-Pad4)*%
X134620000Y-95250000D03*
%TO.P,A1,19*%
%TO.N,Net-(A1-Pad19)*%
X149860000Y-115570000D03*
%TO.P,A1,3*%
%TO.N,Net-(A1-Pad3)*%
X134620000Y-92710000D03*
%TO.P,A1,18*%
%TO.N,Net-(A1-Pad18)*%
X149860000Y-118110000D03*
%TO.P,A1,2*%
%TO.N,Net-(A1-Pad2)*%
X134620000Y-90170000D03*
%TO.P,A1,17*%
%TO.N,3v3*%
X149860000Y-120650000D03*
D19*
%TO.P,A1,1*%
%TO.N,Net-(A1-Pad1)*%
X134620000Y-87630000D03*
%TD*%
M02*
