%TF.GenerationSoftware,KiCad,Pcbnew,5.1.9*%
%TF.CreationDate,2021-05-04T18:35:03+02:00*%
%TF.ProjectId,mmms_sorter_schema,6d6d6d73-5f73-46f7-9274-65725f736368,rev?*%
%TF.SameCoordinates,Original*%
%TF.FileFunction,Legend,Top*%
%TF.FilePolarity,Positive*%
%FSLAX46Y46*%
G04 Gerber Fmt 4.6, Leading zero omitted, Abs format (unit mm)*
G04 Created by KiCad (PCBNEW 5.1.9) date 2021-05-04 18:35:03*
%MOMM*%
%LPD*%
G01*
G04 APERTURE LIST*
%ADD10C,0.150000*%
%ADD11C,0.120000*%
G04 APERTURE END LIST*
D10*
X113030000Y-67310000D02*
X113030000Y-82550000D01*
X153670000Y-67310000D02*
X113030000Y-67310000D01*
X153670000Y-132080000D02*
X153670000Y-67310000D01*
X113030000Y-132080000D02*
X153670000Y-132080000D01*
X113030000Y-82550000D02*
X113030000Y-132080000D01*
D11*
%TO.C,U2*%
X134560000Y-80070000D02*
X134560000Y-78740000D01*
X135890000Y-80070000D02*
X134560000Y-80070000D01*
X137160000Y-80070000D02*
X137160000Y-77410000D01*
X137160000Y-77410000D02*
X149920000Y-77410000D01*
X137160000Y-80070000D02*
X149920000Y-80070000D01*
X149920000Y-80070000D02*
X149920000Y-77410000D01*
%TO.C,U1*%
X122501000Y-83090000D02*
X122501000Y-84600000D01*
X118800000Y-83090000D02*
X118800000Y-84600000D01*
X115530000Y-84600000D02*
X125770000Y-84600000D01*
X125770000Y-83090000D02*
X125770000Y-87731000D01*
X115530000Y-83090000D02*
X115530000Y-87731000D01*
X115530000Y-87731000D02*
X125770000Y-87731000D01*
X115530000Y-83090000D02*
X125770000Y-83090000D01*
%TO.C,R1*%
X129540000Y-86710000D02*
X129540000Y-86090000D01*
X130460000Y-87630000D02*
G75*
G03*
X130460000Y-87630000I-920000J0D01*
G01*
%TO.C,M2*%
X130870000Y-111700000D02*
X130870000Y-113030000D01*
X129540000Y-111700000D02*
X130870000Y-111700000D01*
X128270000Y-111700000D02*
X128270000Y-114360000D01*
X128270000Y-114360000D02*
X123130000Y-114360000D01*
X128270000Y-111700000D02*
X123130000Y-111700000D01*
X123130000Y-111700000D02*
X123130000Y-114360000D01*
%TO.C,M1*%
X130870000Y-121860000D02*
X130870000Y-123190000D01*
X129540000Y-121860000D02*
X130870000Y-121860000D01*
X128270000Y-121860000D02*
X128270000Y-124520000D01*
X128270000Y-124520000D02*
X123130000Y-124520000D01*
X128270000Y-121860000D02*
X123130000Y-121860000D01*
X123130000Y-121860000D02*
X123130000Y-124520000D01*
%TO.C,D1*%
X140910000Y-69790000D02*
X142240000Y-69790000D01*
X140910000Y-71120000D02*
X140910000Y-69790000D01*
X140910000Y-72390000D02*
X143570000Y-72390000D01*
X143570000Y-72390000D02*
X143570000Y-74990000D01*
X140910000Y-72390000D02*
X140910000Y-74990000D01*
X140910000Y-74990000D02*
X143570000Y-74990000D01*
%TO.C,C2*%
X127049801Y-94105000D02*
X127049801Y-93705000D01*
X127249801Y-93905000D02*
X126849801Y-93905000D01*
X122899000Y-93080000D02*
X122899000Y-92340000D01*
X122939000Y-93247000D02*
X122939000Y-92173000D01*
X122979000Y-93374000D02*
X122979000Y-92046000D01*
X123019000Y-93478000D02*
X123019000Y-91942000D01*
X123059000Y-93569000D02*
X123059000Y-91851000D01*
X123099000Y-93650000D02*
X123099000Y-91770000D01*
X123139000Y-93723000D02*
X123139000Y-91697000D01*
X123179000Y-93790000D02*
X123179000Y-91630000D01*
X123219000Y-93852000D02*
X123219000Y-91568000D01*
X123259000Y-93910000D02*
X123259000Y-91510000D01*
X123299000Y-93964000D02*
X123299000Y-91456000D01*
X123339000Y-94014000D02*
X123339000Y-91406000D01*
X123379000Y-94061000D02*
X123379000Y-91359000D01*
X123419000Y-91870000D02*
X123419000Y-91314000D01*
X123419000Y-94106000D02*
X123419000Y-93550000D01*
X123459000Y-91870000D02*
X123459000Y-91272000D01*
X123459000Y-94148000D02*
X123459000Y-93550000D01*
X123499000Y-91870000D02*
X123499000Y-91232000D01*
X123499000Y-94188000D02*
X123499000Y-93550000D01*
X123539000Y-91870000D02*
X123539000Y-91194000D01*
X123539000Y-94226000D02*
X123539000Y-93550000D01*
X123579000Y-91870000D02*
X123579000Y-91158000D01*
X123579000Y-94262000D02*
X123579000Y-93550000D01*
X123619000Y-91870000D02*
X123619000Y-91123000D01*
X123619000Y-94297000D02*
X123619000Y-93550000D01*
X123659000Y-91870000D02*
X123659000Y-91091000D01*
X123659000Y-94329000D02*
X123659000Y-93550000D01*
X123699000Y-91870000D02*
X123699000Y-91060000D01*
X123699000Y-94360000D02*
X123699000Y-93550000D01*
X123739000Y-91870000D02*
X123739000Y-91030000D01*
X123739000Y-94390000D02*
X123739000Y-93550000D01*
X123779000Y-91870000D02*
X123779000Y-91002000D01*
X123779000Y-94418000D02*
X123779000Y-93550000D01*
X123819000Y-91870000D02*
X123819000Y-90975000D01*
X123819000Y-94445000D02*
X123819000Y-93550000D01*
X123859000Y-91870000D02*
X123859000Y-90950000D01*
X123859000Y-94470000D02*
X123859000Y-93550000D01*
X123899000Y-91870000D02*
X123899000Y-90925000D01*
X123899000Y-94495000D02*
X123899000Y-93550000D01*
X123939000Y-91870000D02*
X123939000Y-90902000D01*
X123939000Y-94518000D02*
X123939000Y-93550000D01*
X123979000Y-91870000D02*
X123979000Y-90880000D01*
X123979000Y-94540000D02*
X123979000Y-93550000D01*
X124019000Y-91870000D02*
X124019000Y-90859000D01*
X124019000Y-94561000D02*
X124019000Y-93550000D01*
X124059000Y-91870000D02*
X124059000Y-90840000D01*
X124059000Y-94580000D02*
X124059000Y-93550000D01*
X124099000Y-91870000D02*
X124099000Y-90821000D01*
X124099000Y-94599000D02*
X124099000Y-93550000D01*
X124139000Y-91870000D02*
X124139000Y-90803000D01*
X124139000Y-94617000D02*
X124139000Y-93550000D01*
X124179000Y-91870000D02*
X124179000Y-90786000D01*
X124179000Y-94634000D02*
X124179000Y-93550000D01*
X124219000Y-91870000D02*
X124219000Y-90770000D01*
X124219000Y-94650000D02*
X124219000Y-93550000D01*
X124259000Y-91870000D02*
X124259000Y-90756000D01*
X124259000Y-94664000D02*
X124259000Y-93550000D01*
X124300000Y-91870000D02*
X124300000Y-90742000D01*
X124300000Y-94678000D02*
X124300000Y-93550000D01*
X124340000Y-91870000D02*
X124340000Y-90728000D01*
X124340000Y-94692000D02*
X124340000Y-93550000D01*
X124380000Y-91870000D02*
X124380000Y-90716000D01*
X124380000Y-94704000D02*
X124380000Y-93550000D01*
X124420000Y-91870000D02*
X124420000Y-90705000D01*
X124420000Y-94715000D02*
X124420000Y-93550000D01*
X124460000Y-91870000D02*
X124460000Y-90694000D01*
X124460000Y-94726000D02*
X124460000Y-93550000D01*
X124500000Y-91870000D02*
X124500000Y-90685000D01*
X124500000Y-94735000D02*
X124500000Y-93550000D01*
X124540000Y-91870000D02*
X124540000Y-90676000D01*
X124540000Y-94744000D02*
X124540000Y-93550000D01*
X124580000Y-91870000D02*
X124580000Y-90668000D01*
X124580000Y-94752000D02*
X124580000Y-93550000D01*
X124620000Y-91870000D02*
X124620000Y-90660000D01*
X124620000Y-94760000D02*
X124620000Y-93550000D01*
X124660000Y-91870000D02*
X124660000Y-90654000D01*
X124660000Y-94766000D02*
X124660000Y-93550000D01*
X124700000Y-91870000D02*
X124700000Y-90648000D01*
X124700000Y-94772000D02*
X124700000Y-93550000D01*
X124740000Y-91870000D02*
X124740000Y-90643000D01*
X124740000Y-94777000D02*
X124740000Y-93550000D01*
X124780000Y-91870000D02*
X124780000Y-90639000D01*
X124780000Y-94781000D02*
X124780000Y-93550000D01*
X124820000Y-91870000D02*
X124820000Y-90636000D01*
X124820000Y-94784000D02*
X124820000Y-93550000D01*
X124860000Y-91870000D02*
X124860000Y-90633000D01*
X124860000Y-94787000D02*
X124860000Y-93550000D01*
X124900000Y-94789000D02*
X124900000Y-93550000D01*
X124900000Y-91870000D02*
X124900000Y-90631000D01*
X124940000Y-94790000D02*
X124940000Y-93550000D01*
X124940000Y-91870000D02*
X124940000Y-90630000D01*
X124980000Y-94790000D02*
X124980000Y-93550000D01*
X124980000Y-91870000D02*
X124980000Y-90630000D01*
X127100000Y-92710000D02*
G75*
G03*
X127100000Y-92710000I-2120000J0D01*
G01*
%TO.C,C1*%
X114250199Y-91315000D02*
X114250199Y-91715000D01*
X114050199Y-91515000D02*
X114450199Y-91515000D01*
X118401000Y-92340000D02*
X118401000Y-93080000D01*
X118361000Y-92173000D02*
X118361000Y-93247000D01*
X118321000Y-92046000D02*
X118321000Y-93374000D01*
X118281000Y-91942000D02*
X118281000Y-93478000D01*
X118241000Y-91851000D02*
X118241000Y-93569000D01*
X118201000Y-91770000D02*
X118201000Y-93650000D01*
X118161000Y-91697000D02*
X118161000Y-93723000D01*
X118121000Y-91630000D02*
X118121000Y-93790000D01*
X118081000Y-91568000D02*
X118081000Y-93852000D01*
X118041000Y-91510000D02*
X118041000Y-93910000D01*
X118001000Y-91456000D02*
X118001000Y-93964000D01*
X117961000Y-91406000D02*
X117961000Y-94014000D01*
X117921000Y-91359000D02*
X117921000Y-94061000D01*
X117881000Y-93550000D02*
X117881000Y-94106000D01*
X117881000Y-91314000D02*
X117881000Y-91870000D01*
X117841000Y-93550000D02*
X117841000Y-94148000D01*
X117841000Y-91272000D02*
X117841000Y-91870000D01*
X117801000Y-93550000D02*
X117801000Y-94188000D01*
X117801000Y-91232000D02*
X117801000Y-91870000D01*
X117761000Y-93550000D02*
X117761000Y-94226000D01*
X117761000Y-91194000D02*
X117761000Y-91870000D01*
X117721000Y-93550000D02*
X117721000Y-94262000D01*
X117721000Y-91158000D02*
X117721000Y-91870000D01*
X117681000Y-93550000D02*
X117681000Y-94297000D01*
X117681000Y-91123000D02*
X117681000Y-91870000D01*
X117641000Y-93550000D02*
X117641000Y-94329000D01*
X117641000Y-91091000D02*
X117641000Y-91870000D01*
X117601000Y-93550000D02*
X117601000Y-94360000D01*
X117601000Y-91060000D02*
X117601000Y-91870000D01*
X117561000Y-93550000D02*
X117561000Y-94390000D01*
X117561000Y-91030000D02*
X117561000Y-91870000D01*
X117521000Y-93550000D02*
X117521000Y-94418000D01*
X117521000Y-91002000D02*
X117521000Y-91870000D01*
X117481000Y-93550000D02*
X117481000Y-94445000D01*
X117481000Y-90975000D02*
X117481000Y-91870000D01*
X117441000Y-93550000D02*
X117441000Y-94470000D01*
X117441000Y-90950000D02*
X117441000Y-91870000D01*
X117401000Y-93550000D02*
X117401000Y-94495000D01*
X117401000Y-90925000D02*
X117401000Y-91870000D01*
X117361000Y-93550000D02*
X117361000Y-94518000D01*
X117361000Y-90902000D02*
X117361000Y-91870000D01*
X117321000Y-93550000D02*
X117321000Y-94540000D01*
X117321000Y-90880000D02*
X117321000Y-91870000D01*
X117281000Y-93550000D02*
X117281000Y-94561000D01*
X117281000Y-90859000D02*
X117281000Y-91870000D01*
X117241000Y-93550000D02*
X117241000Y-94580000D01*
X117241000Y-90840000D02*
X117241000Y-91870000D01*
X117201000Y-93550000D02*
X117201000Y-94599000D01*
X117201000Y-90821000D02*
X117201000Y-91870000D01*
X117161000Y-93550000D02*
X117161000Y-94617000D01*
X117161000Y-90803000D02*
X117161000Y-91870000D01*
X117121000Y-93550000D02*
X117121000Y-94634000D01*
X117121000Y-90786000D02*
X117121000Y-91870000D01*
X117081000Y-93550000D02*
X117081000Y-94650000D01*
X117081000Y-90770000D02*
X117081000Y-91870000D01*
X117041000Y-93550000D02*
X117041000Y-94664000D01*
X117041000Y-90756000D02*
X117041000Y-91870000D01*
X117000000Y-93550000D02*
X117000000Y-94678000D01*
X117000000Y-90742000D02*
X117000000Y-91870000D01*
X116960000Y-93550000D02*
X116960000Y-94692000D01*
X116960000Y-90728000D02*
X116960000Y-91870000D01*
X116920000Y-93550000D02*
X116920000Y-94704000D01*
X116920000Y-90716000D02*
X116920000Y-91870000D01*
X116880000Y-93550000D02*
X116880000Y-94715000D01*
X116880000Y-90705000D02*
X116880000Y-91870000D01*
X116840000Y-93550000D02*
X116840000Y-94726000D01*
X116840000Y-90694000D02*
X116840000Y-91870000D01*
X116800000Y-93550000D02*
X116800000Y-94735000D01*
X116800000Y-90685000D02*
X116800000Y-91870000D01*
X116760000Y-93550000D02*
X116760000Y-94744000D01*
X116760000Y-90676000D02*
X116760000Y-91870000D01*
X116720000Y-93550000D02*
X116720000Y-94752000D01*
X116720000Y-90668000D02*
X116720000Y-91870000D01*
X116680000Y-93550000D02*
X116680000Y-94760000D01*
X116680000Y-90660000D02*
X116680000Y-91870000D01*
X116640000Y-93550000D02*
X116640000Y-94766000D01*
X116640000Y-90654000D02*
X116640000Y-91870000D01*
X116600000Y-93550000D02*
X116600000Y-94772000D01*
X116600000Y-90648000D02*
X116600000Y-91870000D01*
X116560000Y-93550000D02*
X116560000Y-94777000D01*
X116560000Y-90643000D02*
X116560000Y-91870000D01*
X116520000Y-93550000D02*
X116520000Y-94781000D01*
X116520000Y-90639000D02*
X116520000Y-91870000D01*
X116480000Y-93550000D02*
X116480000Y-94784000D01*
X116480000Y-90636000D02*
X116480000Y-91870000D01*
X116440000Y-93550000D02*
X116440000Y-94787000D01*
X116440000Y-90633000D02*
X116440000Y-91870000D01*
X116400000Y-90631000D02*
X116400000Y-91870000D01*
X116400000Y-93550000D02*
X116400000Y-94789000D01*
X116360000Y-90630000D02*
X116360000Y-91870000D01*
X116360000Y-93550000D02*
X116360000Y-94790000D01*
X116320000Y-90630000D02*
X116320000Y-91870000D01*
X116320000Y-93550000D02*
X116320000Y-94790000D01*
X118440000Y-92710000D02*
G75*
G03*
X118440000Y-92710000I-2120000J0D01*
G01*
%TO.C,A1*%
X151260000Y-83690000D02*
X133220000Y-83690000D01*
X151260000Y-127130000D02*
X151260000Y-83690000D01*
X133220000Y-127130000D02*
X151260000Y-127130000D01*
X135890000Y-124460000D02*
X133220000Y-124460000D01*
X135890000Y-88900000D02*
X135890000Y-124460000D01*
X135890000Y-88900000D02*
X133220000Y-88900000D01*
X148590000Y-124460000D02*
X151260000Y-124460000D01*
X148590000Y-86360000D02*
X148590000Y-124460000D01*
X148590000Y-86360000D02*
X151260000Y-86360000D01*
X133220000Y-83690000D02*
X133220000Y-86360000D01*
X133220000Y-88900000D02*
X133220000Y-127130000D01*
X135890000Y-86360000D02*
X133220000Y-86360000D01*
X135890000Y-88900000D02*
X135890000Y-86360000D01*
%TO.C,U2*%
D10*
X133012380Y-79501904D02*
X133821904Y-79501904D01*
X133917142Y-79454285D01*
X133964761Y-79406666D01*
X134012380Y-79311428D01*
X134012380Y-79120952D01*
X133964761Y-79025714D01*
X133917142Y-78978095D01*
X133821904Y-78930476D01*
X133012380Y-78930476D01*
X133107619Y-78501904D02*
X133060000Y-78454285D01*
X133012380Y-78359047D01*
X133012380Y-78120952D01*
X133060000Y-78025714D01*
X133107619Y-77978095D01*
X133202857Y-77930476D01*
X133298095Y-77930476D01*
X133440952Y-77978095D01*
X134012380Y-78549523D01*
X134012380Y-77930476D01*
%TO.C,U1*%
X119888095Y-81542380D02*
X119888095Y-82351904D01*
X119935714Y-82447142D01*
X119983333Y-82494761D01*
X120078571Y-82542380D01*
X120269047Y-82542380D01*
X120364285Y-82494761D01*
X120411904Y-82447142D01*
X120459523Y-82351904D01*
X120459523Y-81542380D01*
X121459523Y-82542380D02*
X120888095Y-82542380D01*
X121173809Y-82542380D02*
X121173809Y-81542380D01*
X121078571Y-81685238D01*
X120983333Y-81780476D01*
X120888095Y-81828095D01*
%TO.C,R1*%
X128072380Y-86526666D02*
X127596190Y-86860000D01*
X128072380Y-87098095D02*
X127072380Y-87098095D01*
X127072380Y-86717142D01*
X127120000Y-86621904D01*
X127167619Y-86574285D01*
X127262857Y-86526666D01*
X127405714Y-86526666D01*
X127500952Y-86574285D01*
X127548571Y-86621904D01*
X127596190Y-86717142D01*
X127596190Y-87098095D01*
X128072380Y-85574285D02*
X128072380Y-86145714D01*
X128072380Y-85860000D02*
X127072380Y-85860000D01*
X127215238Y-85955238D01*
X127310476Y-86050476D01*
X127358095Y-86145714D01*
%TO.C,M2*%
X132322380Y-113839523D02*
X131322380Y-113839523D01*
X132036666Y-113506190D01*
X131322380Y-113172857D01*
X132322380Y-113172857D01*
X131417619Y-112744285D02*
X131370000Y-112696666D01*
X131322380Y-112601428D01*
X131322380Y-112363333D01*
X131370000Y-112268095D01*
X131417619Y-112220476D01*
X131512857Y-112172857D01*
X131608095Y-112172857D01*
X131750952Y-112220476D01*
X132322380Y-112791904D01*
X132322380Y-112172857D01*
%TO.C,M1*%
X132322380Y-123999523D02*
X131322380Y-123999523D01*
X132036666Y-123666190D01*
X131322380Y-123332857D01*
X132322380Y-123332857D01*
X132322380Y-122332857D02*
X132322380Y-122904285D01*
X132322380Y-122618571D02*
X131322380Y-122618571D01*
X131465238Y-122713809D01*
X131560476Y-122809047D01*
X131608095Y-122904285D01*
%TO.C,D1*%
X141501904Y-69242380D02*
X141501904Y-68242380D01*
X141740000Y-68242380D01*
X141882857Y-68290000D01*
X141978095Y-68385238D01*
X142025714Y-68480476D01*
X142073333Y-68670952D01*
X142073333Y-68813809D01*
X142025714Y-69004285D01*
X141978095Y-69099523D01*
X141882857Y-69194761D01*
X141740000Y-69242380D01*
X141501904Y-69242380D01*
X143025714Y-69242380D02*
X142454285Y-69242380D01*
X142740000Y-69242380D02*
X142740000Y-68242380D01*
X142644761Y-68385238D01*
X142549523Y-68480476D01*
X142454285Y-68528095D01*
%TO.C,C2*%
X124813333Y-96317142D02*
X124765714Y-96364761D01*
X124622857Y-96412380D01*
X124527619Y-96412380D01*
X124384761Y-96364761D01*
X124289523Y-96269523D01*
X124241904Y-96174285D01*
X124194285Y-95983809D01*
X124194285Y-95840952D01*
X124241904Y-95650476D01*
X124289523Y-95555238D01*
X124384761Y-95460000D01*
X124527619Y-95412380D01*
X124622857Y-95412380D01*
X124765714Y-95460000D01*
X124813333Y-95507619D01*
X125194285Y-95507619D02*
X125241904Y-95460000D01*
X125337142Y-95412380D01*
X125575238Y-95412380D01*
X125670476Y-95460000D01*
X125718095Y-95507619D01*
X125765714Y-95602857D01*
X125765714Y-95698095D01*
X125718095Y-95840952D01*
X125146666Y-96412380D01*
X125765714Y-96412380D01*
%TO.C,C1*%
X116153333Y-89817142D02*
X116105714Y-89864761D01*
X115962857Y-89912380D01*
X115867619Y-89912380D01*
X115724761Y-89864761D01*
X115629523Y-89769523D01*
X115581904Y-89674285D01*
X115534285Y-89483809D01*
X115534285Y-89340952D01*
X115581904Y-89150476D01*
X115629523Y-89055238D01*
X115724761Y-88960000D01*
X115867619Y-88912380D01*
X115962857Y-88912380D01*
X116105714Y-88960000D01*
X116153333Y-89007619D01*
X117105714Y-89912380D02*
X116534285Y-89912380D01*
X116820000Y-89912380D02*
X116820000Y-88912380D01*
X116724761Y-89055238D01*
X116629523Y-89150476D01*
X116534285Y-89198095D01*
%TO.C,A1*%
X141525714Y-82716666D02*
X142001904Y-82716666D01*
X141430476Y-83002380D02*
X141763809Y-82002380D01*
X142097142Y-83002380D01*
X142954285Y-83002380D02*
X142382857Y-83002380D01*
X142668571Y-83002380D02*
X142668571Y-82002380D01*
X142573333Y-82145238D01*
X142478095Y-82240476D01*
X142382857Y-82288095D01*
%TD*%
M02*
