M48
; DRILL file {KiCad 5.1.9} date Sat May  8 20:45:49 2021
; FORMAT={-:-/ absolute / inch / decimal}
; #@! TF.CreationDate,2021-05-08T20:45:49+02:00
; #@! TF.GenerationSoftware,Kicad,Pcbnew,5.1.9
; #@! TF.FileFunction,Plated,1,2,PTH
FMAT,2
INCH
T1C0.0276
T2C0.0394
%
G90
G05
T1
X6.475Y-2.7
X6.475Y-3.0
T2
X4.35Y-2.35
X4.35Y-2.45
X4.35Y-2.55
X4.35Y-3.15
X4.35Y-3.25
X4.35Y-3.35
X5.0Y-2.25
X5.0Y-2.35
X5.0Y-2.45
X5.0Y-2.55
X5.0Y-2.65
X5.0Y-2.75
X5.0Y-2.85
X5.0Y-2.95
X5.0Y-3.05
X5.0Y-3.15
X5.0Y-3.25
X5.0Y-3.35
X5.0Y-3.45
X5.0Y-3.55
X5.0Y-3.65
X5.05Y-4.25
X5.15Y-4.25
X5.25Y-4.25
X5.35Y-4.25
X5.45Y-4.25
X5.55Y-4.25
X5.6Y-2.25
X5.6Y-2.35
X5.6Y-2.45
X5.6Y-2.55
X5.6Y-2.65
X5.6Y-2.75
X5.6Y-2.85
X5.6Y-2.95
X5.6Y-3.05
X5.6Y-3.15
X5.6Y-3.25
X5.6Y-3.35
X5.6Y-3.45
X5.6Y-3.55
X5.6Y-3.65
X7.125Y-1.75
X7.125Y-1.85
X7.125Y-1.95
X7.125Y-2.05
X7.125Y-2.15
X7.125Y-2.25
X7.125Y-2.5
X7.125Y-2.6
X7.125Y-4.225
X7.225Y-4.225
T0
M30
