%TF.GenerationSoftware,KiCad,Pcbnew,5.1.9*%
%TF.CreationDate,2021-05-09T12:34:02+02:00*%
%TF.ProjectId,mmms_sorter_schema,6d6d6d73-5f73-46f7-9274-65725f736368,rev?*%
%TF.SameCoordinates,Original*%
%TF.FileFunction,Copper,L1,Top*%
%TF.FilePolarity,Positive*%
%FSLAX46Y46*%
G04 Gerber Fmt 4.6, Leading zero omitted, Abs format (unit mm)*
G04 Created by KiCad (PCBNEW 5.1.9) date 2021-05-09 12:34:02*
%MOMM*%
%LPD*%
G01*
G04 APERTURE LIST*
%TA.AperFunction,NonConductor*%
%ADD10C,0.600000*%
%TD*%
%TA.AperFunction,ComponentPad*%
%ADD11O,1.700000X1.700000*%
%TD*%
%TA.AperFunction,ComponentPad*%
%ADD12C,1.700000*%
%TD*%
%TA.AperFunction,ComponentPad*%
%ADD13O,1.600000X1.600000*%
%TD*%
%TA.AperFunction,ComponentPad*%
%ADD14C,1.600000*%
%TD*%
%TA.AperFunction,ComponentPad*%
%ADD15O,1.400000X1.400000*%
%TD*%
%TA.AperFunction,ComponentPad*%
%ADD16C,1.400000*%
%TD*%
%TA.AperFunction,Conductor*%
%ADD17C,0.600000*%
%TD*%
%TA.AperFunction,Conductor*%
%ADD18C,1.200000*%
%TD*%
%TA.AperFunction,Conductor*%
%ADD19C,0.254000*%
%TD*%
%TA.AperFunction,Conductor*%
%ADD20C,0.100000*%
%TD*%
G04 APERTURE END LIST*
D10*
X109757857Y-46805714D02*
X109757857Y-44405714D01*
X110329285Y-44405714D01*
X110672142Y-44520000D01*
X110900714Y-44748571D01*
X111015000Y-44977142D01*
X111129285Y-45434285D01*
X111129285Y-45777142D01*
X111015000Y-46234285D01*
X110900714Y-46462857D01*
X110672142Y-46691428D01*
X110329285Y-46805714D01*
X109757857Y-46805714D01*
X113186428Y-46805714D02*
X113186428Y-45548571D01*
X113072142Y-45320000D01*
X112843571Y-45205714D01*
X112386428Y-45205714D01*
X112157857Y-45320000D01*
X113186428Y-46691428D02*
X112957857Y-46805714D01*
X112386428Y-46805714D01*
X112157857Y-46691428D01*
X112043571Y-46462857D01*
X112043571Y-46234285D01*
X112157857Y-46005714D01*
X112386428Y-45891428D01*
X112957857Y-45891428D01*
X113186428Y-45777142D01*
X114100714Y-45205714D02*
X114557857Y-46805714D01*
X115015000Y-45662857D01*
X115472142Y-46805714D01*
X115929285Y-45205714D01*
X116843571Y-46805714D02*
X116843571Y-45205714D01*
X116843571Y-44405714D02*
X116729285Y-44520000D01*
X116843571Y-44634285D01*
X116957857Y-44520000D01*
X116843571Y-44405714D01*
X116843571Y-44634285D01*
X119015000Y-46805714D02*
X119015000Y-44405714D01*
X119015000Y-46691428D02*
X118786428Y-46805714D01*
X118329285Y-46805714D01*
X118100714Y-46691428D01*
X117986428Y-46577142D01*
X117872142Y-46348571D01*
X117872142Y-45662857D01*
X117986428Y-45434285D01*
X118100714Y-45320000D01*
X118329285Y-45205714D01*
X118786428Y-45205714D01*
X119015000Y-45320000D01*
X121986428Y-46805714D02*
X121986428Y-44405714D01*
X122557857Y-44405714D01*
X122900714Y-44520000D01*
X123129285Y-44748571D01*
X123243571Y-44977142D01*
X123357857Y-45434285D01*
X123357857Y-45777142D01*
X123243571Y-46234285D01*
X123129285Y-46462857D01*
X122900714Y-46691428D01*
X122557857Y-46805714D01*
X121986428Y-46805714D01*
X124157857Y-45205714D02*
X125415000Y-45205714D01*
X124157857Y-46805714D01*
X125415000Y-46805714D01*
X126329285Y-46805714D02*
X126329285Y-45205714D01*
X126329285Y-44405714D02*
X126215000Y-44520000D01*
X126329285Y-44634285D01*
X126443571Y-44520000D01*
X126329285Y-44405714D01*
X126329285Y-44634285D01*
X128386428Y-46691428D02*
X128157857Y-46805714D01*
X127700714Y-46805714D01*
X127472142Y-46691428D01*
X127357857Y-46462857D01*
X127357857Y-45548571D01*
X127472142Y-45320000D01*
X127700714Y-45205714D01*
X128157857Y-45205714D01*
X128386428Y-45320000D01*
X128500714Y-45548571D01*
X128500714Y-45777142D01*
X127357857Y-46005714D01*
X130557857Y-46805714D02*
X130557857Y-44405714D01*
X130557857Y-46691428D02*
X130329285Y-46805714D01*
X129872142Y-46805714D01*
X129643571Y-46691428D01*
X129529285Y-46577142D01*
X129415000Y-46348571D01*
X129415000Y-45662857D01*
X129529285Y-45434285D01*
X129643571Y-45320000D01*
X129872142Y-45205714D01*
X130329285Y-45205714D01*
X130557857Y-45320000D01*
X131472142Y-45205714D02*
X132729285Y-45205714D01*
X131472142Y-46805714D01*
X132729285Y-46805714D01*
X133643571Y-46805714D02*
X133643571Y-45205714D01*
X133643571Y-44405714D02*
X133529285Y-44520000D01*
X133643571Y-44634285D01*
X133757857Y-44520000D01*
X133643571Y-44405714D01*
X133643571Y-44634285D01*
X135815000Y-46691428D02*
X135586428Y-46805714D01*
X135129285Y-46805714D01*
X134900714Y-46691428D01*
X134786428Y-46577142D01*
X134672142Y-46348571D01*
X134672142Y-45662857D01*
X134786428Y-45434285D01*
X134900714Y-45320000D01*
X135129285Y-45205714D01*
X135586428Y-45205714D01*
X135815000Y-45320000D01*
X138557857Y-46691428D02*
X138900714Y-46805714D01*
X139472142Y-46805714D01*
X139700714Y-46691428D01*
X139815000Y-46577142D01*
X139929285Y-46348571D01*
X139929285Y-46120000D01*
X139815000Y-45891428D01*
X139700714Y-45777142D01*
X139472142Y-45662857D01*
X139015000Y-45548571D01*
X138786428Y-45434285D01*
X138672142Y-45320000D01*
X138557857Y-45091428D01*
X138557857Y-44862857D01*
X138672142Y-44634285D01*
X138786428Y-44520000D01*
X139015000Y-44405714D01*
X139586428Y-44405714D01*
X139929285Y-44520000D01*
X141300714Y-46805714D02*
X141072142Y-46691428D01*
X140957857Y-46577142D01*
X140843571Y-46348571D01*
X140843571Y-45662857D01*
X140957857Y-45434285D01*
X141072142Y-45320000D01*
X141300714Y-45205714D01*
X141643571Y-45205714D01*
X141872142Y-45320000D01*
X141986428Y-45434285D01*
X142100714Y-45662857D01*
X142100714Y-46348571D01*
X141986428Y-46577142D01*
X141872142Y-46691428D01*
X141643571Y-46805714D01*
X141300714Y-46805714D01*
X143129285Y-46805714D02*
X143129285Y-45205714D01*
X143129285Y-45662857D02*
X143243571Y-45434285D01*
X143357857Y-45320000D01*
X143586428Y-45205714D01*
X143815000Y-45205714D01*
X144272142Y-45205714D02*
X145186428Y-45205714D01*
X144615000Y-44405714D02*
X144615000Y-46462857D01*
X144729285Y-46691428D01*
X144957857Y-46805714D01*
X145186428Y-46805714D01*
X146900714Y-46691428D02*
X146672142Y-46805714D01*
X146215000Y-46805714D01*
X145986428Y-46691428D01*
X145872142Y-46462857D01*
X145872142Y-45548571D01*
X145986428Y-45320000D01*
X146215000Y-45205714D01*
X146672142Y-45205714D01*
X146900714Y-45320000D01*
X147015000Y-45548571D01*
X147015000Y-45777142D01*
X145872142Y-46005714D01*
X148043571Y-46805714D02*
X148043571Y-45205714D01*
X148043571Y-45662857D02*
X148157857Y-45434285D01*
X148272142Y-45320000D01*
X148500714Y-45205714D01*
X148729285Y-45205714D01*
X151357857Y-46805714D02*
X151357857Y-44405714D01*
X152157857Y-46120000D01*
X152957857Y-44405714D01*
X152957857Y-46805714D01*
X154100714Y-46805714D02*
X154100714Y-44405714D01*
X154900714Y-46120000D01*
X155700714Y-44405714D01*
X155700714Y-46805714D01*
X156843571Y-46805714D02*
X156843571Y-44405714D01*
X157643571Y-46120000D01*
X158443571Y-44405714D01*
X158443571Y-46805714D01*
X159472142Y-46691428D02*
X159815000Y-46805714D01*
X160386428Y-46805714D01*
X160615000Y-46691428D01*
X160729285Y-46577142D01*
X160843571Y-46348571D01*
X160843571Y-46120000D01*
X160729285Y-45891428D01*
X160615000Y-45777142D01*
X160386428Y-45662857D01*
X159929285Y-45548571D01*
X159700714Y-45434285D01*
X159586428Y-45320000D01*
X159472142Y-45091428D01*
X159472142Y-44862857D01*
X159586428Y-44634285D01*
X159700714Y-44520000D01*
X159929285Y-44405714D01*
X160500714Y-44405714D01*
X160843571Y-44520000D01*
X163586428Y-44634285D02*
X163700714Y-44520000D01*
X163929285Y-44405714D01*
X164500714Y-44405714D01*
X164729285Y-44520000D01*
X164843571Y-44634285D01*
X164957857Y-44862857D01*
X164957857Y-45091428D01*
X164843571Y-45434285D01*
X163472142Y-46805714D01*
X164957857Y-46805714D01*
X166443571Y-44405714D02*
X166672142Y-44405714D01*
X166900714Y-44520000D01*
X167015000Y-44634285D01*
X167129285Y-44862857D01*
X167243571Y-45320000D01*
X167243571Y-45891428D01*
X167129285Y-46348571D01*
X167015000Y-46577142D01*
X166900714Y-46691428D01*
X166672142Y-46805714D01*
X166443571Y-46805714D01*
X166215000Y-46691428D01*
X166100714Y-46577142D01*
X165986428Y-46348571D01*
X165872142Y-45891428D01*
X165872142Y-45320000D01*
X165986428Y-44862857D01*
X166100714Y-44634285D01*
X166215000Y-44520000D01*
X166443571Y-44405714D01*
X168157857Y-44634285D02*
X168272142Y-44520000D01*
X168500714Y-44405714D01*
X169072142Y-44405714D01*
X169300714Y-44520000D01*
X169415000Y-44634285D01*
X169529285Y-44862857D01*
X169529285Y-45091428D01*
X169415000Y-45434285D01*
X168043571Y-46805714D01*
X169529285Y-46805714D01*
X171814999Y-46805714D02*
X170443571Y-46805714D01*
X171129285Y-46805714D02*
X171129285Y-44405714D01*
X170900714Y-44748571D01*
X170672142Y-44977142D01*
X170443571Y-45091428D01*
X174443571Y-45205714D02*
X175014999Y-46805714D01*
X175586428Y-45205714D01*
X176957857Y-44405714D02*
X177186428Y-44405714D01*
X177414999Y-44520000D01*
X177529285Y-44634285D01*
X177643571Y-44862857D01*
X177757857Y-45320000D01*
X177757857Y-45891428D01*
X177643571Y-46348571D01*
X177529285Y-46577142D01*
X177414999Y-46691428D01*
X177186428Y-46805714D01*
X176957857Y-46805714D01*
X176729285Y-46691428D01*
X176614999Y-46577142D01*
X176500714Y-46348571D01*
X176386428Y-45891428D01*
X176386428Y-45320000D01*
X176500714Y-44862857D01*
X176614999Y-44634285D01*
X176729285Y-44520000D01*
X176957857Y-44405714D01*
X178786428Y-46577142D02*
X178900714Y-46691428D01*
X178786428Y-46805714D01*
X178672142Y-46691428D01*
X178786428Y-46577142D01*
X178786428Y-46805714D01*
X179814999Y-44634285D02*
X179929285Y-44520000D01*
X180157857Y-44405714D01*
X180729285Y-44405714D01*
X180957857Y-44520000D01*
X181072142Y-44634285D01*
X181186428Y-44862857D01*
X181186428Y-45091428D01*
X181072142Y-45434285D01*
X179700714Y-46805714D01*
X181186428Y-46805714D01*
D11*
%TO.P,U2,6*%
%TO.N,Net-(U2-Pad6)*%
X175895000Y-57150000D03*
%TO.P,U2,5*%
%TO.N,N/C*%
X175895000Y-59690000D03*
%TO.P,U2,4*%
%TO.N,SCL*%
X175895000Y-62230000D03*
%TO.P,U2,3*%
%TO.N,SDA*%
X175895000Y-64770000D03*
%TO.P,U2,2*%
%TO.N,Net-(A1-Pad17)*%
X175895000Y-67310000D03*
D12*
%TO.P,U2,1*%
%TO.N,GND*%
X175895000Y-69850000D03*
%TD*%
D13*
%TO.P,A1,16*%
%TO.N,Net-(A1-Pad16)*%
X145415000Y-93980000D03*
%TO.P,A1,15*%
%TO.N,Net-(A1-Pad15)*%
X130175000Y-93980000D03*
%TO.P,A1,30*%
%TO.N,+5V*%
X145415000Y-58420000D03*
%TO.P,A1,14*%
%TO.N,Net-(A1-Pad14)*%
X130175000Y-91440000D03*
%TO.P,A1,29*%
%TO.N,GND*%
X145415000Y-60960000D03*
%TO.P,A1,13*%
%TO.N,Net-(A1-Pad13)*%
X130175000Y-88900000D03*
%TO.P,A1,28*%
%TO.N,Net-(A1-Pad28)*%
X145415000Y-63500000D03*
%TO.P,A1,12*%
%TO.N,Net-(A1-Pad12)*%
X130175000Y-86360000D03*
%TO.P,A1,27*%
%TO.N,Net-(A1-Pad27)*%
X145415000Y-66040000D03*
%TO.P,A1,11*%
%TO.N,Net-(A1-Pad11)*%
X130175000Y-83820000D03*
%TO.P,A1,26*%
%TO.N,Net-(A1-Pad26)*%
X145415000Y-68580000D03*
%TO.P,A1,10*%
%TO.N,Net-(A1-Pad10)*%
X130175000Y-81280000D03*
%TO.P,A1,25*%
%TO.N,Net-(A1-Pad25)*%
X145415000Y-71120000D03*
%TO.P,A1,9*%
%TO.N,Net-(A1-Pad9)*%
X130175000Y-78740000D03*
%TO.P,A1,24*%
%TO.N,SCL*%
X145415000Y-73660000D03*
%TO.P,A1,8*%
%TO.N,Net-(A1-Pad8)*%
X130175000Y-76200000D03*
%TO.P,A1,23*%
%TO.N,SDA*%
X145415000Y-76200000D03*
%TO.P,A1,7*%
%TO.N,Net-(A1-Pad7)*%
X130175000Y-73660000D03*
%TO.P,A1,22*%
%TO.N,Net-(A1-Pad22)*%
X145415000Y-78740000D03*
%TO.P,A1,6*%
%TO.N,Net-(A1-Pad6)*%
X130175000Y-71120000D03*
%TO.P,A1,21*%
%TO.N,Net-(A1-Pad21)*%
X145415000Y-81280000D03*
%TO.P,A1,5*%
%TO.N,Net-(A1-Pad5)*%
X130175000Y-68580000D03*
%TO.P,A1,20*%
%TO.N,Net-(A1-Pad20)*%
X145415000Y-83820000D03*
%TO.P,A1,4*%
%TO.N,Net-(A1-Pad4)*%
X130175000Y-66040000D03*
%TO.P,A1,19*%
%TO.N,Net-(A1-Pad19)*%
X145415000Y-86360000D03*
%TO.P,A1,3*%
%TO.N,Net-(A1-Pad3)*%
X130175000Y-63500000D03*
%TO.P,A1,18*%
%TO.N,Net-(A1-Pad18)*%
X145415000Y-88900000D03*
%TO.P,A1,2*%
%TO.N,Net-(A1-Pad2)*%
X130175000Y-60960000D03*
%TO.P,A1,17*%
%TO.N,Net-(A1-Pad17)*%
X145415000Y-91440000D03*
D14*
%TO.P,A1,1*%
%TO.N,Net-(A1-Pad1)*%
X130175000Y-58420000D03*
%TD*%
D15*
%TO.P,R1,2*%
%TO.N,Net-(D1-Pad2)*%
X160655000Y-87630000D03*
D16*
%TO.P,R1,1*%
%TO.N,Net-(A1-Pad10)*%
X160655000Y-95250000D03*
%TD*%
D11*
%TO.P,M2,3*%
%TO.N,GND*%
X113665000Y-60960000D03*
%TO.P,M2,2*%
%TO.N,+5V*%
X113665000Y-63500000D03*
D12*
%TO.P,M2,1*%
%TO.N,Net-(A1-Pad8)*%
X113665000Y-66040000D03*
%TD*%
D11*
%TO.P,REF\u002A\u002A,2*%
%TO.N,GND*%
X175895000Y-103505000D03*
D12*
%TO.P,REF\u002A\u002A,1*%
%TO.N,+5V*%
X173355000Y-103505000D03*
%TD*%
D11*
%TO.P,U3,6*%
%TO.N,GND*%
X144145000Y-109220000D03*
%TO.P,U3,5*%
%TO.N,+5V*%
X141605000Y-109220000D03*
%TO.P,U3,4*%
%TO.N,Net-(A1-Pad15)*%
X139065000Y-109220000D03*
%TO.P,U3,3*%
%TO.N,Net-(A1-Pad14)*%
X136525000Y-109220000D03*
%TO.P,U3,2*%
%TO.N,Net-(A1-Pad13)*%
X133985000Y-109220000D03*
D12*
%TO.P,U3,1*%
%TO.N,Net-(A1-Pad12)*%
X131445000Y-109220000D03*
%TD*%
D11*
%TO.P,M1,3*%
%TO.N,GND*%
X113665000Y-86360000D03*
%TO.P,M1,2*%
%TO.N,+5V*%
X113665000Y-83820000D03*
D12*
%TO.P,M1,1*%
%TO.N,Net-(A1-Pad9)*%
X113665000Y-81280000D03*
%TD*%
D11*
%TO.P,D1,2*%
%TO.N,Net-(D1-Pad2)*%
X175895000Y-87630000D03*
D12*
%TO.P,D1,1*%
%TO.N,GND*%
X175895000Y-85090000D03*
%TD*%
D17*
%TO.N,Net-(A1-Pad15)*%
X139065000Y-102870000D02*
X130175000Y-93980000D01*
X139065000Y-109220000D02*
X139065000Y-102870000D01*
D18*
%TO.N,+5V*%
X141605000Y-109220000D02*
X136525000Y-114300000D01*
X136525000Y-114300000D02*
X127635000Y-114300000D01*
X127635000Y-114300000D02*
X118745000Y-105410000D01*
X118745000Y-88900000D02*
X113665000Y-83820000D01*
X118745000Y-105410000D02*
X118745000Y-88900000D01*
X113665000Y-83820000D02*
X109855000Y-83820000D01*
X109855000Y-83820000D02*
X107950000Y-81915000D01*
X107950000Y-69215000D02*
X113665000Y-63500000D01*
X107950000Y-81915000D02*
X107950000Y-69215000D01*
X113665000Y-63500000D02*
X118745000Y-63500000D01*
X118745000Y-63500000D02*
X128270000Y-53975000D01*
X140970000Y-53975000D02*
X145415000Y-58420000D01*
X128270000Y-53975000D02*
X140970000Y-53975000D01*
X147320000Y-103505000D02*
X141605000Y-109220000D01*
X173355000Y-103505000D02*
X147320000Y-103505000D01*
D17*
%TO.N,Net-(A1-Pad14)*%
X136525000Y-109220000D02*
X127635000Y-100330000D01*
X127635000Y-93980000D02*
X130175000Y-91440000D01*
X127635000Y-100330000D02*
X127635000Y-93980000D01*
D18*
%TO.N,GND*%
X144145000Y-109220000D02*
X137160000Y-116205000D01*
X137160000Y-116205000D02*
X123825000Y-116205000D01*
X113665000Y-106045000D02*
X113665000Y-86360000D01*
X123825000Y-116205000D02*
X113665000Y-106045000D01*
X175895000Y-103505000D02*
X175895000Y-96520000D01*
X175895000Y-96520000D02*
X180340000Y-92075000D01*
X180340000Y-89535000D02*
X175895000Y-85090000D01*
X180340000Y-92075000D02*
X180340000Y-89535000D01*
X180340000Y-74295000D02*
X175895000Y-69850000D01*
X180340000Y-89535000D02*
X180340000Y-74295000D01*
X113665000Y-60960000D02*
X123190000Y-51435000D01*
X180340000Y-54610000D02*
X180340000Y-74295000D01*
X177165000Y-51435000D02*
X180340000Y-54610000D01*
X146685000Y-60960000D02*
X156210000Y-51435000D01*
X145415000Y-60960000D02*
X146685000Y-60960000D01*
X156210000Y-51435000D02*
X177165000Y-51435000D01*
X123190000Y-51435000D02*
X156210000Y-51435000D01*
X170180000Y-109220000D02*
X175895000Y-103505000D01*
X144145000Y-109220000D02*
X170180000Y-109220000D01*
D17*
%TO.N,Net-(A1-Pad13)*%
X133985000Y-109220000D02*
X125730000Y-100965000D01*
X125730000Y-93345000D02*
X130175000Y-88900000D01*
X125730000Y-100965000D02*
X125730000Y-93345000D01*
%TO.N,Net-(A1-Pad12)*%
X131445000Y-109220000D02*
X123825000Y-101600000D01*
X123825000Y-92710000D02*
X130175000Y-86360000D01*
X123825000Y-101600000D02*
X123825000Y-92710000D01*
%TO.N,Net-(A1-Pad10)*%
X137160000Y-88265000D02*
X130175000Y-81280000D01*
X137160000Y-93980000D02*
X137160000Y-88265000D01*
X142240000Y-99060000D02*
X137160000Y-93980000D01*
X146050000Y-99060000D02*
X142240000Y-99060000D01*
X149860000Y-95250000D02*
X146050000Y-99060000D01*
X160655000Y-95250000D02*
X149860000Y-95250000D01*
%TO.N,Net-(A1-Pad9)*%
X127635000Y-81280000D02*
X130175000Y-78740000D01*
X113665000Y-81280000D02*
X127635000Y-81280000D01*
%TO.N,SCL*%
X174705001Y-63419999D02*
X175895000Y-62230000D01*
X155655001Y-63419999D02*
X174705001Y-63419999D01*
X145415000Y-73660000D02*
X155655001Y-63419999D01*
%TO.N,Net-(A1-Pad8)*%
X120015000Y-66040000D02*
X130175000Y-76200000D01*
X113665000Y-66040000D02*
X120015000Y-66040000D01*
%TO.N,SDA*%
X156845000Y-64770000D02*
X175895000Y-64770000D01*
X145415000Y-76200000D02*
X156845000Y-64770000D01*
%TO.N,Net-(A1-Pad17)*%
X145415000Y-91440000D02*
X149225000Y-87630000D01*
X149225000Y-87630000D02*
X149225000Y-74930000D01*
X156845000Y-67310000D02*
X175895000Y-67310000D01*
X149225000Y-74930000D02*
X156845000Y-67310000D01*
%TO.N,Net-(D1-Pad2)*%
X175895000Y-87630000D02*
X160655000Y-87630000D01*
%TD*%
D19*
%TO.N,GND*%
X184023000Y-117983000D02*
X105537000Y-117983000D01*
X105537000Y-86716890D01*
X112223524Y-86716890D01*
X112268175Y-86864099D01*
X112393359Y-87126920D01*
X112567412Y-87360269D01*
X112783645Y-87555178D01*
X113033748Y-87704157D01*
X113308109Y-87801481D01*
X113538000Y-87680814D01*
X113538000Y-86487000D01*
X112344845Y-86487000D01*
X112223524Y-86716890D01*
X105537000Y-86716890D01*
X105537000Y-69215000D01*
X106214644Y-69215000D01*
X106223001Y-69299848D01*
X106223000Y-81830162D01*
X106214644Y-81915000D01*
X106223000Y-81999838D01*
X106223000Y-81999840D01*
X106247988Y-82253550D01*
X106346740Y-82579091D01*
X106507104Y-82879111D01*
X106722918Y-83142082D01*
X106788822Y-83196168D01*
X108573834Y-84981181D01*
X108627918Y-85047082D01*
X108693817Y-85101164D01*
X108693818Y-85101165D01*
X108890887Y-85262896D01*
X109190908Y-85423260D01*
X109516449Y-85522012D01*
X109770159Y-85547000D01*
X109770161Y-85547000D01*
X109855000Y-85555356D01*
X109939838Y-85547000D01*
X112427730Y-85547000D01*
X112393359Y-85593080D01*
X112268175Y-85855901D01*
X112223524Y-86003110D01*
X112344845Y-86233000D01*
X113538000Y-86233000D01*
X113538000Y-86213000D01*
X113615654Y-86213000D01*
X113812000Y-86409346D01*
X113812000Y-86487000D01*
X113792000Y-86487000D01*
X113792000Y-87680814D01*
X114021891Y-87801481D01*
X114296252Y-87704157D01*
X114546355Y-87555178D01*
X114762588Y-87360269D01*
X114762731Y-87360077D01*
X117018001Y-89615348D01*
X117018000Y-105325162D01*
X117009644Y-105410000D01*
X117018000Y-105494838D01*
X117018000Y-105494840D01*
X117042988Y-105748550D01*
X117141740Y-106074091D01*
X117302104Y-106374111D01*
X117517918Y-106637082D01*
X117583822Y-106691168D01*
X126353836Y-115461183D01*
X126407918Y-115527082D01*
X126473817Y-115581164D01*
X126473818Y-115581165D01*
X126670887Y-115742896D01*
X126970906Y-115903259D01*
X126970908Y-115903260D01*
X127296449Y-116002012D01*
X127550159Y-116027000D01*
X127550161Y-116027000D01*
X127635000Y-116035356D01*
X127719838Y-116027000D01*
X136440162Y-116027000D01*
X136525000Y-116035356D01*
X136609838Y-116027000D01*
X136609841Y-116027000D01*
X136863551Y-116002012D01*
X137189092Y-115903260D01*
X137489112Y-115742896D01*
X137752082Y-115527082D01*
X137806168Y-115461178D01*
X142137545Y-111129802D01*
X142181670Y-111121025D01*
X142541461Y-110971995D01*
X142865264Y-110755636D01*
X143140636Y-110480264D01*
X143214541Y-110369658D01*
X143378080Y-110491641D01*
X143640901Y-110616825D01*
X143788110Y-110661476D01*
X144018000Y-110540155D01*
X144018000Y-109347000D01*
X144272000Y-109347000D01*
X144272000Y-110540155D01*
X144501890Y-110661476D01*
X144649099Y-110616825D01*
X144911920Y-110491641D01*
X145145269Y-110317588D01*
X145340178Y-110101355D01*
X145489157Y-109851252D01*
X145586481Y-109576891D01*
X145465814Y-109347000D01*
X144272000Y-109347000D01*
X144018000Y-109347000D01*
X143998000Y-109347000D01*
X143998000Y-109269346D01*
X144194346Y-109073000D01*
X144272000Y-109073000D01*
X144272000Y-109093000D01*
X145465814Y-109093000D01*
X145586481Y-108863109D01*
X145489157Y-108588748D01*
X145340178Y-108338645D01*
X145145269Y-108122412D01*
X145145077Y-108122269D01*
X148035347Y-105232000D01*
X172381131Y-105232000D01*
X172418539Y-105256995D01*
X172778330Y-105406025D01*
X173160282Y-105482000D01*
X173549718Y-105482000D01*
X173931670Y-105406025D01*
X174291461Y-105256995D01*
X174615264Y-105040636D01*
X174890636Y-104765264D01*
X174964541Y-104654658D01*
X175128080Y-104776641D01*
X175390901Y-104901825D01*
X175538110Y-104946476D01*
X175768000Y-104825155D01*
X175768000Y-103632000D01*
X176022000Y-103632000D01*
X176022000Y-104825155D01*
X176251890Y-104946476D01*
X176399099Y-104901825D01*
X176661920Y-104776641D01*
X176895269Y-104602588D01*
X177090178Y-104386355D01*
X177239157Y-104136252D01*
X177336481Y-103861891D01*
X177215814Y-103632000D01*
X176022000Y-103632000D01*
X175768000Y-103632000D01*
X175748000Y-103632000D01*
X175748000Y-103378000D01*
X175768000Y-103378000D01*
X175768000Y-102184845D01*
X176022000Y-102184845D01*
X176022000Y-103378000D01*
X177215814Y-103378000D01*
X177336481Y-103148109D01*
X177239157Y-102873748D01*
X177090178Y-102623645D01*
X176895269Y-102407412D01*
X176661920Y-102233359D01*
X176399099Y-102108175D01*
X176251890Y-102063524D01*
X176022000Y-102184845D01*
X175768000Y-102184845D01*
X175538110Y-102063524D01*
X175390901Y-102108175D01*
X175128080Y-102233359D01*
X174964541Y-102355342D01*
X174890636Y-102244736D01*
X174615264Y-101969364D01*
X174291461Y-101753005D01*
X173931670Y-101603975D01*
X173549718Y-101528000D01*
X173160282Y-101528000D01*
X172778330Y-101603975D01*
X172418539Y-101753005D01*
X172381131Y-101778000D01*
X147404841Y-101778000D01*
X147320000Y-101769644D01*
X146981448Y-101802988D01*
X146655908Y-101901740D01*
X146355887Y-102062104D01*
X146158818Y-102223835D01*
X146092918Y-102277918D01*
X146038836Y-102343817D01*
X141072456Y-107310198D01*
X141028330Y-107318975D01*
X140668539Y-107468005D01*
X140492000Y-107585965D01*
X140492000Y-102940090D01*
X140498903Y-102870000D01*
X140492000Y-102799910D01*
X140492000Y-102799902D01*
X140471352Y-102590259D01*
X140464764Y-102568539D01*
X140413305Y-102398904D01*
X140389755Y-102321269D01*
X140257248Y-102073366D01*
X140249171Y-102063524D01*
X140123608Y-101910525D01*
X140123605Y-101910522D01*
X140078923Y-101856077D01*
X140024478Y-101811395D01*
X132102000Y-93888918D01*
X132102000Y-93790207D01*
X132027947Y-93417915D01*
X131882685Y-93067223D01*
X131671799Y-92751609D01*
X131630190Y-92710000D01*
X131671799Y-92668391D01*
X131882685Y-92352777D01*
X132027947Y-92002085D01*
X132102000Y-91629793D01*
X132102000Y-91250207D01*
X132027947Y-90877915D01*
X131882685Y-90527223D01*
X131671799Y-90211609D01*
X131630190Y-90170000D01*
X131671799Y-90128391D01*
X131882685Y-89812777D01*
X132027947Y-89462085D01*
X132102000Y-89089793D01*
X132102000Y-88710207D01*
X132027947Y-88337915D01*
X131882685Y-87987223D01*
X131671799Y-87671609D01*
X131630190Y-87630000D01*
X131671799Y-87588391D01*
X131882685Y-87272777D01*
X132027947Y-86922085D01*
X132102000Y-86549793D01*
X132102000Y-86170207D01*
X132027947Y-85797915D01*
X131882685Y-85447223D01*
X131671799Y-85131609D01*
X131630190Y-85090000D01*
X131671799Y-85048391D01*
X131773341Y-84896423D01*
X135733001Y-88856084D01*
X135733000Y-93909912D01*
X135726097Y-93980000D01*
X135733000Y-94050088D01*
X135733000Y-94050097D01*
X135753648Y-94259740D01*
X135835245Y-94528730D01*
X135967752Y-94776633D01*
X135967753Y-94776634D01*
X136101392Y-94939474D01*
X136101395Y-94939477D01*
X136146077Y-94993922D01*
X136200523Y-95038605D01*
X141181395Y-100019478D01*
X141226077Y-100073923D01*
X141280522Y-100118605D01*
X141280525Y-100118608D01*
X141371963Y-100193649D01*
X141443366Y-100252248D01*
X141691269Y-100384755D01*
X141878661Y-100441600D01*
X141960258Y-100466352D01*
X141984474Y-100468737D01*
X142169902Y-100487000D01*
X142169910Y-100487000D01*
X142240000Y-100493903D01*
X142310090Y-100487000D01*
X145979912Y-100487000D01*
X146050000Y-100493903D01*
X146120088Y-100487000D01*
X146120098Y-100487000D01*
X146329741Y-100466352D01*
X146598731Y-100384755D01*
X146846634Y-100252248D01*
X147063923Y-100073923D01*
X147108609Y-100019473D01*
X150451083Y-96677000D01*
X159502142Y-96677000D01*
X159789591Y-96869066D01*
X160122084Y-97006789D01*
X160475056Y-97077000D01*
X160834944Y-97077000D01*
X161187916Y-97006789D01*
X161520409Y-96869066D01*
X161819645Y-96669124D01*
X162074124Y-96414645D01*
X162274066Y-96115409D01*
X162411789Y-95782916D01*
X162482000Y-95429944D01*
X162482000Y-95070056D01*
X162411789Y-94717084D01*
X162274066Y-94384591D01*
X162074124Y-94085355D01*
X161819645Y-93830876D01*
X161520409Y-93630934D01*
X161187916Y-93493211D01*
X160834944Y-93423000D01*
X160475056Y-93423000D01*
X160122084Y-93493211D01*
X159789591Y-93630934D01*
X159502142Y-93823000D01*
X149930090Y-93823000D01*
X149860000Y-93816097D01*
X149789910Y-93823000D01*
X149789902Y-93823000D01*
X149604474Y-93841263D01*
X149580258Y-93843648D01*
X149498661Y-93868400D01*
X149311269Y-93925245D01*
X149208830Y-93980000D01*
X149063365Y-94057752D01*
X148900525Y-94191392D01*
X148900522Y-94191395D01*
X148846077Y-94236077D01*
X148801395Y-94290522D01*
X145458918Y-97633000D01*
X142831083Y-97633000D01*
X138587000Y-93388918D01*
X138587000Y-88335090D01*
X138593903Y-88265000D01*
X138587000Y-88194910D01*
X138587000Y-88194902D01*
X138568737Y-88009474D01*
X138566352Y-87985258D01*
X138541600Y-87903661D01*
X138484755Y-87716269D01*
X138352248Y-87468366D01*
X138230056Y-87319475D01*
X138218608Y-87305525D01*
X138218605Y-87305522D01*
X138173923Y-87251077D01*
X138119478Y-87206395D01*
X132102000Y-81188918D01*
X132102000Y-81090207D01*
X132027947Y-80717915D01*
X131882685Y-80367223D01*
X131671799Y-80051609D01*
X131630190Y-80010000D01*
X131671799Y-79968391D01*
X131882685Y-79652777D01*
X132027947Y-79302085D01*
X132102000Y-78929793D01*
X132102000Y-78550207D01*
X132027947Y-78177915D01*
X131882685Y-77827223D01*
X131671799Y-77511609D01*
X131630190Y-77470000D01*
X131671799Y-77428391D01*
X131882685Y-77112777D01*
X132027947Y-76762085D01*
X132102000Y-76389793D01*
X132102000Y-76010207D01*
X132027947Y-75637915D01*
X131882685Y-75287223D01*
X131671799Y-74971609D01*
X131630190Y-74930000D01*
X131671799Y-74888391D01*
X131882685Y-74572777D01*
X132027947Y-74222085D01*
X132102000Y-73849793D01*
X132102000Y-73470207D01*
X132027947Y-73097915D01*
X131882685Y-72747223D01*
X131671799Y-72431609D01*
X131630190Y-72390000D01*
X131671799Y-72348391D01*
X131882685Y-72032777D01*
X132027947Y-71682085D01*
X132102000Y-71309793D01*
X132102000Y-70930207D01*
X132027947Y-70557915D01*
X131882685Y-70207223D01*
X131671799Y-69891609D01*
X131630190Y-69850000D01*
X131671799Y-69808391D01*
X131882685Y-69492777D01*
X132027947Y-69142085D01*
X132102000Y-68769793D01*
X132102000Y-68390207D01*
X132027947Y-68017915D01*
X131882685Y-67667223D01*
X131671799Y-67351609D01*
X131630190Y-67310000D01*
X131671799Y-67268391D01*
X131882685Y-66952777D01*
X132027947Y-66602085D01*
X132102000Y-66229793D01*
X132102000Y-65850207D01*
X132027947Y-65477915D01*
X131882685Y-65127223D01*
X131671799Y-64811609D01*
X131630190Y-64770000D01*
X131671799Y-64728391D01*
X131882685Y-64412777D01*
X132027947Y-64062085D01*
X132102000Y-63689793D01*
X132102000Y-63310207D01*
X143488000Y-63310207D01*
X143488000Y-63689793D01*
X143562053Y-64062085D01*
X143707315Y-64412777D01*
X143918201Y-64728391D01*
X143959810Y-64770000D01*
X143918201Y-64811609D01*
X143707315Y-65127223D01*
X143562053Y-65477915D01*
X143488000Y-65850207D01*
X143488000Y-66229793D01*
X143562053Y-66602085D01*
X143707315Y-66952777D01*
X143918201Y-67268391D01*
X143959810Y-67310000D01*
X143918201Y-67351609D01*
X143707315Y-67667223D01*
X143562053Y-68017915D01*
X143488000Y-68390207D01*
X143488000Y-68769793D01*
X143562053Y-69142085D01*
X143707315Y-69492777D01*
X143918201Y-69808391D01*
X143959810Y-69850000D01*
X143918201Y-69891609D01*
X143707315Y-70207223D01*
X143562053Y-70557915D01*
X143488000Y-70930207D01*
X143488000Y-71309793D01*
X143562053Y-71682085D01*
X143707315Y-72032777D01*
X143918201Y-72348391D01*
X143959810Y-72390000D01*
X143918201Y-72431609D01*
X143707315Y-72747223D01*
X143562053Y-73097915D01*
X143488000Y-73470207D01*
X143488000Y-73849793D01*
X143562053Y-74222085D01*
X143707315Y-74572777D01*
X143918201Y-74888391D01*
X143959810Y-74930000D01*
X143918201Y-74971609D01*
X143707315Y-75287223D01*
X143562053Y-75637915D01*
X143488000Y-76010207D01*
X143488000Y-76389793D01*
X143562053Y-76762085D01*
X143707315Y-77112777D01*
X143918201Y-77428391D01*
X143959810Y-77470000D01*
X143918201Y-77511609D01*
X143707315Y-77827223D01*
X143562053Y-78177915D01*
X143488000Y-78550207D01*
X143488000Y-78929793D01*
X143562053Y-79302085D01*
X143707315Y-79652777D01*
X143918201Y-79968391D01*
X143959810Y-80010000D01*
X143918201Y-80051609D01*
X143707315Y-80367223D01*
X143562053Y-80717915D01*
X143488000Y-81090207D01*
X143488000Y-81469793D01*
X143562053Y-81842085D01*
X143707315Y-82192777D01*
X143918201Y-82508391D01*
X143959810Y-82550000D01*
X143918201Y-82591609D01*
X143707315Y-82907223D01*
X143562053Y-83257915D01*
X143488000Y-83630207D01*
X143488000Y-84009793D01*
X143562053Y-84382085D01*
X143707315Y-84732777D01*
X143918201Y-85048391D01*
X143959810Y-85090000D01*
X143918201Y-85131609D01*
X143707315Y-85447223D01*
X143562053Y-85797915D01*
X143488000Y-86170207D01*
X143488000Y-86549793D01*
X143562053Y-86922085D01*
X143707315Y-87272777D01*
X143918201Y-87588391D01*
X143959810Y-87630000D01*
X143918201Y-87671609D01*
X143707315Y-87987223D01*
X143562053Y-88337915D01*
X143488000Y-88710207D01*
X143488000Y-89089793D01*
X143562053Y-89462085D01*
X143707315Y-89812777D01*
X143918201Y-90128391D01*
X143959810Y-90170000D01*
X143918201Y-90211609D01*
X143707315Y-90527223D01*
X143562053Y-90877915D01*
X143488000Y-91250207D01*
X143488000Y-91629793D01*
X143562053Y-92002085D01*
X143707315Y-92352777D01*
X143918201Y-92668391D01*
X143959810Y-92710000D01*
X143918201Y-92751609D01*
X143707315Y-93067223D01*
X143562053Y-93417915D01*
X143488000Y-93790207D01*
X143488000Y-94169793D01*
X143562053Y-94542085D01*
X143707315Y-94892777D01*
X143918201Y-95208391D01*
X144186609Y-95476799D01*
X144502223Y-95687685D01*
X144852915Y-95832947D01*
X145225207Y-95907000D01*
X145604793Y-95907000D01*
X145977085Y-95832947D01*
X146327777Y-95687685D01*
X146643391Y-95476799D01*
X146911799Y-95208391D01*
X147122685Y-94892777D01*
X147267947Y-94542085D01*
X147342000Y-94169793D01*
X147342000Y-93790207D01*
X147267947Y-93417915D01*
X147122685Y-93067223D01*
X146911799Y-92751609D01*
X146870190Y-92710000D01*
X146911799Y-92668391D01*
X147122685Y-92352777D01*
X147267947Y-92002085D01*
X147342000Y-91629793D01*
X147342000Y-91531082D01*
X150184482Y-88688600D01*
X150238922Y-88643923D01*
X150283601Y-88589482D01*
X150283608Y-88589475D01*
X150417248Y-88426635D01*
X150549754Y-88178732D01*
X150549755Y-88178731D01*
X150608444Y-87985258D01*
X150631352Y-87909742D01*
X150641181Y-87809944D01*
X150652000Y-87700098D01*
X150652000Y-87700090D01*
X150658903Y-87630000D01*
X150652000Y-87559910D01*
X150652000Y-87450056D01*
X158828000Y-87450056D01*
X158828000Y-87809944D01*
X158898211Y-88162916D01*
X159035934Y-88495409D01*
X159235876Y-88794645D01*
X159490355Y-89049124D01*
X159789591Y-89249066D01*
X160122084Y-89386789D01*
X160475056Y-89457000D01*
X160834944Y-89457000D01*
X161187916Y-89386789D01*
X161520409Y-89249066D01*
X161807858Y-89057000D01*
X174526100Y-89057000D01*
X174634736Y-89165636D01*
X174958539Y-89381995D01*
X175318330Y-89531025D01*
X175700282Y-89607000D01*
X176089718Y-89607000D01*
X176471670Y-89531025D01*
X176831461Y-89381995D01*
X177155264Y-89165636D01*
X177430636Y-88890264D01*
X177646995Y-88566461D01*
X177796025Y-88206670D01*
X177872000Y-87824718D01*
X177872000Y-87435282D01*
X177796025Y-87053330D01*
X177646995Y-86693539D01*
X177430636Y-86369736D01*
X177155264Y-86094364D01*
X176925343Y-85940735D01*
X176923399Y-85938791D01*
X177172472Y-85861157D01*
X177298371Y-85597117D01*
X177370339Y-85313589D01*
X177385611Y-85021469D01*
X177343599Y-84731981D01*
X177245919Y-84456253D01*
X177172472Y-84318843D01*
X176923397Y-84241208D01*
X176074605Y-85090000D01*
X176088748Y-85104143D01*
X175909143Y-85283748D01*
X175895000Y-85269605D01*
X175880858Y-85283748D01*
X175701253Y-85104143D01*
X175715395Y-85090000D01*
X174866603Y-84241208D01*
X174617528Y-84318843D01*
X174491629Y-84582883D01*
X174419661Y-84866411D01*
X174404389Y-85158531D01*
X174446401Y-85448019D01*
X174544081Y-85723747D01*
X174617528Y-85861157D01*
X174866601Y-85938791D01*
X174864657Y-85940735D01*
X174634736Y-86094364D01*
X174526100Y-86203000D01*
X161807858Y-86203000D01*
X161520409Y-86010934D01*
X161187916Y-85873211D01*
X160834944Y-85803000D01*
X160475056Y-85803000D01*
X160122084Y-85873211D01*
X159789591Y-86010934D01*
X159490355Y-86210876D01*
X159235876Y-86465355D01*
X159035934Y-86764591D01*
X158898211Y-87097084D01*
X158828000Y-87450056D01*
X150652000Y-87450056D01*
X150652000Y-84061603D01*
X175046208Y-84061603D01*
X175895000Y-84910395D01*
X176743792Y-84061603D01*
X176666157Y-83812528D01*
X176402117Y-83686629D01*
X176118589Y-83614661D01*
X175826469Y-83599389D01*
X175536981Y-83641401D01*
X175261253Y-83739081D01*
X175123843Y-83812528D01*
X175046208Y-84061603D01*
X150652000Y-84061603D01*
X150652000Y-75521082D01*
X155294685Y-70878397D01*
X175046208Y-70878397D01*
X175123843Y-71127472D01*
X175387883Y-71253371D01*
X175671411Y-71325339D01*
X175963531Y-71340611D01*
X176253019Y-71298599D01*
X176528747Y-71200919D01*
X176666157Y-71127472D01*
X176743792Y-70878397D01*
X175895000Y-70029605D01*
X175046208Y-70878397D01*
X155294685Y-70878397D01*
X157436082Y-68737000D01*
X174526100Y-68737000D01*
X174634736Y-68845636D01*
X174864657Y-68999265D01*
X174866601Y-69001209D01*
X174617528Y-69078843D01*
X174491629Y-69342883D01*
X174419661Y-69626411D01*
X174404389Y-69918531D01*
X174446401Y-70208019D01*
X174544081Y-70483747D01*
X174617528Y-70621157D01*
X174866603Y-70698792D01*
X175715395Y-69850000D01*
X175701253Y-69835858D01*
X175880858Y-69656253D01*
X175895000Y-69670395D01*
X175909143Y-69656253D01*
X176088748Y-69835858D01*
X176074605Y-69850000D01*
X176923397Y-70698792D01*
X177172472Y-70621157D01*
X177298371Y-70357117D01*
X177370339Y-70073589D01*
X177385611Y-69781469D01*
X177343599Y-69491981D01*
X177245919Y-69216253D01*
X177172472Y-69078843D01*
X176923399Y-69001209D01*
X176925343Y-68999265D01*
X177155264Y-68845636D01*
X177430636Y-68570264D01*
X177646995Y-68246461D01*
X177796025Y-67886670D01*
X177872000Y-67504718D01*
X177872000Y-67115282D01*
X177796025Y-66733330D01*
X177646995Y-66373539D01*
X177430636Y-66049736D01*
X177420900Y-66040000D01*
X177430636Y-66030264D01*
X177646995Y-65706461D01*
X177796025Y-65346670D01*
X177872000Y-64964718D01*
X177872000Y-64575282D01*
X177796025Y-64193330D01*
X177646995Y-63833539D01*
X177430636Y-63509736D01*
X177420900Y-63500000D01*
X177430636Y-63490264D01*
X177646995Y-63166461D01*
X177796025Y-62806670D01*
X177872000Y-62424718D01*
X177872000Y-62035282D01*
X177796025Y-61653330D01*
X177646995Y-61293539D01*
X177430636Y-60969736D01*
X177420900Y-60960000D01*
X177430636Y-60950264D01*
X177646995Y-60626461D01*
X177796025Y-60266670D01*
X177872000Y-59884718D01*
X177872000Y-59495282D01*
X177796025Y-59113330D01*
X177646995Y-58753539D01*
X177430636Y-58429736D01*
X177420900Y-58420000D01*
X177430636Y-58410264D01*
X177646995Y-58086461D01*
X177796025Y-57726670D01*
X177872000Y-57344718D01*
X177872000Y-56955282D01*
X177796025Y-56573330D01*
X177646995Y-56213539D01*
X177430636Y-55889736D01*
X177155264Y-55614364D01*
X176831461Y-55398005D01*
X176471670Y-55248975D01*
X176089718Y-55173000D01*
X175700282Y-55173000D01*
X175318330Y-55248975D01*
X174958539Y-55398005D01*
X174634736Y-55614364D01*
X174359364Y-55889736D01*
X174143005Y-56213539D01*
X173993975Y-56573330D01*
X173918000Y-56955282D01*
X173918000Y-57344718D01*
X173993975Y-57726670D01*
X174143005Y-58086461D01*
X174359364Y-58410264D01*
X174369100Y-58420000D01*
X174359364Y-58429736D01*
X174143005Y-58753539D01*
X173993975Y-59113330D01*
X173918000Y-59495282D01*
X173918000Y-59884718D01*
X173993975Y-60266670D01*
X174143005Y-60626461D01*
X174359364Y-60950264D01*
X174369100Y-60960000D01*
X174359364Y-60969736D01*
X174143005Y-61293539D01*
X173993975Y-61653330D01*
X173926411Y-61992999D01*
X155725088Y-61992999D01*
X155655000Y-61986096D01*
X155584912Y-61992999D01*
X155584903Y-61992999D01*
X155375260Y-62013647D01*
X155106270Y-62095244D01*
X154858367Y-62227751D01*
X154641078Y-62406076D01*
X154596393Y-62460525D01*
X147013341Y-70043577D01*
X146911799Y-69891609D01*
X146870190Y-69850000D01*
X146911799Y-69808391D01*
X147122685Y-69492777D01*
X147267947Y-69142085D01*
X147342000Y-68769793D01*
X147342000Y-68390207D01*
X147267947Y-68017915D01*
X147122685Y-67667223D01*
X146911799Y-67351609D01*
X146870190Y-67310000D01*
X146911799Y-67268391D01*
X147122685Y-66952777D01*
X147267947Y-66602085D01*
X147342000Y-66229793D01*
X147342000Y-65850207D01*
X147267947Y-65477915D01*
X147122685Y-65127223D01*
X146911799Y-64811609D01*
X146870190Y-64770000D01*
X146911799Y-64728391D01*
X147122685Y-64412777D01*
X147267947Y-64062085D01*
X147342000Y-63689793D01*
X147342000Y-63310207D01*
X147267947Y-62937915D01*
X147122685Y-62587223D01*
X146911799Y-62271609D01*
X146643391Y-62003201D01*
X146493577Y-61903099D01*
X146646037Y-61697420D01*
X146766246Y-61443087D01*
X146806904Y-61309039D01*
X146684915Y-61087000D01*
X145542000Y-61087000D01*
X145542000Y-61107000D01*
X145288000Y-61107000D01*
X145288000Y-61087000D01*
X144145085Y-61087000D01*
X144023096Y-61309039D01*
X144063754Y-61443087D01*
X144183963Y-61697420D01*
X144336423Y-61903099D01*
X144186609Y-62003201D01*
X143918201Y-62271609D01*
X143707315Y-62587223D01*
X143562053Y-62937915D01*
X143488000Y-63310207D01*
X132102000Y-63310207D01*
X132027947Y-62937915D01*
X131882685Y-62587223D01*
X131671799Y-62271609D01*
X131630190Y-62230000D01*
X131671799Y-62188391D01*
X131882685Y-61872777D01*
X132027947Y-61522085D01*
X132102000Y-61149793D01*
X132102000Y-60770207D01*
X132027947Y-60397915D01*
X131882685Y-60047223D01*
X131671799Y-59731609D01*
X131630190Y-59690000D01*
X131671799Y-59648391D01*
X131882685Y-59332777D01*
X132027947Y-58982085D01*
X132102000Y-58609793D01*
X132102000Y-58230207D01*
X132027947Y-57857915D01*
X131882685Y-57507223D01*
X131671799Y-57191609D01*
X131403391Y-56923201D01*
X131087777Y-56712315D01*
X130737085Y-56567053D01*
X130364793Y-56493000D01*
X129985207Y-56493000D01*
X129612915Y-56567053D01*
X129262223Y-56712315D01*
X128946609Y-56923201D01*
X128678201Y-57191609D01*
X128467315Y-57507223D01*
X128322053Y-57857915D01*
X128248000Y-58230207D01*
X128248000Y-58609793D01*
X128322053Y-58982085D01*
X128467315Y-59332777D01*
X128678201Y-59648391D01*
X128719810Y-59690000D01*
X128678201Y-59731609D01*
X128467315Y-60047223D01*
X128322053Y-60397915D01*
X128248000Y-60770207D01*
X128248000Y-61149793D01*
X128322053Y-61522085D01*
X128467315Y-61872777D01*
X128678201Y-62188391D01*
X128719810Y-62230000D01*
X128678201Y-62271609D01*
X128467315Y-62587223D01*
X128322053Y-62937915D01*
X128248000Y-63310207D01*
X128248000Y-63689793D01*
X128322053Y-64062085D01*
X128467315Y-64412777D01*
X128678201Y-64728391D01*
X128719810Y-64770000D01*
X128678201Y-64811609D01*
X128467315Y-65127223D01*
X128322053Y-65477915D01*
X128248000Y-65850207D01*
X128248000Y-66229793D01*
X128322053Y-66602085D01*
X128467315Y-66952777D01*
X128678201Y-67268391D01*
X128719810Y-67310000D01*
X128678201Y-67351609D01*
X128467315Y-67667223D01*
X128322053Y-68017915D01*
X128248000Y-68390207D01*
X128248000Y-68769793D01*
X128322053Y-69142085D01*
X128467315Y-69492777D01*
X128678201Y-69808391D01*
X128719810Y-69850000D01*
X128678201Y-69891609D01*
X128467315Y-70207223D01*
X128322053Y-70557915D01*
X128248000Y-70930207D01*
X128248000Y-71309793D01*
X128322053Y-71682085D01*
X128467315Y-72032777D01*
X128678201Y-72348391D01*
X128719810Y-72390000D01*
X128678201Y-72431609D01*
X128576660Y-72583577D01*
X121073609Y-65080527D01*
X121028923Y-65026077D01*
X120811634Y-64847752D01*
X120563731Y-64715245D01*
X120294741Y-64633648D01*
X120085098Y-64613000D01*
X120085088Y-64613000D01*
X120075309Y-64612037D01*
X128985346Y-55702000D01*
X140254654Y-55702000D01*
X143581367Y-59028713D01*
X143707315Y-59332777D01*
X143918201Y-59648391D01*
X144186609Y-59916799D01*
X144336423Y-60016901D01*
X144183963Y-60222580D01*
X144063754Y-60476913D01*
X144023096Y-60610961D01*
X144145085Y-60833000D01*
X145288000Y-60833000D01*
X145288000Y-60813000D01*
X145542000Y-60813000D01*
X145542000Y-60833000D01*
X146684915Y-60833000D01*
X146806904Y-60610961D01*
X146766246Y-60476913D01*
X146646037Y-60222580D01*
X146493577Y-60016901D01*
X146643391Y-59916799D01*
X146911799Y-59648391D01*
X147122685Y-59332777D01*
X147267947Y-58982085D01*
X147342000Y-58609793D01*
X147342000Y-58230207D01*
X147267947Y-57857915D01*
X147122685Y-57507223D01*
X146911799Y-57191609D01*
X146643391Y-56923201D01*
X146327777Y-56712315D01*
X146023713Y-56586367D01*
X142251168Y-52813822D01*
X142197082Y-52747918D01*
X141934112Y-52532104D01*
X141634092Y-52371740D01*
X141308551Y-52272988D01*
X141054841Y-52248000D01*
X141054838Y-52248000D01*
X140970000Y-52239644D01*
X140885162Y-52248000D01*
X128354830Y-52248000D01*
X128269999Y-52239645D01*
X128185168Y-52248000D01*
X128185159Y-52248000D01*
X127931449Y-52272988D01*
X127605908Y-52371740D01*
X127305888Y-52532104D01*
X127042918Y-52747918D01*
X126988832Y-52813822D01*
X118029654Y-61773000D01*
X114902270Y-61773000D01*
X114936641Y-61726920D01*
X115061825Y-61464099D01*
X115106476Y-61316890D01*
X114985155Y-61087000D01*
X113792000Y-61087000D01*
X113792000Y-61107000D01*
X113538000Y-61107000D01*
X113538000Y-61087000D01*
X112344845Y-61087000D01*
X112223524Y-61316890D01*
X112268175Y-61464099D01*
X112393359Y-61726920D01*
X112515342Y-61890459D01*
X112404736Y-61964364D01*
X112129364Y-62239736D01*
X111913005Y-62563539D01*
X111763975Y-62923330D01*
X111755198Y-62967455D01*
X106788818Y-67933836D01*
X106722919Y-67987918D01*
X106668837Y-68053817D01*
X106668835Y-68053819D01*
X106507105Y-68250888D01*
X106346741Y-68550908D01*
X106247989Y-68876449D01*
X106214644Y-69215000D01*
X105537000Y-69215000D01*
X105537000Y-60603110D01*
X112223524Y-60603110D01*
X112344845Y-60833000D01*
X113538000Y-60833000D01*
X113538000Y-59639186D01*
X113792000Y-59639186D01*
X113792000Y-60833000D01*
X114985155Y-60833000D01*
X115106476Y-60603110D01*
X115061825Y-60455901D01*
X114936641Y-60193080D01*
X114762588Y-59959731D01*
X114546355Y-59764822D01*
X114296252Y-59615843D01*
X114021891Y-59518519D01*
X113792000Y-59639186D01*
X113538000Y-59639186D01*
X113308109Y-59518519D01*
X113033748Y-59615843D01*
X112783645Y-59764822D01*
X112567412Y-59959731D01*
X112393359Y-60193080D01*
X112268175Y-60455901D01*
X112223524Y-60603110D01*
X105537000Y-60603110D01*
X105537000Y-42715000D01*
X107759429Y-42715000D01*
X107759429Y-49169000D01*
X183070572Y-49169000D01*
X183070572Y-42715000D01*
X107759429Y-42715000D01*
X105537000Y-42715000D01*
X105537000Y-42037000D01*
X184023000Y-42037000D01*
X184023000Y-117983000D01*
%TA.AperFunction,Conductor*%
D20*
G36*
X184023000Y-117983000D02*
G01*
X105537000Y-117983000D01*
X105537000Y-86716890D01*
X112223524Y-86716890D01*
X112268175Y-86864099D01*
X112393359Y-87126920D01*
X112567412Y-87360269D01*
X112783645Y-87555178D01*
X113033748Y-87704157D01*
X113308109Y-87801481D01*
X113538000Y-87680814D01*
X113538000Y-86487000D01*
X112344845Y-86487000D01*
X112223524Y-86716890D01*
X105537000Y-86716890D01*
X105537000Y-69215000D01*
X106214644Y-69215000D01*
X106223001Y-69299848D01*
X106223000Y-81830162D01*
X106214644Y-81915000D01*
X106223000Y-81999838D01*
X106223000Y-81999840D01*
X106247988Y-82253550D01*
X106346740Y-82579091D01*
X106507104Y-82879111D01*
X106722918Y-83142082D01*
X106788822Y-83196168D01*
X108573834Y-84981181D01*
X108627918Y-85047082D01*
X108693817Y-85101164D01*
X108693818Y-85101165D01*
X108890887Y-85262896D01*
X109190908Y-85423260D01*
X109516449Y-85522012D01*
X109770159Y-85547000D01*
X109770161Y-85547000D01*
X109855000Y-85555356D01*
X109939838Y-85547000D01*
X112427730Y-85547000D01*
X112393359Y-85593080D01*
X112268175Y-85855901D01*
X112223524Y-86003110D01*
X112344845Y-86233000D01*
X113538000Y-86233000D01*
X113538000Y-86213000D01*
X113615654Y-86213000D01*
X113812000Y-86409346D01*
X113812000Y-86487000D01*
X113792000Y-86487000D01*
X113792000Y-87680814D01*
X114021891Y-87801481D01*
X114296252Y-87704157D01*
X114546355Y-87555178D01*
X114762588Y-87360269D01*
X114762731Y-87360077D01*
X117018001Y-89615348D01*
X117018000Y-105325162D01*
X117009644Y-105410000D01*
X117018000Y-105494838D01*
X117018000Y-105494840D01*
X117042988Y-105748550D01*
X117141740Y-106074091D01*
X117302104Y-106374111D01*
X117517918Y-106637082D01*
X117583822Y-106691168D01*
X126353836Y-115461183D01*
X126407918Y-115527082D01*
X126473817Y-115581164D01*
X126473818Y-115581165D01*
X126670887Y-115742896D01*
X126970906Y-115903259D01*
X126970908Y-115903260D01*
X127296449Y-116002012D01*
X127550159Y-116027000D01*
X127550161Y-116027000D01*
X127635000Y-116035356D01*
X127719838Y-116027000D01*
X136440162Y-116027000D01*
X136525000Y-116035356D01*
X136609838Y-116027000D01*
X136609841Y-116027000D01*
X136863551Y-116002012D01*
X137189092Y-115903260D01*
X137489112Y-115742896D01*
X137752082Y-115527082D01*
X137806168Y-115461178D01*
X142137545Y-111129802D01*
X142181670Y-111121025D01*
X142541461Y-110971995D01*
X142865264Y-110755636D01*
X143140636Y-110480264D01*
X143214541Y-110369658D01*
X143378080Y-110491641D01*
X143640901Y-110616825D01*
X143788110Y-110661476D01*
X144018000Y-110540155D01*
X144018000Y-109347000D01*
X144272000Y-109347000D01*
X144272000Y-110540155D01*
X144501890Y-110661476D01*
X144649099Y-110616825D01*
X144911920Y-110491641D01*
X145145269Y-110317588D01*
X145340178Y-110101355D01*
X145489157Y-109851252D01*
X145586481Y-109576891D01*
X145465814Y-109347000D01*
X144272000Y-109347000D01*
X144018000Y-109347000D01*
X143998000Y-109347000D01*
X143998000Y-109269346D01*
X144194346Y-109073000D01*
X144272000Y-109073000D01*
X144272000Y-109093000D01*
X145465814Y-109093000D01*
X145586481Y-108863109D01*
X145489157Y-108588748D01*
X145340178Y-108338645D01*
X145145269Y-108122412D01*
X145145077Y-108122269D01*
X148035347Y-105232000D01*
X172381131Y-105232000D01*
X172418539Y-105256995D01*
X172778330Y-105406025D01*
X173160282Y-105482000D01*
X173549718Y-105482000D01*
X173931670Y-105406025D01*
X174291461Y-105256995D01*
X174615264Y-105040636D01*
X174890636Y-104765264D01*
X174964541Y-104654658D01*
X175128080Y-104776641D01*
X175390901Y-104901825D01*
X175538110Y-104946476D01*
X175768000Y-104825155D01*
X175768000Y-103632000D01*
X176022000Y-103632000D01*
X176022000Y-104825155D01*
X176251890Y-104946476D01*
X176399099Y-104901825D01*
X176661920Y-104776641D01*
X176895269Y-104602588D01*
X177090178Y-104386355D01*
X177239157Y-104136252D01*
X177336481Y-103861891D01*
X177215814Y-103632000D01*
X176022000Y-103632000D01*
X175768000Y-103632000D01*
X175748000Y-103632000D01*
X175748000Y-103378000D01*
X175768000Y-103378000D01*
X175768000Y-102184845D01*
X176022000Y-102184845D01*
X176022000Y-103378000D01*
X177215814Y-103378000D01*
X177336481Y-103148109D01*
X177239157Y-102873748D01*
X177090178Y-102623645D01*
X176895269Y-102407412D01*
X176661920Y-102233359D01*
X176399099Y-102108175D01*
X176251890Y-102063524D01*
X176022000Y-102184845D01*
X175768000Y-102184845D01*
X175538110Y-102063524D01*
X175390901Y-102108175D01*
X175128080Y-102233359D01*
X174964541Y-102355342D01*
X174890636Y-102244736D01*
X174615264Y-101969364D01*
X174291461Y-101753005D01*
X173931670Y-101603975D01*
X173549718Y-101528000D01*
X173160282Y-101528000D01*
X172778330Y-101603975D01*
X172418539Y-101753005D01*
X172381131Y-101778000D01*
X147404841Y-101778000D01*
X147320000Y-101769644D01*
X146981448Y-101802988D01*
X146655908Y-101901740D01*
X146355887Y-102062104D01*
X146158818Y-102223835D01*
X146092918Y-102277918D01*
X146038836Y-102343817D01*
X141072456Y-107310198D01*
X141028330Y-107318975D01*
X140668539Y-107468005D01*
X140492000Y-107585965D01*
X140492000Y-102940090D01*
X140498903Y-102870000D01*
X140492000Y-102799910D01*
X140492000Y-102799902D01*
X140471352Y-102590259D01*
X140464764Y-102568539D01*
X140413305Y-102398904D01*
X140389755Y-102321269D01*
X140257248Y-102073366D01*
X140249171Y-102063524D01*
X140123608Y-101910525D01*
X140123605Y-101910522D01*
X140078923Y-101856077D01*
X140024478Y-101811395D01*
X132102000Y-93888918D01*
X132102000Y-93790207D01*
X132027947Y-93417915D01*
X131882685Y-93067223D01*
X131671799Y-92751609D01*
X131630190Y-92710000D01*
X131671799Y-92668391D01*
X131882685Y-92352777D01*
X132027947Y-92002085D01*
X132102000Y-91629793D01*
X132102000Y-91250207D01*
X132027947Y-90877915D01*
X131882685Y-90527223D01*
X131671799Y-90211609D01*
X131630190Y-90170000D01*
X131671799Y-90128391D01*
X131882685Y-89812777D01*
X132027947Y-89462085D01*
X132102000Y-89089793D01*
X132102000Y-88710207D01*
X132027947Y-88337915D01*
X131882685Y-87987223D01*
X131671799Y-87671609D01*
X131630190Y-87630000D01*
X131671799Y-87588391D01*
X131882685Y-87272777D01*
X132027947Y-86922085D01*
X132102000Y-86549793D01*
X132102000Y-86170207D01*
X132027947Y-85797915D01*
X131882685Y-85447223D01*
X131671799Y-85131609D01*
X131630190Y-85090000D01*
X131671799Y-85048391D01*
X131773341Y-84896423D01*
X135733001Y-88856084D01*
X135733000Y-93909912D01*
X135726097Y-93980000D01*
X135733000Y-94050088D01*
X135733000Y-94050097D01*
X135753648Y-94259740D01*
X135835245Y-94528730D01*
X135967752Y-94776633D01*
X135967753Y-94776634D01*
X136101392Y-94939474D01*
X136101395Y-94939477D01*
X136146077Y-94993922D01*
X136200523Y-95038605D01*
X141181395Y-100019478D01*
X141226077Y-100073923D01*
X141280522Y-100118605D01*
X141280525Y-100118608D01*
X141371963Y-100193649D01*
X141443366Y-100252248D01*
X141691269Y-100384755D01*
X141878661Y-100441600D01*
X141960258Y-100466352D01*
X141984474Y-100468737D01*
X142169902Y-100487000D01*
X142169910Y-100487000D01*
X142240000Y-100493903D01*
X142310090Y-100487000D01*
X145979912Y-100487000D01*
X146050000Y-100493903D01*
X146120088Y-100487000D01*
X146120098Y-100487000D01*
X146329741Y-100466352D01*
X146598731Y-100384755D01*
X146846634Y-100252248D01*
X147063923Y-100073923D01*
X147108609Y-100019473D01*
X150451083Y-96677000D01*
X159502142Y-96677000D01*
X159789591Y-96869066D01*
X160122084Y-97006789D01*
X160475056Y-97077000D01*
X160834944Y-97077000D01*
X161187916Y-97006789D01*
X161520409Y-96869066D01*
X161819645Y-96669124D01*
X162074124Y-96414645D01*
X162274066Y-96115409D01*
X162411789Y-95782916D01*
X162482000Y-95429944D01*
X162482000Y-95070056D01*
X162411789Y-94717084D01*
X162274066Y-94384591D01*
X162074124Y-94085355D01*
X161819645Y-93830876D01*
X161520409Y-93630934D01*
X161187916Y-93493211D01*
X160834944Y-93423000D01*
X160475056Y-93423000D01*
X160122084Y-93493211D01*
X159789591Y-93630934D01*
X159502142Y-93823000D01*
X149930090Y-93823000D01*
X149860000Y-93816097D01*
X149789910Y-93823000D01*
X149789902Y-93823000D01*
X149604474Y-93841263D01*
X149580258Y-93843648D01*
X149498661Y-93868400D01*
X149311269Y-93925245D01*
X149208830Y-93980000D01*
X149063365Y-94057752D01*
X148900525Y-94191392D01*
X148900522Y-94191395D01*
X148846077Y-94236077D01*
X148801395Y-94290522D01*
X145458918Y-97633000D01*
X142831083Y-97633000D01*
X138587000Y-93388918D01*
X138587000Y-88335090D01*
X138593903Y-88265000D01*
X138587000Y-88194910D01*
X138587000Y-88194902D01*
X138568737Y-88009474D01*
X138566352Y-87985258D01*
X138541600Y-87903661D01*
X138484755Y-87716269D01*
X138352248Y-87468366D01*
X138230056Y-87319475D01*
X138218608Y-87305525D01*
X138218605Y-87305522D01*
X138173923Y-87251077D01*
X138119478Y-87206395D01*
X132102000Y-81188918D01*
X132102000Y-81090207D01*
X132027947Y-80717915D01*
X131882685Y-80367223D01*
X131671799Y-80051609D01*
X131630190Y-80010000D01*
X131671799Y-79968391D01*
X131882685Y-79652777D01*
X132027947Y-79302085D01*
X132102000Y-78929793D01*
X132102000Y-78550207D01*
X132027947Y-78177915D01*
X131882685Y-77827223D01*
X131671799Y-77511609D01*
X131630190Y-77470000D01*
X131671799Y-77428391D01*
X131882685Y-77112777D01*
X132027947Y-76762085D01*
X132102000Y-76389793D01*
X132102000Y-76010207D01*
X132027947Y-75637915D01*
X131882685Y-75287223D01*
X131671799Y-74971609D01*
X131630190Y-74930000D01*
X131671799Y-74888391D01*
X131882685Y-74572777D01*
X132027947Y-74222085D01*
X132102000Y-73849793D01*
X132102000Y-73470207D01*
X132027947Y-73097915D01*
X131882685Y-72747223D01*
X131671799Y-72431609D01*
X131630190Y-72390000D01*
X131671799Y-72348391D01*
X131882685Y-72032777D01*
X132027947Y-71682085D01*
X132102000Y-71309793D01*
X132102000Y-70930207D01*
X132027947Y-70557915D01*
X131882685Y-70207223D01*
X131671799Y-69891609D01*
X131630190Y-69850000D01*
X131671799Y-69808391D01*
X131882685Y-69492777D01*
X132027947Y-69142085D01*
X132102000Y-68769793D01*
X132102000Y-68390207D01*
X132027947Y-68017915D01*
X131882685Y-67667223D01*
X131671799Y-67351609D01*
X131630190Y-67310000D01*
X131671799Y-67268391D01*
X131882685Y-66952777D01*
X132027947Y-66602085D01*
X132102000Y-66229793D01*
X132102000Y-65850207D01*
X132027947Y-65477915D01*
X131882685Y-65127223D01*
X131671799Y-64811609D01*
X131630190Y-64770000D01*
X131671799Y-64728391D01*
X131882685Y-64412777D01*
X132027947Y-64062085D01*
X132102000Y-63689793D01*
X132102000Y-63310207D01*
X143488000Y-63310207D01*
X143488000Y-63689793D01*
X143562053Y-64062085D01*
X143707315Y-64412777D01*
X143918201Y-64728391D01*
X143959810Y-64770000D01*
X143918201Y-64811609D01*
X143707315Y-65127223D01*
X143562053Y-65477915D01*
X143488000Y-65850207D01*
X143488000Y-66229793D01*
X143562053Y-66602085D01*
X143707315Y-66952777D01*
X143918201Y-67268391D01*
X143959810Y-67310000D01*
X143918201Y-67351609D01*
X143707315Y-67667223D01*
X143562053Y-68017915D01*
X143488000Y-68390207D01*
X143488000Y-68769793D01*
X143562053Y-69142085D01*
X143707315Y-69492777D01*
X143918201Y-69808391D01*
X143959810Y-69850000D01*
X143918201Y-69891609D01*
X143707315Y-70207223D01*
X143562053Y-70557915D01*
X143488000Y-70930207D01*
X143488000Y-71309793D01*
X143562053Y-71682085D01*
X143707315Y-72032777D01*
X143918201Y-72348391D01*
X143959810Y-72390000D01*
X143918201Y-72431609D01*
X143707315Y-72747223D01*
X143562053Y-73097915D01*
X143488000Y-73470207D01*
X143488000Y-73849793D01*
X143562053Y-74222085D01*
X143707315Y-74572777D01*
X143918201Y-74888391D01*
X143959810Y-74930000D01*
X143918201Y-74971609D01*
X143707315Y-75287223D01*
X143562053Y-75637915D01*
X143488000Y-76010207D01*
X143488000Y-76389793D01*
X143562053Y-76762085D01*
X143707315Y-77112777D01*
X143918201Y-77428391D01*
X143959810Y-77470000D01*
X143918201Y-77511609D01*
X143707315Y-77827223D01*
X143562053Y-78177915D01*
X143488000Y-78550207D01*
X143488000Y-78929793D01*
X143562053Y-79302085D01*
X143707315Y-79652777D01*
X143918201Y-79968391D01*
X143959810Y-80010000D01*
X143918201Y-80051609D01*
X143707315Y-80367223D01*
X143562053Y-80717915D01*
X143488000Y-81090207D01*
X143488000Y-81469793D01*
X143562053Y-81842085D01*
X143707315Y-82192777D01*
X143918201Y-82508391D01*
X143959810Y-82550000D01*
X143918201Y-82591609D01*
X143707315Y-82907223D01*
X143562053Y-83257915D01*
X143488000Y-83630207D01*
X143488000Y-84009793D01*
X143562053Y-84382085D01*
X143707315Y-84732777D01*
X143918201Y-85048391D01*
X143959810Y-85090000D01*
X143918201Y-85131609D01*
X143707315Y-85447223D01*
X143562053Y-85797915D01*
X143488000Y-86170207D01*
X143488000Y-86549793D01*
X143562053Y-86922085D01*
X143707315Y-87272777D01*
X143918201Y-87588391D01*
X143959810Y-87630000D01*
X143918201Y-87671609D01*
X143707315Y-87987223D01*
X143562053Y-88337915D01*
X143488000Y-88710207D01*
X143488000Y-89089793D01*
X143562053Y-89462085D01*
X143707315Y-89812777D01*
X143918201Y-90128391D01*
X143959810Y-90170000D01*
X143918201Y-90211609D01*
X143707315Y-90527223D01*
X143562053Y-90877915D01*
X143488000Y-91250207D01*
X143488000Y-91629793D01*
X143562053Y-92002085D01*
X143707315Y-92352777D01*
X143918201Y-92668391D01*
X143959810Y-92710000D01*
X143918201Y-92751609D01*
X143707315Y-93067223D01*
X143562053Y-93417915D01*
X143488000Y-93790207D01*
X143488000Y-94169793D01*
X143562053Y-94542085D01*
X143707315Y-94892777D01*
X143918201Y-95208391D01*
X144186609Y-95476799D01*
X144502223Y-95687685D01*
X144852915Y-95832947D01*
X145225207Y-95907000D01*
X145604793Y-95907000D01*
X145977085Y-95832947D01*
X146327777Y-95687685D01*
X146643391Y-95476799D01*
X146911799Y-95208391D01*
X147122685Y-94892777D01*
X147267947Y-94542085D01*
X147342000Y-94169793D01*
X147342000Y-93790207D01*
X147267947Y-93417915D01*
X147122685Y-93067223D01*
X146911799Y-92751609D01*
X146870190Y-92710000D01*
X146911799Y-92668391D01*
X147122685Y-92352777D01*
X147267947Y-92002085D01*
X147342000Y-91629793D01*
X147342000Y-91531082D01*
X150184482Y-88688600D01*
X150238922Y-88643923D01*
X150283601Y-88589482D01*
X150283608Y-88589475D01*
X150417248Y-88426635D01*
X150549754Y-88178732D01*
X150549755Y-88178731D01*
X150608444Y-87985258D01*
X150631352Y-87909742D01*
X150641181Y-87809944D01*
X150652000Y-87700098D01*
X150652000Y-87700090D01*
X150658903Y-87630000D01*
X150652000Y-87559910D01*
X150652000Y-87450056D01*
X158828000Y-87450056D01*
X158828000Y-87809944D01*
X158898211Y-88162916D01*
X159035934Y-88495409D01*
X159235876Y-88794645D01*
X159490355Y-89049124D01*
X159789591Y-89249066D01*
X160122084Y-89386789D01*
X160475056Y-89457000D01*
X160834944Y-89457000D01*
X161187916Y-89386789D01*
X161520409Y-89249066D01*
X161807858Y-89057000D01*
X174526100Y-89057000D01*
X174634736Y-89165636D01*
X174958539Y-89381995D01*
X175318330Y-89531025D01*
X175700282Y-89607000D01*
X176089718Y-89607000D01*
X176471670Y-89531025D01*
X176831461Y-89381995D01*
X177155264Y-89165636D01*
X177430636Y-88890264D01*
X177646995Y-88566461D01*
X177796025Y-88206670D01*
X177872000Y-87824718D01*
X177872000Y-87435282D01*
X177796025Y-87053330D01*
X177646995Y-86693539D01*
X177430636Y-86369736D01*
X177155264Y-86094364D01*
X176925343Y-85940735D01*
X176923399Y-85938791D01*
X177172472Y-85861157D01*
X177298371Y-85597117D01*
X177370339Y-85313589D01*
X177385611Y-85021469D01*
X177343599Y-84731981D01*
X177245919Y-84456253D01*
X177172472Y-84318843D01*
X176923397Y-84241208D01*
X176074605Y-85090000D01*
X176088748Y-85104143D01*
X175909143Y-85283748D01*
X175895000Y-85269605D01*
X175880858Y-85283748D01*
X175701253Y-85104143D01*
X175715395Y-85090000D01*
X174866603Y-84241208D01*
X174617528Y-84318843D01*
X174491629Y-84582883D01*
X174419661Y-84866411D01*
X174404389Y-85158531D01*
X174446401Y-85448019D01*
X174544081Y-85723747D01*
X174617528Y-85861157D01*
X174866601Y-85938791D01*
X174864657Y-85940735D01*
X174634736Y-86094364D01*
X174526100Y-86203000D01*
X161807858Y-86203000D01*
X161520409Y-86010934D01*
X161187916Y-85873211D01*
X160834944Y-85803000D01*
X160475056Y-85803000D01*
X160122084Y-85873211D01*
X159789591Y-86010934D01*
X159490355Y-86210876D01*
X159235876Y-86465355D01*
X159035934Y-86764591D01*
X158898211Y-87097084D01*
X158828000Y-87450056D01*
X150652000Y-87450056D01*
X150652000Y-84061603D01*
X175046208Y-84061603D01*
X175895000Y-84910395D01*
X176743792Y-84061603D01*
X176666157Y-83812528D01*
X176402117Y-83686629D01*
X176118589Y-83614661D01*
X175826469Y-83599389D01*
X175536981Y-83641401D01*
X175261253Y-83739081D01*
X175123843Y-83812528D01*
X175046208Y-84061603D01*
X150652000Y-84061603D01*
X150652000Y-75521082D01*
X155294685Y-70878397D01*
X175046208Y-70878397D01*
X175123843Y-71127472D01*
X175387883Y-71253371D01*
X175671411Y-71325339D01*
X175963531Y-71340611D01*
X176253019Y-71298599D01*
X176528747Y-71200919D01*
X176666157Y-71127472D01*
X176743792Y-70878397D01*
X175895000Y-70029605D01*
X175046208Y-70878397D01*
X155294685Y-70878397D01*
X157436082Y-68737000D01*
X174526100Y-68737000D01*
X174634736Y-68845636D01*
X174864657Y-68999265D01*
X174866601Y-69001209D01*
X174617528Y-69078843D01*
X174491629Y-69342883D01*
X174419661Y-69626411D01*
X174404389Y-69918531D01*
X174446401Y-70208019D01*
X174544081Y-70483747D01*
X174617528Y-70621157D01*
X174866603Y-70698792D01*
X175715395Y-69850000D01*
X175701253Y-69835858D01*
X175880858Y-69656253D01*
X175895000Y-69670395D01*
X175909143Y-69656253D01*
X176088748Y-69835858D01*
X176074605Y-69850000D01*
X176923397Y-70698792D01*
X177172472Y-70621157D01*
X177298371Y-70357117D01*
X177370339Y-70073589D01*
X177385611Y-69781469D01*
X177343599Y-69491981D01*
X177245919Y-69216253D01*
X177172472Y-69078843D01*
X176923399Y-69001209D01*
X176925343Y-68999265D01*
X177155264Y-68845636D01*
X177430636Y-68570264D01*
X177646995Y-68246461D01*
X177796025Y-67886670D01*
X177872000Y-67504718D01*
X177872000Y-67115282D01*
X177796025Y-66733330D01*
X177646995Y-66373539D01*
X177430636Y-66049736D01*
X177420900Y-66040000D01*
X177430636Y-66030264D01*
X177646995Y-65706461D01*
X177796025Y-65346670D01*
X177872000Y-64964718D01*
X177872000Y-64575282D01*
X177796025Y-64193330D01*
X177646995Y-63833539D01*
X177430636Y-63509736D01*
X177420900Y-63500000D01*
X177430636Y-63490264D01*
X177646995Y-63166461D01*
X177796025Y-62806670D01*
X177872000Y-62424718D01*
X177872000Y-62035282D01*
X177796025Y-61653330D01*
X177646995Y-61293539D01*
X177430636Y-60969736D01*
X177420900Y-60960000D01*
X177430636Y-60950264D01*
X177646995Y-60626461D01*
X177796025Y-60266670D01*
X177872000Y-59884718D01*
X177872000Y-59495282D01*
X177796025Y-59113330D01*
X177646995Y-58753539D01*
X177430636Y-58429736D01*
X177420900Y-58420000D01*
X177430636Y-58410264D01*
X177646995Y-58086461D01*
X177796025Y-57726670D01*
X177872000Y-57344718D01*
X177872000Y-56955282D01*
X177796025Y-56573330D01*
X177646995Y-56213539D01*
X177430636Y-55889736D01*
X177155264Y-55614364D01*
X176831461Y-55398005D01*
X176471670Y-55248975D01*
X176089718Y-55173000D01*
X175700282Y-55173000D01*
X175318330Y-55248975D01*
X174958539Y-55398005D01*
X174634736Y-55614364D01*
X174359364Y-55889736D01*
X174143005Y-56213539D01*
X173993975Y-56573330D01*
X173918000Y-56955282D01*
X173918000Y-57344718D01*
X173993975Y-57726670D01*
X174143005Y-58086461D01*
X174359364Y-58410264D01*
X174369100Y-58420000D01*
X174359364Y-58429736D01*
X174143005Y-58753539D01*
X173993975Y-59113330D01*
X173918000Y-59495282D01*
X173918000Y-59884718D01*
X173993975Y-60266670D01*
X174143005Y-60626461D01*
X174359364Y-60950264D01*
X174369100Y-60960000D01*
X174359364Y-60969736D01*
X174143005Y-61293539D01*
X173993975Y-61653330D01*
X173926411Y-61992999D01*
X155725088Y-61992999D01*
X155655000Y-61986096D01*
X155584912Y-61992999D01*
X155584903Y-61992999D01*
X155375260Y-62013647D01*
X155106270Y-62095244D01*
X154858367Y-62227751D01*
X154641078Y-62406076D01*
X154596393Y-62460525D01*
X147013341Y-70043577D01*
X146911799Y-69891609D01*
X146870190Y-69850000D01*
X146911799Y-69808391D01*
X147122685Y-69492777D01*
X147267947Y-69142085D01*
X147342000Y-68769793D01*
X147342000Y-68390207D01*
X147267947Y-68017915D01*
X147122685Y-67667223D01*
X146911799Y-67351609D01*
X146870190Y-67310000D01*
X146911799Y-67268391D01*
X147122685Y-66952777D01*
X147267947Y-66602085D01*
X147342000Y-66229793D01*
X147342000Y-65850207D01*
X147267947Y-65477915D01*
X147122685Y-65127223D01*
X146911799Y-64811609D01*
X146870190Y-64770000D01*
X146911799Y-64728391D01*
X147122685Y-64412777D01*
X147267947Y-64062085D01*
X147342000Y-63689793D01*
X147342000Y-63310207D01*
X147267947Y-62937915D01*
X147122685Y-62587223D01*
X146911799Y-62271609D01*
X146643391Y-62003201D01*
X146493577Y-61903099D01*
X146646037Y-61697420D01*
X146766246Y-61443087D01*
X146806904Y-61309039D01*
X146684915Y-61087000D01*
X145542000Y-61087000D01*
X145542000Y-61107000D01*
X145288000Y-61107000D01*
X145288000Y-61087000D01*
X144145085Y-61087000D01*
X144023096Y-61309039D01*
X144063754Y-61443087D01*
X144183963Y-61697420D01*
X144336423Y-61903099D01*
X144186609Y-62003201D01*
X143918201Y-62271609D01*
X143707315Y-62587223D01*
X143562053Y-62937915D01*
X143488000Y-63310207D01*
X132102000Y-63310207D01*
X132027947Y-62937915D01*
X131882685Y-62587223D01*
X131671799Y-62271609D01*
X131630190Y-62230000D01*
X131671799Y-62188391D01*
X131882685Y-61872777D01*
X132027947Y-61522085D01*
X132102000Y-61149793D01*
X132102000Y-60770207D01*
X132027947Y-60397915D01*
X131882685Y-60047223D01*
X131671799Y-59731609D01*
X131630190Y-59690000D01*
X131671799Y-59648391D01*
X131882685Y-59332777D01*
X132027947Y-58982085D01*
X132102000Y-58609793D01*
X132102000Y-58230207D01*
X132027947Y-57857915D01*
X131882685Y-57507223D01*
X131671799Y-57191609D01*
X131403391Y-56923201D01*
X131087777Y-56712315D01*
X130737085Y-56567053D01*
X130364793Y-56493000D01*
X129985207Y-56493000D01*
X129612915Y-56567053D01*
X129262223Y-56712315D01*
X128946609Y-56923201D01*
X128678201Y-57191609D01*
X128467315Y-57507223D01*
X128322053Y-57857915D01*
X128248000Y-58230207D01*
X128248000Y-58609793D01*
X128322053Y-58982085D01*
X128467315Y-59332777D01*
X128678201Y-59648391D01*
X128719810Y-59690000D01*
X128678201Y-59731609D01*
X128467315Y-60047223D01*
X128322053Y-60397915D01*
X128248000Y-60770207D01*
X128248000Y-61149793D01*
X128322053Y-61522085D01*
X128467315Y-61872777D01*
X128678201Y-62188391D01*
X128719810Y-62230000D01*
X128678201Y-62271609D01*
X128467315Y-62587223D01*
X128322053Y-62937915D01*
X128248000Y-63310207D01*
X128248000Y-63689793D01*
X128322053Y-64062085D01*
X128467315Y-64412777D01*
X128678201Y-64728391D01*
X128719810Y-64770000D01*
X128678201Y-64811609D01*
X128467315Y-65127223D01*
X128322053Y-65477915D01*
X128248000Y-65850207D01*
X128248000Y-66229793D01*
X128322053Y-66602085D01*
X128467315Y-66952777D01*
X128678201Y-67268391D01*
X128719810Y-67310000D01*
X128678201Y-67351609D01*
X128467315Y-67667223D01*
X128322053Y-68017915D01*
X128248000Y-68390207D01*
X128248000Y-68769793D01*
X128322053Y-69142085D01*
X128467315Y-69492777D01*
X128678201Y-69808391D01*
X128719810Y-69850000D01*
X128678201Y-69891609D01*
X128467315Y-70207223D01*
X128322053Y-70557915D01*
X128248000Y-70930207D01*
X128248000Y-71309793D01*
X128322053Y-71682085D01*
X128467315Y-72032777D01*
X128678201Y-72348391D01*
X128719810Y-72390000D01*
X128678201Y-72431609D01*
X128576660Y-72583577D01*
X121073609Y-65080527D01*
X121028923Y-65026077D01*
X120811634Y-64847752D01*
X120563731Y-64715245D01*
X120294741Y-64633648D01*
X120085098Y-64613000D01*
X120085088Y-64613000D01*
X120075309Y-64612037D01*
X128985346Y-55702000D01*
X140254654Y-55702000D01*
X143581367Y-59028713D01*
X143707315Y-59332777D01*
X143918201Y-59648391D01*
X144186609Y-59916799D01*
X144336423Y-60016901D01*
X144183963Y-60222580D01*
X144063754Y-60476913D01*
X144023096Y-60610961D01*
X144145085Y-60833000D01*
X145288000Y-60833000D01*
X145288000Y-60813000D01*
X145542000Y-60813000D01*
X145542000Y-60833000D01*
X146684915Y-60833000D01*
X146806904Y-60610961D01*
X146766246Y-60476913D01*
X146646037Y-60222580D01*
X146493577Y-60016901D01*
X146643391Y-59916799D01*
X146911799Y-59648391D01*
X147122685Y-59332777D01*
X147267947Y-58982085D01*
X147342000Y-58609793D01*
X147342000Y-58230207D01*
X147267947Y-57857915D01*
X147122685Y-57507223D01*
X146911799Y-57191609D01*
X146643391Y-56923201D01*
X146327777Y-56712315D01*
X146023713Y-56586367D01*
X142251168Y-52813822D01*
X142197082Y-52747918D01*
X141934112Y-52532104D01*
X141634092Y-52371740D01*
X141308551Y-52272988D01*
X141054841Y-52248000D01*
X141054838Y-52248000D01*
X140970000Y-52239644D01*
X140885162Y-52248000D01*
X128354830Y-52248000D01*
X128269999Y-52239645D01*
X128185168Y-52248000D01*
X128185159Y-52248000D01*
X127931449Y-52272988D01*
X127605908Y-52371740D01*
X127305888Y-52532104D01*
X127042918Y-52747918D01*
X126988832Y-52813822D01*
X118029654Y-61773000D01*
X114902270Y-61773000D01*
X114936641Y-61726920D01*
X115061825Y-61464099D01*
X115106476Y-61316890D01*
X114985155Y-61087000D01*
X113792000Y-61087000D01*
X113792000Y-61107000D01*
X113538000Y-61107000D01*
X113538000Y-61087000D01*
X112344845Y-61087000D01*
X112223524Y-61316890D01*
X112268175Y-61464099D01*
X112393359Y-61726920D01*
X112515342Y-61890459D01*
X112404736Y-61964364D01*
X112129364Y-62239736D01*
X111913005Y-62563539D01*
X111763975Y-62923330D01*
X111755198Y-62967455D01*
X106788818Y-67933836D01*
X106722919Y-67987918D01*
X106668837Y-68053817D01*
X106668835Y-68053819D01*
X106507105Y-68250888D01*
X106346741Y-68550908D01*
X106247989Y-68876449D01*
X106214644Y-69215000D01*
X105537000Y-69215000D01*
X105537000Y-60603110D01*
X112223524Y-60603110D01*
X112344845Y-60833000D01*
X113538000Y-60833000D01*
X113538000Y-59639186D01*
X113792000Y-59639186D01*
X113792000Y-60833000D01*
X114985155Y-60833000D01*
X115106476Y-60603110D01*
X115061825Y-60455901D01*
X114936641Y-60193080D01*
X114762588Y-59959731D01*
X114546355Y-59764822D01*
X114296252Y-59615843D01*
X114021891Y-59518519D01*
X113792000Y-59639186D01*
X113538000Y-59639186D01*
X113308109Y-59518519D01*
X113033748Y-59615843D01*
X112783645Y-59764822D01*
X112567412Y-59959731D01*
X112393359Y-60193080D01*
X112268175Y-60455901D01*
X112223524Y-60603110D01*
X105537000Y-60603110D01*
X105537000Y-42715000D01*
X107759429Y-42715000D01*
X107759429Y-49169000D01*
X183070572Y-49169000D01*
X183070572Y-42715000D01*
X107759429Y-42715000D01*
X105537000Y-42715000D01*
X105537000Y-42037000D01*
X184023000Y-42037000D01*
X184023000Y-117983000D01*
G37*
%TD.AperFunction*%
%TD*%
M02*
