%TF.GenerationSoftware,KiCad,Pcbnew,5.1.9*%
%TF.CreationDate,2021-05-04T18:35:03+02:00*%
%TF.ProjectId,mmms_sorter_schema,6d6d6d73-5f73-46f7-9274-65725f736368,rev?*%
%TF.SameCoordinates,Original*%
%TF.FileFunction,Copper,L1,Top*%
%TF.FilePolarity,Positive*%
%FSLAX46Y46*%
G04 Gerber Fmt 4.6, Leading zero omitted, Abs format (unit mm)*
G04 Created by KiCad (PCBNEW 5.1.9) date 2021-05-04 18:35:03*
%MOMM*%
%LPD*%
G01*
G04 APERTURE LIST*
%TA.AperFunction,ComponentPad*%
%ADD10O,1.700000X1.700000*%
%TD*%
%TA.AperFunction,ComponentPad*%
%ADD11R,1.700000X1.700000*%
%TD*%
%TA.AperFunction,ComponentPad*%
%ADD12O,1.905000X2.000000*%
%TD*%
%TA.AperFunction,ComponentPad*%
%ADD13R,1.905000X2.000000*%
%TD*%
%TA.AperFunction,ComponentPad*%
%ADD14O,1.400000X1.400000*%
%TD*%
%TA.AperFunction,ComponentPad*%
%ADD15C,1.400000*%
%TD*%
%TA.AperFunction,ComponentPad*%
%ADD16C,1.200000*%
%TD*%
%TA.AperFunction,ComponentPad*%
%ADD17R,1.200000X1.200000*%
%TD*%
%TA.AperFunction,ComponentPad*%
%ADD18O,1.600000X1.600000*%
%TD*%
%TA.AperFunction,ComponentPad*%
%ADD19R,1.600000X1.600000*%
%TD*%
%TA.AperFunction,Conductor*%
%ADD20C,0.250000*%
%TD*%
%TA.AperFunction,Conductor*%
%ADD21C,1.000000*%
%TD*%
%TA.AperFunction,Conductor*%
%ADD22C,0.254000*%
%TD*%
%TA.AperFunction,Conductor*%
%ADD23C,0.100000*%
%TD*%
G04 APERTURE END LIST*
D10*
%TO.P,U2,6*%
%TO.N,Net-(U2-Pad6)*%
X148590000Y-78740000D03*
%TO.P,U2,5*%
%TO.N,SCL*%
X146050000Y-78740000D03*
%TO.P,U2,4*%
%TO.N,SDA*%
X143510000Y-78740000D03*
%TO.P,U2,3*%
%TO.N,Net-(U2-Pad3)*%
X140970000Y-78740000D03*
%TO.P,U2,2*%
%TO.N,3v3*%
X138430000Y-78740000D03*
D11*
%TO.P,U2,1*%
%TO.N,GND*%
X135890000Y-78740000D03*
%TD*%
D12*
%TO.P,U1,3*%
%TO.N,5V*%
X123190000Y-86360000D03*
%TO.P,U1,2*%
%TO.N,GND*%
X120650000Y-86360000D03*
D13*
%TO.P,U1,1*%
%TO.N,External5V*%
X118110000Y-86360000D03*
%TD*%
D14*
%TO.P,R1,2*%
%TO.N,Net-(D1-Pad2)*%
X129540000Y-85090000D03*
D15*
%TO.P,R1,1*%
%TO.N,Net-(A1-Pad10)*%
X129540000Y-87630000D03*
%TD*%
D10*
%TO.P,M2,3*%
%TO.N,GND*%
X124460000Y-113030000D03*
%TO.P,M2,2*%
%TO.N,5V*%
X127000000Y-113030000D03*
D11*
%TO.P,M2,1*%
%TO.N,Net-(A1-Pad9)*%
X129540000Y-113030000D03*
%TD*%
D10*
%TO.P,M1,3*%
%TO.N,GND*%
X124460000Y-123190000D03*
%TO.P,M1,2*%
%TO.N,5V*%
X127000000Y-123190000D03*
D11*
%TO.P,M1,1*%
%TO.N,Net-(A1-Pad8)*%
X129540000Y-123190000D03*
%TD*%
D10*
%TO.P,D1,2*%
%TO.N,Net-(D1-Pad2)*%
X142240000Y-73660000D03*
D11*
%TO.P,D1,1*%
%TO.N,GND*%
X142240000Y-71120000D03*
%TD*%
D16*
%TO.P,C2,2*%
%TO.N,GND*%
X124230000Y-92710000D03*
D17*
%TO.P,C2,1*%
%TO.N,5V*%
X125730000Y-92710000D03*
%TD*%
D16*
%TO.P,C1,2*%
%TO.N,GND*%
X117070000Y-92710000D03*
D17*
%TO.P,C1,1*%
%TO.N,External5V*%
X115570000Y-92710000D03*
%TD*%
D18*
%TO.P,A1,16*%
%TO.N,Net-(A1-Pad16)*%
X149860000Y-123190000D03*
%TO.P,A1,15*%
%TO.N,Net-(A1-Pad15)*%
X134620000Y-123190000D03*
%TO.P,A1,30*%
%TO.N,5V*%
X149860000Y-87630000D03*
%TO.P,A1,14*%
%TO.N,Net-(A1-Pad14)*%
X134620000Y-120650000D03*
%TO.P,A1,29*%
%TO.N,GND*%
X149860000Y-90170000D03*
%TO.P,A1,13*%
%TO.N,Net-(A1-Pad13)*%
X134620000Y-118110000D03*
%TO.P,A1,28*%
%TO.N,Net-(A1-Pad28)*%
X149860000Y-92710000D03*
%TO.P,A1,12*%
%TO.N,Net-(A1-Pad12)*%
X134620000Y-115570000D03*
%TO.P,A1,27*%
%TO.N,Net-(A1-Pad27)*%
X149860000Y-95250000D03*
%TO.P,A1,11*%
%TO.N,Net-(A1-Pad11)*%
X134620000Y-113030000D03*
%TO.P,A1,26*%
%TO.N,Net-(A1-Pad26)*%
X149860000Y-97790000D03*
%TO.P,A1,10*%
%TO.N,Net-(A1-Pad10)*%
X134620000Y-110490000D03*
%TO.P,A1,25*%
%TO.N,Net-(A1-Pad25)*%
X149860000Y-100330000D03*
%TO.P,A1,9*%
%TO.N,Net-(A1-Pad9)*%
X134620000Y-107950000D03*
%TO.P,A1,24*%
%TO.N,SCL*%
X149860000Y-102870000D03*
%TO.P,A1,8*%
%TO.N,Net-(A1-Pad8)*%
X134620000Y-105410000D03*
%TO.P,A1,23*%
%TO.N,SDA*%
X149860000Y-105410000D03*
%TO.P,A1,7*%
%TO.N,Net-(A1-Pad7)*%
X134620000Y-102870000D03*
%TO.P,A1,22*%
%TO.N,Net-(A1-Pad22)*%
X149860000Y-107950000D03*
%TO.P,A1,6*%
%TO.N,Net-(A1-Pad6)*%
X134620000Y-100330000D03*
%TO.P,A1,21*%
%TO.N,Net-(A1-Pad21)*%
X149860000Y-110490000D03*
%TO.P,A1,5*%
%TO.N,Net-(A1-Pad5)*%
X134620000Y-97790000D03*
%TO.P,A1,20*%
%TO.N,Net-(A1-Pad20)*%
X149860000Y-113030000D03*
%TO.P,A1,4*%
%TO.N,Net-(A1-Pad4)*%
X134620000Y-95250000D03*
%TO.P,A1,19*%
%TO.N,Net-(A1-Pad19)*%
X149860000Y-115570000D03*
%TO.P,A1,3*%
%TO.N,Net-(A1-Pad3)*%
X134620000Y-92710000D03*
%TO.P,A1,18*%
%TO.N,Net-(A1-Pad18)*%
X149860000Y-118110000D03*
%TO.P,A1,2*%
%TO.N,Net-(A1-Pad2)*%
X134620000Y-90170000D03*
%TO.P,A1,17*%
%TO.N,3v3*%
X149860000Y-120650000D03*
D19*
%TO.P,A1,1*%
%TO.N,Net-(A1-Pad1)*%
X134620000Y-87630000D03*
%TD*%
D20*
%TO.N,5V*%
X130650001Y-124365001D02*
X128175001Y-124365001D01*
X150985001Y-120109999D02*
X150985001Y-121190001D01*
X150400001Y-119524999D02*
X150985001Y-120109999D01*
X128175001Y-124365001D02*
X127000000Y-123190000D01*
X149371409Y-119524999D02*
X150400001Y-119524999D01*
X141923205Y-112076795D02*
X149371409Y-119524999D01*
X147175001Y-106824999D02*
X141923205Y-112076795D01*
X132950003Y-122064999D02*
X130650001Y-124365001D01*
X150110003Y-106824999D02*
X147175001Y-106824999D01*
X150985001Y-105950001D02*
X150110003Y-106824999D01*
X150985001Y-102329999D02*
X150985001Y-105950001D01*
X150110003Y-122064999D02*
X132950003Y-122064999D01*
X150400001Y-101744999D02*
X150985001Y-102329999D01*
X149371409Y-101744999D02*
X150400001Y-101744999D01*
X150985001Y-121190001D02*
X150110003Y-122064999D01*
X148734999Y-101108589D02*
X149371409Y-101744999D01*
X148734999Y-88755001D02*
X148734999Y-101108589D01*
X149860000Y-87630000D02*
X148734999Y-88755001D01*
D21*
X127000000Y-93980000D02*
X125730000Y-92710000D01*
X127000000Y-113030000D02*
X127000000Y-93980000D01*
X127000000Y-113030000D02*
X127000000Y-123190000D01*
X125730000Y-88900000D02*
X125730000Y-92710000D01*
X123190000Y-86360000D02*
X125730000Y-88900000D01*
D20*
%TO.N,GND*%
X135890000Y-71120000D02*
X142240000Y-71120000D01*
X120650000Y-86360000D02*
X135890000Y-71120000D01*
X137065001Y-77564999D02*
X135890000Y-78740000D01*
X140074003Y-77564999D02*
X137065001Y-77564999D01*
X143415001Y-74224001D02*
X140074003Y-77564999D01*
X143415001Y-72295001D02*
X143415001Y-74224001D01*
X142240000Y-71120000D02*
X143415001Y-72295001D01*
X143340000Y-71120000D02*
X142240000Y-71120000D01*
X150985001Y-78765001D02*
X143340000Y-71120000D01*
X150985001Y-89044999D02*
X150985001Y-78765001D01*
X149860000Y-90170000D02*
X150985001Y-89044999D01*
D21*
X124230000Y-112800000D02*
X124460000Y-113030000D01*
X124230000Y-92710000D02*
X124230000Y-112800000D01*
X124460000Y-123190000D02*
X124460000Y-113030000D01*
X117070000Y-92710000D02*
X124230000Y-92710000D01*
X120650000Y-89130000D02*
X120650000Y-86360000D01*
X117070000Y-92710000D02*
X120650000Y-89130000D01*
D20*
%TO.N,Net-(A1-Pad10)*%
X129540000Y-105410000D02*
X134620000Y-110490000D01*
X129540000Y-87630000D02*
X129540000Y-105410000D01*
%TO.N,Net-(A1-Pad9)*%
X135745001Y-109075001D02*
X134620000Y-107950000D01*
X135745001Y-111030001D02*
X135745001Y-109075001D01*
X135160001Y-111615001D02*
X135745001Y-111030001D01*
X130954999Y-111615001D02*
X135160001Y-111615001D01*
X129540000Y-113030000D02*
X130954999Y-111615001D01*
%TO.N,SCL*%
X146050000Y-99060000D02*
X149860000Y-102870000D01*
X146050000Y-78740000D02*
X146050000Y-99060000D01*
%TO.N,Net-(A1-Pad8)*%
X136195010Y-106985010D02*
X134620000Y-105410000D01*
X136195010Y-115659992D02*
X136195010Y-106985010D01*
X131829997Y-116695001D02*
X135160001Y-116695001D01*
X135160001Y-116695001D02*
X136195010Y-115659992D01*
X129540000Y-118984998D02*
X131829997Y-116695001D01*
X129540000Y-123190000D02*
X129540000Y-118984998D01*
%TO.N,SDA*%
X143510000Y-99060000D02*
X149860000Y-105410000D01*
X143510000Y-78740000D02*
X143510000Y-99060000D01*
%TO.N,3v3*%
X138430000Y-109220000D02*
X149860000Y-120650000D01*
X138430000Y-78740000D02*
X138430000Y-109220000D01*
D21*
%TO.N,External5V*%
X115570000Y-88900000D02*
X118110000Y-86360000D01*
X115570000Y-92710000D02*
X115570000Y-88900000D01*
D20*
%TO.N,Net-(D1-Pad2)*%
X129540000Y-82804998D02*
X138684998Y-73660000D01*
X138684998Y-73660000D02*
X142240000Y-73660000D01*
X129540000Y-85090000D02*
X129540000Y-82804998D01*
%TD*%
D22*
%TO.N,GND*%
X153543000Y-131953000D02*
X113157000Y-131953000D01*
X113157000Y-128084344D01*
X114955000Y-128084344D01*
X114955000Y-128455656D01*
X115027439Y-128819834D01*
X115169534Y-129162882D01*
X115375825Y-129471618D01*
X115638382Y-129734175D01*
X115947118Y-129940466D01*
X116290166Y-130082561D01*
X116654344Y-130155000D01*
X117025656Y-130155000D01*
X117389834Y-130082561D01*
X117732882Y-129940466D01*
X118041618Y-129734175D01*
X118304175Y-129471618D01*
X118510466Y-129162882D01*
X118652561Y-128819834D01*
X118725000Y-128455656D01*
X118725000Y-128084344D01*
X118652561Y-127720166D01*
X118510466Y-127377118D01*
X118304175Y-127068382D01*
X118041618Y-126805825D01*
X117732882Y-126599534D01*
X117389834Y-126457439D01*
X117025656Y-126385000D01*
X116654344Y-126385000D01*
X116290166Y-126457439D01*
X115947118Y-126599534D01*
X115638382Y-126805825D01*
X115375825Y-127068382D01*
X115169534Y-127377118D01*
X115027439Y-127720166D01*
X114955000Y-128084344D01*
X113157000Y-128084344D01*
X113157000Y-123546891D01*
X123018519Y-123546891D01*
X123115843Y-123821252D01*
X123264822Y-124071355D01*
X123459731Y-124287588D01*
X123693080Y-124461641D01*
X123955901Y-124586825D01*
X124103110Y-124631476D01*
X124333000Y-124510155D01*
X124333000Y-123317000D01*
X123139186Y-123317000D01*
X123018519Y-123546891D01*
X113157000Y-123546891D01*
X113157000Y-122833109D01*
X123018519Y-122833109D01*
X123139186Y-123063000D01*
X124333000Y-123063000D01*
X124333000Y-121869845D01*
X124103110Y-121748524D01*
X123955901Y-121793175D01*
X123693080Y-121918359D01*
X123459731Y-122092412D01*
X123264822Y-122308645D01*
X123115843Y-122558748D01*
X123018519Y-122833109D01*
X113157000Y-122833109D01*
X113157000Y-113386891D01*
X123018519Y-113386891D01*
X123115843Y-113661252D01*
X123264822Y-113911355D01*
X123459731Y-114127588D01*
X123693080Y-114301641D01*
X123955901Y-114426825D01*
X124103110Y-114471476D01*
X124333000Y-114350155D01*
X124333000Y-113157000D01*
X123139186Y-113157000D01*
X123018519Y-113386891D01*
X113157000Y-113386891D01*
X113157000Y-112673109D01*
X123018519Y-112673109D01*
X123139186Y-112903000D01*
X124333000Y-112903000D01*
X124333000Y-111709845D01*
X124103110Y-111588524D01*
X123955901Y-111633175D01*
X123693080Y-111758359D01*
X123459731Y-111932412D01*
X123264822Y-112148645D01*
X123115843Y-112398748D01*
X123018519Y-112673109D01*
X113157000Y-112673109D01*
X113157000Y-92110000D01*
X114331928Y-92110000D01*
X114331928Y-93310000D01*
X114344188Y-93434482D01*
X114380498Y-93554180D01*
X114439463Y-93664494D01*
X114518815Y-93761185D01*
X114615506Y-93840537D01*
X114725820Y-93899502D01*
X114845518Y-93935812D01*
X114970000Y-93948072D01*
X116170000Y-93948072D01*
X116294482Y-93935812D01*
X116414180Y-93899502D01*
X116524494Y-93840537D01*
X116541681Y-93826432D01*
X116668516Y-93884237D01*
X116905313Y-93940000D01*
X117148438Y-93948495D01*
X117388549Y-93909395D01*
X117616418Y-93824202D01*
X117692852Y-93783348D01*
X117740159Y-93559764D01*
X117070000Y-92889605D01*
X117055858Y-92903748D01*
X116876253Y-92724143D01*
X116890395Y-92710000D01*
X117249605Y-92710000D01*
X117919764Y-93380159D01*
X118143348Y-93332852D01*
X118244237Y-93111484D01*
X118300000Y-92874687D01*
X118303013Y-92788438D01*
X122991505Y-92788438D01*
X123030605Y-93028549D01*
X123115798Y-93256418D01*
X123156652Y-93332852D01*
X123380236Y-93380159D01*
X124050395Y-92710000D01*
X123380236Y-92039841D01*
X123156652Y-92087148D01*
X123055763Y-92308516D01*
X123000000Y-92545313D01*
X122991505Y-92788438D01*
X118303013Y-92788438D01*
X118308495Y-92631562D01*
X118269395Y-92391451D01*
X118184202Y-92163582D01*
X118143348Y-92087148D01*
X117919764Y-92039841D01*
X117249605Y-92710000D01*
X116890395Y-92710000D01*
X116876253Y-92695858D01*
X117055858Y-92516253D01*
X117070000Y-92530395D01*
X117740159Y-91860236D01*
X117692852Y-91636652D01*
X117471484Y-91535763D01*
X117234687Y-91480000D01*
X116991562Y-91471505D01*
X116751451Y-91510605D01*
X116705000Y-91527972D01*
X116705000Y-89370131D01*
X118077060Y-87998072D01*
X119062500Y-87998072D01*
X119186982Y-87985812D01*
X119306680Y-87949502D01*
X119416994Y-87890537D01*
X119513685Y-87811185D01*
X119593037Y-87714494D01*
X119642059Y-87622781D01*
X119783077Y-87735969D01*
X120058906Y-87879571D01*
X120277020Y-87950563D01*
X120523000Y-87830594D01*
X120523000Y-86487000D01*
X120503000Y-86487000D01*
X120503000Y-86233000D01*
X120523000Y-86233000D01*
X120523000Y-84889406D01*
X120777000Y-84889406D01*
X120777000Y-86233000D01*
X120797000Y-86233000D01*
X120797000Y-86487000D01*
X120777000Y-86487000D01*
X120777000Y-87830594D01*
X121022980Y-87950563D01*
X121241094Y-87879571D01*
X121516923Y-87735969D01*
X121759437Y-87541315D01*
X121914837Y-87356101D01*
X122062037Y-87535463D01*
X122303766Y-87733845D01*
X122579552Y-87881255D01*
X122878797Y-87972030D01*
X123190000Y-88002681D01*
X123224183Y-87999314D01*
X124595000Y-89370132D01*
X124595001Y-91527172D01*
X124394687Y-91480000D01*
X124151562Y-91471505D01*
X123911451Y-91510605D01*
X123683582Y-91595798D01*
X123607148Y-91636652D01*
X123559841Y-91860236D01*
X124230000Y-92530395D01*
X124244143Y-92516253D01*
X124423748Y-92695858D01*
X124409605Y-92710000D01*
X124423748Y-92724143D01*
X124244143Y-92903748D01*
X124230000Y-92889605D01*
X123559841Y-93559764D01*
X123607148Y-93783348D01*
X123828516Y-93884237D01*
X124065313Y-93940000D01*
X124308438Y-93948495D01*
X124548549Y-93909395D01*
X124762117Y-93829549D01*
X124775506Y-93840537D01*
X124885820Y-93899502D01*
X125005518Y-93935812D01*
X125130000Y-93948072D01*
X125362941Y-93948072D01*
X125865001Y-94450133D01*
X125865000Y-112064893D01*
X125846525Y-112083368D01*
X125724805Y-112265534D01*
X125655178Y-112148645D01*
X125460269Y-111932412D01*
X125226920Y-111758359D01*
X124964099Y-111633175D01*
X124816890Y-111588524D01*
X124587000Y-111709845D01*
X124587000Y-112903000D01*
X124607000Y-112903000D01*
X124607000Y-113157000D01*
X124587000Y-113157000D01*
X124587000Y-114350155D01*
X124816890Y-114471476D01*
X124964099Y-114426825D01*
X125226920Y-114301641D01*
X125460269Y-114127588D01*
X125655178Y-113911355D01*
X125724805Y-113794466D01*
X125846525Y-113976632D01*
X125865000Y-113995107D01*
X125865001Y-122224892D01*
X125846525Y-122243368D01*
X125724805Y-122425534D01*
X125655178Y-122308645D01*
X125460269Y-122092412D01*
X125226920Y-121918359D01*
X124964099Y-121793175D01*
X124816890Y-121748524D01*
X124587000Y-121869845D01*
X124587000Y-123063000D01*
X124607000Y-123063000D01*
X124607000Y-123317000D01*
X124587000Y-123317000D01*
X124587000Y-124510155D01*
X124816890Y-124631476D01*
X124964099Y-124586825D01*
X125226920Y-124461641D01*
X125460269Y-124287588D01*
X125655178Y-124071355D01*
X125724805Y-123954466D01*
X125846525Y-124136632D01*
X126053368Y-124343475D01*
X126296589Y-124505990D01*
X126566842Y-124617932D01*
X126853740Y-124675000D01*
X127146260Y-124675000D01*
X127366408Y-124631210D01*
X127611202Y-124876004D01*
X127635000Y-124905002D01*
X127750725Y-124999975D01*
X127882754Y-125070547D01*
X128026015Y-125114004D01*
X128137668Y-125125001D01*
X128137677Y-125125001D01*
X128175000Y-125128677D01*
X128212323Y-125125001D01*
X130612679Y-125125001D01*
X130650001Y-125128677D01*
X130687323Y-125125001D01*
X130687334Y-125125001D01*
X130798987Y-125114004D01*
X130942248Y-125070547D01*
X131074277Y-124999975D01*
X131190002Y-124905002D01*
X131213805Y-124875998D01*
X133220722Y-122869082D01*
X133185000Y-123048665D01*
X133185000Y-123331335D01*
X133240147Y-123608574D01*
X133348320Y-123869727D01*
X133505363Y-124104759D01*
X133705241Y-124304637D01*
X133940273Y-124461680D01*
X134201426Y-124569853D01*
X134478665Y-124625000D01*
X134761335Y-124625000D01*
X135038574Y-124569853D01*
X135299727Y-124461680D01*
X135534759Y-124304637D01*
X135734637Y-124104759D01*
X135891680Y-123869727D01*
X135999853Y-123608574D01*
X136055000Y-123331335D01*
X136055000Y-123048665D01*
X136010509Y-122824999D01*
X148469491Y-122824999D01*
X148425000Y-123048665D01*
X148425000Y-123331335D01*
X148480147Y-123608574D01*
X148588320Y-123869727D01*
X148745363Y-124104759D01*
X148945241Y-124304637D01*
X149180273Y-124461680D01*
X149441426Y-124569853D01*
X149718665Y-124625000D01*
X150001335Y-124625000D01*
X150278574Y-124569853D01*
X150539727Y-124461680D01*
X150774759Y-124304637D01*
X150974637Y-124104759D01*
X151131680Y-123869727D01*
X151239853Y-123608574D01*
X151295000Y-123331335D01*
X151295000Y-123048665D01*
X151239853Y-122771426D01*
X151131680Y-122510273D01*
X150974637Y-122275241D01*
X150974600Y-122275204D01*
X151496004Y-121753800D01*
X151525002Y-121730002D01*
X151551333Y-121697918D01*
X151619975Y-121614278D01*
X151690547Y-121482248D01*
X151706388Y-121430025D01*
X151734004Y-121338987D01*
X151745001Y-121227334D01*
X151745001Y-121227325D01*
X151748677Y-121190002D01*
X151745001Y-121152679D01*
X151745001Y-120147322D01*
X151748677Y-120109999D01*
X151745001Y-120072676D01*
X151745001Y-120072666D01*
X151734004Y-119961013D01*
X151690547Y-119817752D01*
X151653624Y-119748674D01*
X151619975Y-119685722D01*
X151548800Y-119598996D01*
X151525002Y-119569998D01*
X151496005Y-119546201D01*
X150974600Y-119024796D01*
X150974637Y-119024759D01*
X151131680Y-118789727D01*
X151239853Y-118528574D01*
X151295000Y-118251335D01*
X151295000Y-117968665D01*
X151239853Y-117691426D01*
X151131680Y-117430273D01*
X150974637Y-117195241D01*
X150774759Y-116995363D01*
X150542241Y-116840000D01*
X150774759Y-116684637D01*
X150974637Y-116484759D01*
X151131680Y-116249727D01*
X151239853Y-115988574D01*
X151295000Y-115711335D01*
X151295000Y-115428665D01*
X151239853Y-115151426D01*
X151131680Y-114890273D01*
X150974637Y-114655241D01*
X150774759Y-114455363D01*
X150542241Y-114300000D01*
X150774759Y-114144637D01*
X150974637Y-113944759D01*
X151131680Y-113709727D01*
X151239853Y-113448574D01*
X151295000Y-113171335D01*
X151295000Y-112888665D01*
X151239853Y-112611426D01*
X151131680Y-112350273D01*
X150974637Y-112115241D01*
X150774759Y-111915363D01*
X150542241Y-111760000D01*
X150774759Y-111604637D01*
X150974637Y-111404759D01*
X151131680Y-111169727D01*
X151239853Y-110908574D01*
X151295000Y-110631335D01*
X151295000Y-110348665D01*
X151239853Y-110071426D01*
X151131680Y-109810273D01*
X150974637Y-109575241D01*
X150774759Y-109375363D01*
X150542241Y-109220000D01*
X150774759Y-109064637D01*
X150974637Y-108864759D01*
X151131680Y-108629727D01*
X151239853Y-108368574D01*
X151295000Y-108091335D01*
X151295000Y-107808665D01*
X151239853Y-107531426D01*
X151131680Y-107270273D01*
X150974637Y-107035241D01*
X150974600Y-107035204D01*
X151496004Y-106513800D01*
X151525002Y-106490002D01*
X151598271Y-106400724D01*
X151619975Y-106374278D01*
X151690547Y-106242248D01*
X151711347Y-106173677D01*
X151734004Y-106098987D01*
X151745001Y-105987334D01*
X151745001Y-105987325D01*
X151748677Y-105950002D01*
X151745001Y-105912679D01*
X151745001Y-102367322D01*
X151748677Y-102329999D01*
X151745001Y-102292676D01*
X151745001Y-102292666D01*
X151734004Y-102181013D01*
X151690547Y-102037752D01*
X151690276Y-102037245D01*
X151619975Y-101905722D01*
X151548800Y-101818996D01*
X151525002Y-101789998D01*
X151496005Y-101766201D01*
X150974600Y-101244796D01*
X150974637Y-101244759D01*
X151131680Y-101009727D01*
X151239853Y-100748574D01*
X151295000Y-100471335D01*
X151295000Y-100188665D01*
X151239853Y-99911426D01*
X151131680Y-99650273D01*
X150974637Y-99415241D01*
X150774759Y-99215363D01*
X150542241Y-99060000D01*
X150774759Y-98904637D01*
X150974637Y-98704759D01*
X151131680Y-98469727D01*
X151239853Y-98208574D01*
X151295000Y-97931335D01*
X151295000Y-97648665D01*
X151239853Y-97371426D01*
X151131680Y-97110273D01*
X150974637Y-96875241D01*
X150774759Y-96675363D01*
X150542241Y-96520000D01*
X150774759Y-96364637D01*
X150974637Y-96164759D01*
X151131680Y-95929727D01*
X151239853Y-95668574D01*
X151295000Y-95391335D01*
X151295000Y-95108665D01*
X151239853Y-94831426D01*
X151131680Y-94570273D01*
X150974637Y-94335241D01*
X150774759Y-94135363D01*
X150542241Y-93980000D01*
X150774759Y-93824637D01*
X150974637Y-93624759D01*
X151131680Y-93389727D01*
X151239853Y-93128574D01*
X151295000Y-92851335D01*
X151295000Y-92568665D01*
X151239853Y-92291426D01*
X151131680Y-92030273D01*
X150974637Y-91795241D01*
X150774759Y-91595363D01*
X150539727Y-91438320D01*
X150529135Y-91433933D01*
X150715131Y-91322385D01*
X150923519Y-91133414D01*
X151091037Y-90907420D01*
X151211246Y-90653087D01*
X151251904Y-90519039D01*
X151129915Y-90297000D01*
X149987000Y-90297000D01*
X149987000Y-90317000D01*
X149733000Y-90317000D01*
X149733000Y-90297000D01*
X149713000Y-90297000D01*
X149713000Y-90043000D01*
X149733000Y-90043000D01*
X149733000Y-90023000D01*
X149987000Y-90023000D01*
X149987000Y-90043000D01*
X151129915Y-90043000D01*
X151251904Y-89820961D01*
X151211246Y-89686913D01*
X151091037Y-89432580D01*
X150923519Y-89206586D01*
X150715131Y-89017615D01*
X150529135Y-88906067D01*
X150539727Y-88901680D01*
X150774759Y-88744637D01*
X150974637Y-88544759D01*
X151131680Y-88309727D01*
X151239853Y-88048574D01*
X151295000Y-87771335D01*
X151295000Y-87488665D01*
X151239853Y-87211426D01*
X151131680Y-86950273D01*
X150974637Y-86715241D01*
X150774759Y-86515363D01*
X150539727Y-86358320D01*
X150278574Y-86250147D01*
X150001335Y-86195000D01*
X149718665Y-86195000D01*
X149441426Y-86250147D01*
X149180273Y-86358320D01*
X148945241Y-86515363D01*
X148745363Y-86715241D01*
X148588320Y-86950273D01*
X148480147Y-87211426D01*
X148425000Y-87488665D01*
X148425000Y-87771335D01*
X148461312Y-87953887D01*
X148224001Y-88191197D01*
X148194998Y-88215000D01*
X148152834Y-88266378D01*
X148100025Y-88330725D01*
X148046961Y-88430000D01*
X148029453Y-88462755D01*
X147985996Y-88606016D01*
X147974999Y-88717669D01*
X147974999Y-88717679D01*
X147971323Y-88755001D01*
X147974999Y-88792323D01*
X147975000Y-99910199D01*
X146810000Y-98745199D01*
X146810000Y-80018178D01*
X146996632Y-79893475D01*
X147203475Y-79686632D01*
X147320000Y-79512240D01*
X147436525Y-79686632D01*
X147643368Y-79893475D01*
X147886589Y-80055990D01*
X148156842Y-80167932D01*
X148443740Y-80225000D01*
X148736260Y-80225000D01*
X149023158Y-80167932D01*
X149293411Y-80055990D01*
X149536632Y-79893475D01*
X149743475Y-79686632D01*
X149905990Y-79443411D01*
X150017932Y-79173158D01*
X150075000Y-78886260D01*
X150075000Y-78593740D01*
X150017932Y-78306842D01*
X149905990Y-78036589D01*
X149743475Y-77793368D01*
X149536632Y-77586525D01*
X149293411Y-77424010D01*
X149023158Y-77312068D01*
X148736260Y-77255000D01*
X148443740Y-77255000D01*
X148156842Y-77312068D01*
X147886589Y-77424010D01*
X147643368Y-77586525D01*
X147436525Y-77793368D01*
X147320000Y-77967760D01*
X147203475Y-77793368D01*
X146996632Y-77586525D01*
X146753411Y-77424010D01*
X146483158Y-77312068D01*
X146196260Y-77255000D01*
X145903740Y-77255000D01*
X145616842Y-77312068D01*
X145346589Y-77424010D01*
X145103368Y-77586525D01*
X144896525Y-77793368D01*
X144780000Y-77967760D01*
X144663475Y-77793368D01*
X144456632Y-77586525D01*
X144213411Y-77424010D01*
X143943158Y-77312068D01*
X143656260Y-77255000D01*
X143363740Y-77255000D01*
X143076842Y-77312068D01*
X142806589Y-77424010D01*
X142563368Y-77586525D01*
X142356525Y-77793368D01*
X142240000Y-77967760D01*
X142123475Y-77793368D01*
X141916632Y-77586525D01*
X141673411Y-77424010D01*
X141403158Y-77312068D01*
X141116260Y-77255000D01*
X140823740Y-77255000D01*
X140536842Y-77312068D01*
X140266589Y-77424010D01*
X140023368Y-77586525D01*
X139816525Y-77793368D01*
X139700000Y-77967760D01*
X139583475Y-77793368D01*
X139376632Y-77586525D01*
X139133411Y-77424010D01*
X138863158Y-77312068D01*
X138576260Y-77255000D01*
X138283740Y-77255000D01*
X137996842Y-77312068D01*
X137726589Y-77424010D01*
X137483368Y-77586525D01*
X137351513Y-77718380D01*
X137329502Y-77645820D01*
X137270537Y-77535506D01*
X137191185Y-77438815D01*
X137094494Y-77359463D01*
X136984180Y-77300498D01*
X136864482Y-77264188D01*
X136740000Y-77251928D01*
X136175750Y-77255000D01*
X136017002Y-77413748D01*
X136017002Y-77402798D01*
X138999800Y-74420000D01*
X140961822Y-74420000D01*
X141086525Y-74606632D01*
X141293368Y-74813475D01*
X141536589Y-74975990D01*
X141806842Y-75087932D01*
X142093740Y-75145000D01*
X142386260Y-75145000D01*
X142673158Y-75087932D01*
X142943411Y-74975990D01*
X143186632Y-74813475D01*
X143393475Y-74606632D01*
X143555990Y-74363411D01*
X143667932Y-74093158D01*
X143725000Y-73806260D01*
X143725000Y-73513740D01*
X143667932Y-73226842D01*
X143555990Y-72956589D01*
X143393475Y-72713368D01*
X143261620Y-72581513D01*
X143334180Y-72559502D01*
X143444494Y-72500537D01*
X143541185Y-72421185D01*
X143620537Y-72324494D01*
X143679502Y-72214180D01*
X143715812Y-72094482D01*
X143728072Y-71970000D01*
X143725000Y-71405750D01*
X143566250Y-71247000D01*
X142367000Y-71247000D01*
X142367000Y-71267000D01*
X142113000Y-71267000D01*
X142113000Y-71247000D01*
X140913750Y-71247000D01*
X140755000Y-71405750D01*
X140751928Y-71970000D01*
X140764188Y-72094482D01*
X140800498Y-72214180D01*
X140859463Y-72324494D01*
X140938815Y-72421185D01*
X141035506Y-72500537D01*
X141145820Y-72559502D01*
X141218380Y-72581513D01*
X141086525Y-72713368D01*
X140961822Y-72900000D01*
X138722320Y-72900000D01*
X138684997Y-72896324D01*
X138647674Y-72900000D01*
X138647665Y-72900000D01*
X138536012Y-72910997D01*
X138392751Y-72954454D01*
X138260722Y-73025026D01*
X138144997Y-73119999D01*
X138121199Y-73148997D01*
X129028998Y-82241199D01*
X129000000Y-82264997D01*
X128976202Y-82293995D01*
X128976201Y-82293996D01*
X128905026Y-82380722D01*
X128834454Y-82512752D01*
X128790998Y-82656013D01*
X128776324Y-82804998D01*
X128780001Y-82842330D01*
X128780000Y-83992225D01*
X128688987Y-84053038D01*
X128503038Y-84238987D01*
X128356939Y-84457641D01*
X128256304Y-84700595D01*
X128205000Y-84958514D01*
X128205000Y-85221486D01*
X128256304Y-85479405D01*
X128356939Y-85722359D01*
X128503038Y-85941013D01*
X128688987Y-86126962D01*
X128907641Y-86273061D01*
X129117530Y-86360000D01*
X128907641Y-86446939D01*
X128688987Y-86593038D01*
X128503038Y-86778987D01*
X128356939Y-86997641D01*
X128256304Y-87240595D01*
X128205000Y-87498514D01*
X128205000Y-87761486D01*
X128256304Y-88019405D01*
X128356939Y-88262359D01*
X128503038Y-88481013D01*
X128688987Y-88666962D01*
X128780000Y-88727775D01*
X128780001Y-105372667D01*
X128776324Y-105410000D01*
X128780001Y-105447333D01*
X128790245Y-105551335D01*
X128790998Y-105558985D01*
X128834454Y-105702246D01*
X128905026Y-105834276D01*
X128976201Y-105921002D01*
X129000000Y-105950001D01*
X129028998Y-105973799D01*
X133221312Y-110166114D01*
X133185000Y-110348665D01*
X133185000Y-110631335D01*
X133229491Y-110855001D01*
X130992324Y-110855001D01*
X130954999Y-110851325D01*
X130917674Y-110855001D01*
X130917666Y-110855001D01*
X130806013Y-110865998D01*
X130662752Y-110909455D01*
X130530723Y-110980027D01*
X130414998Y-111075000D01*
X130391200Y-111103998D01*
X129953270Y-111541928D01*
X128690000Y-111541928D01*
X128565518Y-111554188D01*
X128445820Y-111590498D01*
X128335506Y-111649463D01*
X128238815Y-111728815D01*
X128159463Y-111825506D01*
X128135000Y-111871272D01*
X128135000Y-94035743D01*
X128140490Y-93979999D01*
X128135000Y-93924255D01*
X128135000Y-93924248D01*
X128118577Y-93757501D01*
X128053676Y-93543553D01*
X127948284Y-93346377D01*
X127806449Y-93173551D01*
X127763140Y-93138008D01*
X126968072Y-92342941D01*
X126968072Y-92110000D01*
X126955812Y-91985518D01*
X126919502Y-91865820D01*
X126865000Y-91763856D01*
X126865000Y-88955741D01*
X126870490Y-88899999D01*
X126865000Y-88844257D01*
X126865000Y-88844248D01*
X126848577Y-88677501D01*
X126783676Y-88463553D01*
X126678284Y-88266377D01*
X126536449Y-88093551D01*
X126493141Y-88058009D01*
X124777500Y-86342369D01*
X124777500Y-86234514D01*
X124754530Y-86001296D01*
X124663755Y-85702051D01*
X124516345Y-85426265D01*
X124317963Y-85184537D01*
X124076234Y-84986155D01*
X123800448Y-84838745D01*
X123501203Y-84747970D01*
X123190000Y-84717319D01*
X122878796Y-84747970D01*
X122579551Y-84838745D01*
X122303765Y-84986155D01*
X122062037Y-85184537D01*
X121914838Y-85363900D01*
X121759437Y-85178685D01*
X121516923Y-84984031D01*
X121241094Y-84840429D01*
X121022980Y-84769437D01*
X120777000Y-84889406D01*
X120523000Y-84889406D01*
X120277020Y-84769437D01*
X120058906Y-84840429D01*
X119783077Y-84984031D01*
X119642059Y-85097219D01*
X119593037Y-85005506D01*
X119513685Y-84908815D01*
X119416994Y-84829463D01*
X119306680Y-84770498D01*
X119186982Y-84734188D01*
X119062500Y-84721928D01*
X117157500Y-84721928D01*
X117033018Y-84734188D01*
X116913320Y-84770498D01*
X116803006Y-84829463D01*
X116706315Y-84908815D01*
X116626963Y-85005506D01*
X116567998Y-85115820D01*
X116531688Y-85235518D01*
X116519428Y-85360000D01*
X116519428Y-86345440D01*
X114806860Y-88058009D01*
X114763552Y-88093551D01*
X114621717Y-88266377D01*
X114598546Y-88309727D01*
X114516324Y-88463554D01*
X114451423Y-88677502D01*
X114429509Y-88900000D01*
X114435001Y-88955761D01*
X114435000Y-91763855D01*
X114380498Y-91865820D01*
X114344188Y-91985518D01*
X114331928Y-92110000D01*
X113157000Y-92110000D01*
X113157000Y-70934344D01*
X114955000Y-70934344D01*
X114955000Y-71305656D01*
X115027439Y-71669834D01*
X115169534Y-72012882D01*
X115375825Y-72321618D01*
X115638382Y-72584175D01*
X115947118Y-72790466D01*
X116290166Y-72932561D01*
X116654344Y-73005000D01*
X117025656Y-73005000D01*
X117389834Y-72932561D01*
X117732882Y-72790466D01*
X118041618Y-72584175D01*
X118304175Y-72321618D01*
X118510466Y-72012882D01*
X118652561Y-71669834D01*
X118725000Y-71305656D01*
X118725000Y-70934344D01*
X118652561Y-70570166D01*
X118528229Y-70270000D01*
X140751928Y-70270000D01*
X140755000Y-70834250D01*
X140913750Y-70993000D01*
X142113000Y-70993000D01*
X142113000Y-69793750D01*
X142367000Y-69793750D01*
X142367000Y-70993000D01*
X143566250Y-70993000D01*
X143624906Y-70934344D01*
X147975000Y-70934344D01*
X147975000Y-71305656D01*
X148047439Y-71669834D01*
X148189534Y-72012882D01*
X148395825Y-72321618D01*
X148658382Y-72584175D01*
X148967118Y-72790466D01*
X149310166Y-72932561D01*
X149674344Y-73005000D01*
X150045656Y-73005000D01*
X150409834Y-72932561D01*
X150752882Y-72790466D01*
X151061618Y-72584175D01*
X151324175Y-72321618D01*
X151530466Y-72012882D01*
X151672561Y-71669834D01*
X151745000Y-71305656D01*
X151745000Y-70934344D01*
X151672561Y-70570166D01*
X151530466Y-70227118D01*
X151324175Y-69918382D01*
X151061618Y-69655825D01*
X150752882Y-69449534D01*
X150409834Y-69307439D01*
X150045656Y-69235000D01*
X149674344Y-69235000D01*
X149310166Y-69307439D01*
X148967118Y-69449534D01*
X148658382Y-69655825D01*
X148395825Y-69918382D01*
X148189534Y-70227118D01*
X148047439Y-70570166D01*
X147975000Y-70934344D01*
X143624906Y-70934344D01*
X143725000Y-70834250D01*
X143728072Y-70270000D01*
X143715812Y-70145518D01*
X143679502Y-70025820D01*
X143620537Y-69915506D01*
X143541185Y-69818815D01*
X143444494Y-69739463D01*
X143334180Y-69680498D01*
X143214482Y-69644188D01*
X143090000Y-69631928D01*
X142525750Y-69635000D01*
X142367000Y-69793750D01*
X142113000Y-69793750D01*
X141954250Y-69635000D01*
X141390000Y-69631928D01*
X141265518Y-69644188D01*
X141145820Y-69680498D01*
X141035506Y-69739463D01*
X140938815Y-69818815D01*
X140859463Y-69915506D01*
X140800498Y-70025820D01*
X140764188Y-70145518D01*
X140751928Y-70270000D01*
X118528229Y-70270000D01*
X118510466Y-70227118D01*
X118304175Y-69918382D01*
X118041618Y-69655825D01*
X117732882Y-69449534D01*
X117389834Y-69307439D01*
X117025656Y-69235000D01*
X116654344Y-69235000D01*
X116290166Y-69307439D01*
X115947118Y-69449534D01*
X115638382Y-69655825D01*
X115375825Y-69918382D01*
X115169534Y-70227118D01*
X115027439Y-70570166D01*
X114955000Y-70934344D01*
X113157000Y-70934344D01*
X113157000Y-67437000D01*
X153543000Y-67437000D01*
X153543000Y-131953000D01*
%TA.AperFunction,Conductor*%
D23*
G36*
X153543000Y-131953000D02*
G01*
X113157000Y-131953000D01*
X113157000Y-128084344D01*
X114955000Y-128084344D01*
X114955000Y-128455656D01*
X115027439Y-128819834D01*
X115169534Y-129162882D01*
X115375825Y-129471618D01*
X115638382Y-129734175D01*
X115947118Y-129940466D01*
X116290166Y-130082561D01*
X116654344Y-130155000D01*
X117025656Y-130155000D01*
X117389834Y-130082561D01*
X117732882Y-129940466D01*
X118041618Y-129734175D01*
X118304175Y-129471618D01*
X118510466Y-129162882D01*
X118652561Y-128819834D01*
X118725000Y-128455656D01*
X118725000Y-128084344D01*
X118652561Y-127720166D01*
X118510466Y-127377118D01*
X118304175Y-127068382D01*
X118041618Y-126805825D01*
X117732882Y-126599534D01*
X117389834Y-126457439D01*
X117025656Y-126385000D01*
X116654344Y-126385000D01*
X116290166Y-126457439D01*
X115947118Y-126599534D01*
X115638382Y-126805825D01*
X115375825Y-127068382D01*
X115169534Y-127377118D01*
X115027439Y-127720166D01*
X114955000Y-128084344D01*
X113157000Y-128084344D01*
X113157000Y-123546891D01*
X123018519Y-123546891D01*
X123115843Y-123821252D01*
X123264822Y-124071355D01*
X123459731Y-124287588D01*
X123693080Y-124461641D01*
X123955901Y-124586825D01*
X124103110Y-124631476D01*
X124333000Y-124510155D01*
X124333000Y-123317000D01*
X123139186Y-123317000D01*
X123018519Y-123546891D01*
X113157000Y-123546891D01*
X113157000Y-122833109D01*
X123018519Y-122833109D01*
X123139186Y-123063000D01*
X124333000Y-123063000D01*
X124333000Y-121869845D01*
X124103110Y-121748524D01*
X123955901Y-121793175D01*
X123693080Y-121918359D01*
X123459731Y-122092412D01*
X123264822Y-122308645D01*
X123115843Y-122558748D01*
X123018519Y-122833109D01*
X113157000Y-122833109D01*
X113157000Y-113386891D01*
X123018519Y-113386891D01*
X123115843Y-113661252D01*
X123264822Y-113911355D01*
X123459731Y-114127588D01*
X123693080Y-114301641D01*
X123955901Y-114426825D01*
X124103110Y-114471476D01*
X124333000Y-114350155D01*
X124333000Y-113157000D01*
X123139186Y-113157000D01*
X123018519Y-113386891D01*
X113157000Y-113386891D01*
X113157000Y-112673109D01*
X123018519Y-112673109D01*
X123139186Y-112903000D01*
X124333000Y-112903000D01*
X124333000Y-111709845D01*
X124103110Y-111588524D01*
X123955901Y-111633175D01*
X123693080Y-111758359D01*
X123459731Y-111932412D01*
X123264822Y-112148645D01*
X123115843Y-112398748D01*
X123018519Y-112673109D01*
X113157000Y-112673109D01*
X113157000Y-92110000D01*
X114331928Y-92110000D01*
X114331928Y-93310000D01*
X114344188Y-93434482D01*
X114380498Y-93554180D01*
X114439463Y-93664494D01*
X114518815Y-93761185D01*
X114615506Y-93840537D01*
X114725820Y-93899502D01*
X114845518Y-93935812D01*
X114970000Y-93948072D01*
X116170000Y-93948072D01*
X116294482Y-93935812D01*
X116414180Y-93899502D01*
X116524494Y-93840537D01*
X116541681Y-93826432D01*
X116668516Y-93884237D01*
X116905313Y-93940000D01*
X117148438Y-93948495D01*
X117388549Y-93909395D01*
X117616418Y-93824202D01*
X117692852Y-93783348D01*
X117740159Y-93559764D01*
X117070000Y-92889605D01*
X117055858Y-92903748D01*
X116876253Y-92724143D01*
X116890395Y-92710000D01*
X117249605Y-92710000D01*
X117919764Y-93380159D01*
X118143348Y-93332852D01*
X118244237Y-93111484D01*
X118300000Y-92874687D01*
X118303013Y-92788438D01*
X122991505Y-92788438D01*
X123030605Y-93028549D01*
X123115798Y-93256418D01*
X123156652Y-93332852D01*
X123380236Y-93380159D01*
X124050395Y-92710000D01*
X123380236Y-92039841D01*
X123156652Y-92087148D01*
X123055763Y-92308516D01*
X123000000Y-92545313D01*
X122991505Y-92788438D01*
X118303013Y-92788438D01*
X118308495Y-92631562D01*
X118269395Y-92391451D01*
X118184202Y-92163582D01*
X118143348Y-92087148D01*
X117919764Y-92039841D01*
X117249605Y-92710000D01*
X116890395Y-92710000D01*
X116876253Y-92695858D01*
X117055858Y-92516253D01*
X117070000Y-92530395D01*
X117740159Y-91860236D01*
X117692852Y-91636652D01*
X117471484Y-91535763D01*
X117234687Y-91480000D01*
X116991562Y-91471505D01*
X116751451Y-91510605D01*
X116705000Y-91527972D01*
X116705000Y-89370131D01*
X118077060Y-87998072D01*
X119062500Y-87998072D01*
X119186982Y-87985812D01*
X119306680Y-87949502D01*
X119416994Y-87890537D01*
X119513685Y-87811185D01*
X119593037Y-87714494D01*
X119642059Y-87622781D01*
X119783077Y-87735969D01*
X120058906Y-87879571D01*
X120277020Y-87950563D01*
X120523000Y-87830594D01*
X120523000Y-86487000D01*
X120503000Y-86487000D01*
X120503000Y-86233000D01*
X120523000Y-86233000D01*
X120523000Y-84889406D01*
X120777000Y-84889406D01*
X120777000Y-86233000D01*
X120797000Y-86233000D01*
X120797000Y-86487000D01*
X120777000Y-86487000D01*
X120777000Y-87830594D01*
X121022980Y-87950563D01*
X121241094Y-87879571D01*
X121516923Y-87735969D01*
X121759437Y-87541315D01*
X121914837Y-87356101D01*
X122062037Y-87535463D01*
X122303766Y-87733845D01*
X122579552Y-87881255D01*
X122878797Y-87972030D01*
X123190000Y-88002681D01*
X123224183Y-87999314D01*
X124595000Y-89370132D01*
X124595001Y-91527172D01*
X124394687Y-91480000D01*
X124151562Y-91471505D01*
X123911451Y-91510605D01*
X123683582Y-91595798D01*
X123607148Y-91636652D01*
X123559841Y-91860236D01*
X124230000Y-92530395D01*
X124244143Y-92516253D01*
X124423748Y-92695858D01*
X124409605Y-92710000D01*
X124423748Y-92724143D01*
X124244143Y-92903748D01*
X124230000Y-92889605D01*
X123559841Y-93559764D01*
X123607148Y-93783348D01*
X123828516Y-93884237D01*
X124065313Y-93940000D01*
X124308438Y-93948495D01*
X124548549Y-93909395D01*
X124762117Y-93829549D01*
X124775506Y-93840537D01*
X124885820Y-93899502D01*
X125005518Y-93935812D01*
X125130000Y-93948072D01*
X125362941Y-93948072D01*
X125865001Y-94450133D01*
X125865000Y-112064893D01*
X125846525Y-112083368D01*
X125724805Y-112265534D01*
X125655178Y-112148645D01*
X125460269Y-111932412D01*
X125226920Y-111758359D01*
X124964099Y-111633175D01*
X124816890Y-111588524D01*
X124587000Y-111709845D01*
X124587000Y-112903000D01*
X124607000Y-112903000D01*
X124607000Y-113157000D01*
X124587000Y-113157000D01*
X124587000Y-114350155D01*
X124816890Y-114471476D01*
X124964099Y-114426825D01*
X125226920Y-114301641D01*
X125460269Y-114127588D01*
X125655178Y-113911355D01*
X125724805Y-113794466D01*
X125846525Y-113976632D01*
X125865000Y-113995107D01*
X125865001Y-122224892D01*
X125846525Y-122243368D01*
X125724805Y-122425534D01*
X125655178Y-122308645D01*
X125460269Y-122092412D01*
X125226920Y-121918359D01*
X124964099Y-121793175D01*
X124816890Y-121748524D01*
X124587000Y-121869845D01*
X124587000Y-123063000D01*
X124607000Y-123063000D01*
X124607000Y-123317000D01*
X124587000Y-123317000D01*
X124587000Y-124510155D01*
X124816890Y-124631476D01*
X124964099Y-124586825D01*
X125226920Y-124461641D01*
X125460269Y-124287588D01*
X125655178Y-124071355D01*
X125724805Y-123954466D01*
X125846525Y-124136632D01*
X126053368Y-124343475D01*
X126296589Y-124505990D01*
X126566842Y-124617932D01*
X126853740Y-124675000D01*
X127146260Y-124675000D01*
X127366408Y-124631210D01*
X127611202Y-124876004D01*
X127635000Y-124905002D01*
X127750725Y-124999975D01*
X127882754Y-125070547D01*
X128026015Y-125114004D01*
X128137668Y-125125001D01*
X128137677Y-125125001D01*
X128175000Y-125128677D01*
X128212323Y-125125001D01*
X130612679Y-125125001D01*
X130650001Y-125128677D01*
X130687323Y-125125001D01*
X130687334Y-125125001D01*
X130798987Y-125114004D01*
X130942248Y-125070547D01*
X131074277Y-124999975D01*
X131190002Y-124905002D01*
X131213805Y-124875998D01*
X133220722Y-122869082D01*
X133185000Y-123048665D01*
X133185000Y-123331335D01*
X133240147Y-123608574D01*
X133348320Y-123869727D01*
X133505363Y-124104759D01*
X133705241Y-124304637D01*
X133940273Y-124461680D01*
X134201426Y-124569853D01*
X134478665Y-124625000D01*
X134761335Y-124625000D01*
X135038574Y-124569853D01*
X135299727Y-124461680D01*
X135534759Y-124304637D01*
X135734637Y-124104759D01*
X135891680Y-123869727D01*
X135999853Y-123608574D01*
X136055000Y-123331335D01*
X136055000Y-123048665D01*
X136010509Y-122824999D01*
X148469491Y-122824999D01*
X148425000Y-123048665D01*
X148425000Y-123331335D01*
X148480147Y-123608574D01*
X148588320Y-123869727D01*
X148745363Y-124104759D01*
X148945241Y-124304637D01*
X149180273Y-124461680D01*
X149441426Y-124569853D01*
X149718665Y-124625000D01*
X150001335Y-124625000D01*
X150278574Y-124569853D01*
X150539727Y-124461680D01*
X150774759Y-124304637D01*
X150974637Y-124104759D01*
X151131680Y-123869727D01*
X151239853Y-123608574D01*
X151295000Y-123331335D01*
X151295000Y-123048665D01*
X151239853Y-122771426D01*
X151131680Y-122510273D01*
X150974637Y-122275241D01*
X150974600Y-122275204D01*
X151496004Y-121753800D01*
X151525002Y-121730002D01*
X151551333Y-121697918D01*
X151619975Y-121614278D01*
X151690547Y-121482248D01*
X151706388Y-121430025D01*
X151734004Y-121338987D01*
X151745001Y-121227334D01*
X151745001Y-121227325D01*
X151748677Y-121190002D01*
X151745001Y-121152679D01*
X151745001Y-120147322D01*
X151748677Y-120109999D01*
X151745001Y-120072676D01*
X151745001Y-120072666D01*
X151734004Y-119961013D01*
X151690547Y-119817752D01*
X151653624Y-119748674D01*
X151619975Y-119685722D01*
X151548800Y-119598996D01*
X151525002Y-119569998D01*
X151496005Y-119546201D01*
X150974600Y-119024796D01*
X150974637Y-119024759D01*
X151131680Y-118789727D01*
X151239853Y-118528574D01*
X151295000Y-118251335D01*
X151295000Y-117968665D01*
X151239853Y-117691426D01*
X151131680Y-117430273D01*
X150974637Y-117195241D01*
X150774759Y-116995363D01*
X150542241Y-116840000D01*
X150774759Y-116684637D01*
X150974637Y-116484759D01*
X151131680Y-116249727D01*
X151239853Y-115988574D01*
X151295000Y-115711335D01*
X151295000Y-115428665D01*
X151239853Y-115151426D01*
X151131680Y-114890273D01*
X150974637Y-114655241D01*
X150774759Y-114455363D01*
X150542241Y-114300000D01*
X150774759Y-114144637D01*
X150974637Y-113944759D01*
X151131680Y-113709727D01*
X151239853Y-113448574D01*
X151295000Y-113171335D01*
X151295000Y-112888665D01*
X151239853Y-112611426D01*
X151131680Y-112350273D01*
X150974637Y-112115241D01*
X150774759Y-111915363D01*
X150542241Y-111760000D01*
X150774759Y-111604637D01*
X150974637Y-111404759D01*
X151131680Y-111169727D01*
X151239853Y-110908574D01*
X151295000Y-110631335D01*
X151295000Y-110348665D01*
X151239853Y-110071426D01*
X151131680Y-109810273D01*
X150974637Y-109575241D01*
X150774759Y-109375363D01*
X150542241Y-109220000D01*
X150774759Y-109064637D01*
X150974637Y-108864759D01*
X151131680Y-108629727D01*
X151239853Y-108368574D01*
X151295000Y-108091335D01*
X151295000Y-107808665D01*
X151239853Y-107531426D01*
X151131680Y-107270273D01*
X150974637Y-107035241D01*
X150974600Y-107035204D01*
X151496004Y-106513800D01*
X151525002Y-106490002D01*
X151598271Y-106400724D01*
X151619975Y-106374278D01*
X151690547Y-106242248D01*
X151711347Y-106173677D01*
X151734004Y-106098987D01*
X151745001Y-105987334D01*
X151745001Y-105987325D01*
X151748677Y-105950002D01*
X151745001Y-105912679D01*
X151745001Y-102367322D01*
X151748677Y-102329999D01*
X151745001Y-102292676D01*
X151745001Y-102292666D01*
X151734004Y-102181013D01*
X151690547Y-102037752D01*
X151690276Y-102037245D01*
X151619975Y-101905722D01*
X151548800Y-101818996D01*
X151525002Y-101789998D01*
X151496005Y-101766201D01*
X150974600Y-101244796D01*
X150974637Y-101244759D01*
X151131680Y-101009727D01*
X151239853Y-100748574D01*
X151295000Y-100471335D01*
X151295000Y-100188665D01*
X151239853Y-99911426D01*
X151131680Y-99650273D01*
X150974637Y-99415241D01*
X150774759Y-99215363D01*
X150542241Y-99060000D01*
X150774759Y-98904637D01*
X150974637Y-98704759D01*
X151131680Y-98469727D01*
X151239853Y-98208574D01*
X151295000Y-97931335D01*
X151295000Y-97648665D01*
X151239853Y-97371426D01*
X151131680Y-97110273D01*
X150974637Y-96875241D01*
X150774759Y-96675363D01*
X150542241Y-96520000D01*
X150774759Y-96364637D01*
X150974637Y-96164759D01*
X151131680Y-95929727D01*
X151239853Y-95668574D01*
X151295000Y-95391335D01*
X151295000Y-95108665D01*
X151239853Y-94831426D01*
X151131680Y-94570273D01*
X150974637Y-94335241D01*
X150774759Y-94135363D01*
X150542241Y-93980000D01*
X150774759Y-93824637D01*
X150974637Y-93624759D01*
X151131680Y-93389727D01*
X151239853Y-93128574D01*
X151295000Y-92851335D01*
X151295000Y-92568665D01*
X151239853Y-92291426D01*
X151131680Y-92030273D01*
X150974637Y-91795241D01*
X150774759Y-91595363D01*
X150539727Y-91438320D01*
X150529135Y-91433933D01*
X150715131Y-91322385D01*
X150923519Y-91133414D01*
X151091037Y-90907420D01*
X151211246Y-90653087D01*
X151251904Y-90519039D01*
X151129915Y-90297000D01*
X149987000Y-90297000D01*
X149987000Y-90317000D01*
X149733000Y-90317000D01*
X149733000Y-90297000D01*
X149713000Y-90297000D01*
X149713000Y-90043000D01*
X149733000Y-90043000D01*
X149733000Y-90023000D01*
X149987000Y-90023000D01*
X149987000Y-90043000D01*
X151129915Y-90043000D01*
X151251904Y-89820961D01*
X151211246Y-89686913D01*
X151091037Y-89432580D01*
X150923519Y-89206586D01*
X150715131Y-89017615D01*
X150529135Y-88906067D01*
X150539727Y-88901680D01*
X150774759Y-88744637D01*
X150974637Y-88544759D01*
X151131680Y-88309727D01*
X151239853Y-88048574D01*
X151295000Y-87771335D01*
X151295000Y-87488665D01*
X151239853Y-87211426D01*
X151131680Y-86950273D01*
X150974637Y-86715241D01*
X150774759Y-86515363D01*
X150539727Y-86358320D01*
X150278574Y-86250147D01*
X150001335Y-86195000D01*
X149718665Y-86195000D01*
X149441426Y-86250147D01*
X149180273Y-86358320D01*
X148945241Y-86515363D01*
X148745363Y-86715241D01*
X148588320Y-86950273D01*
X148480147Y-87211426D01*
X148425000Y-87488665D01*
X148425000Y-87771335D01*
X148461312Y-87953887D01*
X148224001Y-88191197D01*
X148194998Y-88215000D01*
X148152834Y-88266378D01*
X148100025Y-88330725D01*
X148046961Y-88430000D01*
X148029453Y-88462755D01*
X147985996Y-88606016D01*
X147974999Y-88717669D01*
X147974999Y-88717679D01*
X147971323Y-88755001D01*
X147974999Y-88792323D01*
X147975000Y-99910199D01*
X146810000Y-98745199D01*
X146810000Y-80018178D01*
X146996632Y-79893475D01*
X147203475Y-79686632D01*
X147320000Y-79512240D01*
X147436525Y-79686632D01*
X147643368Y-79893475D01*
X147886589Y-80055990D01*
X148156842Y-80167932D01*
X148443740Y-80225000D01*
X148736260Y-80225000D01*
X149023158Y-80167932D01*
X149293411Y-80055990D01*
X149536632Y-79893475D01*
X149743475Y-79686632D01*
X149905990Y-79443411D01*
X150017932Y-79173158D01*
X150075000Y-78886260D01*
X150075000Y-78593740D01*
X150017932Y-78306842D01*
X149905990Y-78036589D01*
X149743475Y-77793368D01*
X149536632Y-77586525D01*
X149293411Y-77424010D01*
X149023158Y-77312068D01*
X148736260Y-77255000D01*
X148443740Y-77255000D01*
X148156842Y-77312068D01*
X147886589Y-77424010D01*
X147643368Y-77586525D01*
X147436525Y-77793368D01*
X147320000Y-77967760D01*
X147203475Y-77793368D01*
X146996632Y-77586525D01*
X146753411Y-77424010D01*
X146483158Y-77312068D01*
X146196260Y-77255000D01*
X145903740Y-77255000D01*
X145616842Y-77312068D01*
X145346589Y-77424010D01*
X145103368Y-77586525D01*
X144896525Y-77793368D01*
X144780000Y-77967760D01*
X144663475Y-77793368D01*
X144456632Y-77586525D01*
X144213411Y-77424010D01*
X143943158Y-77312068D01*
X143656260Y-77255000D01*
X143363740Y-77255000D01*
X143076842Y-77312068D01*
X142806589Y-77424010D01*
X142563368Y-77586525D01*
X142356525Y-77793368D01*
X142240000Y-77967760D01*
X142123475Y-77793368D01*
X141916632Y-77586525D01*
X141673411Y-77424010D01*
X141403158Y-77312068D01*
X141116260Y-77255000D01*
X140823740Y-77255000D01*
X140536842Y-77312068D01*
X140266589Y-77424010D01*
X140023368Y-77586525D01*
X139816525Y-77793368D01*
X139700000Y-77967760D01*
X139583475Y-77793368D01*
X139376632Y-77586525D01*
X139133411Y-77424010D01*
X138863158Y-77312068D01*
X138576260Y-77255000D01*
X138283740Y-77255000D01*
X137996842Y-77312068D01*
X137726589Y-77424010D01*
X137483368Y-77586525D01*
X137351513Y-77718380D01*
X137329502Y-77645820D01*
X137270537Y-77535506D01*
X137191185Y-77438815D01*
X137094494Y-77359463D01*
X136984180Y-77300498D01*
X136864482Y-77264188D01*
X136740000Y-77251928D01*
X136175750Y-77255000D01*
X136017002Y-77413748D01*
X136017002Y-77402798D01*
X138999800Y-74420000D01*
X140961822Y-74420000D01*
X141086525Y-74606632D01*
X141293368Y-74813475D01*
X141536589Y-74975990D01*
X141806842Y-75087932D01*
X142093740Y-75145000D01*
X142386260Y-75145000D01*
X142673158Y-75087932D01*
X142943411Y-74975990D01*
X143186632Y-74813475D01*
X143393475Y-74606632D01*
X143555990Y-74363411D01*
X143667932Y-74093158D01*
X143725000Y-73806260D01*
X143725000Y-73513740D01*
X143667932Y-73226842D01*
X143555990Y-72956589D01*
X143393475Y-72713368D01*
X143261620Y-72581513D01*
X143334180Y-72559502D01*
X143444494Y-72500537D01*
X143541185Y-72421185D01*
X143620537Y-72324494D01*
X143679502Y-72214180D01*
X143715812Y-72094482D01*
X143728072Y-71970000D01*
X143725000Y-71405750D01*
X143566250Y-71247000D01*
X142367000Y-71247000D01*
X142367000Y-71267000D01*
X142113000Y-71267000D01*
X142113000Y-71247000D01*
X140913750Y-71247000D01*
X140755000Y-71405750D01*
X140751928Y-71970000D01*
X140764188Y-72094482D01*
X140800498Y-72214180D01*
X140859463Y-72324494D01*
X140938815Y-72421185D01*
X141035506Y-72500537D01*
X141145820Y-72559502D01*
X141218380Y-72581513D01*
X141086525Y-72713368D01*
X140961822Y-72900000D01*
X138722320Y-72900000D01*
X138684997Y-72896324D01*
X138647674Y-72900000D01*
X138647665Y-72900000D01*
X138536012Y-72910997D01*
X138392751Y-72954454D01*
X138260722Y-73025026D01*
X138144997Y-73119999D01*
X138121199Y-73148997D01*
X129028998Y-82241199D01*
X129000000Y-82264997D01*
X128976202Y-82293995D01*
X128976201Y-82293996D01*
X128905026Y-82380722D01*
X128834454Y-82512752D01*
X128790998Y-82656013D01*
X128776324Y-82804998D01*
X128780001Y-82842330D01*
X128780000Y-83992225D01*
X128688987Y-84053038D01*
X128503038Y-84238987D01*
X128356939Y-84457641D01*
X128256304Y-84700595D01*
X128205000Y-84958514D01*
X128205000Y-85221486D01*
X128256304Y-85479405D01*
X128356939Y-85722359D01*
X128503038Y-85941013D01*
X128688987Y-86126962D01*
X128907641Y-86273061D01*
X129117530Y-86360000D01*
X128907641Y-86446939D01*
X128688987Y-86593038D01*
X128503038Y-86778987D01*
X128356939Y-86997641D01*
X128256304Y-87240595D01*
X128205000Y-87498514D01*
X128205000Y-87761486D01*
X128256304Y-88019405D01*
X128356939Y-88262359D01*
X128503038Y-88481013D01*
X128688987Y-88666962D01*
X128780000Y-88727775D01*
X128780001Y-105372667D01*
X128776324Y-105410000D01*
X128780001Y-105447333D01*
X128790245Y-105551335D01*
X128790998Y-105558985D01*
X128834454Y-105702246D01*
X128905026Y-105834276D01*
X128976201Y-105921002D01*
X129000000Y-105950001D01*
X129028998Y-105973799D01*
X133221312Y-110166114D01*
X133185000Y-110348665D01*
X133185000Y-110631335D01*
X133229491Y-110855001D01*
X130992324Y-110855001D01*
X130954999Y-110851325D01*
X130917674Y-110855001D01*
X130917666Y-110855001D01*
X130806013Y-110865998D01*
X130662752Y-110909455D01*
X130530723Y-110980027D01*
X130414998Y-111075000D01*
X130391200Y-111103998D01*
X129953270Y-111541928D01*
X128690000Y-111541928D01*
X128565518Y-111554188D01*
X128445820Y-111590498D01*
X128335506Y-111649463D01*
X128238815Y-111728815D01*
X128159463Y-111825506D01*
X128135000Y-111871272D01*
X128135000Y-94035743D01*
X128140490Y-93979999D01*
X128135000Y-93924255D01*
X128135000Y-93924248D01*
X128118577Y-93757501D01*
X128053676Y-93543553D01*
X127948284Y-93346377D01*
X127806449Y-93173551D01*
X127763140Y-93138008D01*
X126968072Y-92342941D01*
X126968072Y-92110000D01*
X126955812Y-91985518D01*
X126919502Y-91865820D01*
X126865000Y-91763856D01*
X126865000Y-88955741D01*
X126870490Y-88899999D01*
X126865000Y-88844257D01*
X126865000Y-88844248D01*
X126848577Y-88677501D01*
X126783676Y-88463553D01*
X126678284Y-88266377D01*
X126536449Y-88093551D01*
X126493141Y-88058009D01*
X124777500Y-86342369D01*
X124777500Y-86234514D01*
X124754530Y-86001296D01*
X124663755Y-85702051D01*
X124516345Y-85426265D01*
X124317963Y-85184537D01*
X124076234Y-84986155D01*
X123800448Y-84838745D01*
X123501203Y-84747970D01*
X123190000Y-84717319D01*
X122878796Y-84747970D01*
X122579551Y-84838745D01*
X122303765Y-84986155D01*
X122062037Y-85184537D01*
X121914838Y-85363900D01*
X121759437Y-85178685D01*
X121516923Y-84984031D01*
X121241094Y-84840429D01*
X121022980Y-84769437D01*
X120777000Y-84889406D01*
X120523000Y-84889406D01*
X120277020Y-84769437D01*
X120058906Y-84840429D01*
X119783077Y-84984031D01*
X119642059Y-85097219D01*
X119593037Y-85005506D01*
X119513685Y-84908815D01*
X119416994Y-84829463D01*
X119306680Y-84770498D01*
X119186982Y-84734188D01*
X119062500Y-84721928D01*
X117157500Y-84721928D01*
X117033018Y-84734188D01*
X116913320Y-84770498D01*
X116803006Y-84829463D01*
X116706315Y-84908815D01*
X116626963Y-85005506D01*
X116567998Y-85115820D01*
X116531688Y-85235518D01*
X116519428Y-85360000D01*
X116519428Y-86345440D01*
X114806860Y-88058009D01*
X114763552Y-88093551D01*
X114621717Y-88266377D01*
X114598546Y-88309727D01*
X114516324Y-88463554D01*
X114451423Y-88677502D01*
X114429509Y-88900000D01*
X114435001Y-88955761D01*
X114435000Y-91763855D01*
X114380498Y-91865820D01*
X114344188Y-91985518D01*
X114331928Y-92110000D01*
X113157000Y-92110000D01*
X113157000Y-70934344D01*
X114955000Y-70934344D01*
X114955000Y-71305656D01*
X115027439Y-71669834D01*
X115169534Y-72012882D01*
X115375825Y-72321618D01*
X115638382Y-72584175D01*
X115947118Y-72790466D01*
X116290166Y-72932561D01*
X116654344Y-73005000D01*
X117025656Y-73005000D01*
X117389834Y-72932561D01*
X117732882Y-72790466D01*
X118041618Y-72584175D01*
X118304175Y-72321618D01*
X118510466Y-72012882D01*
X118652561Y-71669834D01*
X118725000Y-71305656D01*
X118725000Y-70934344D01*
X118652561Y-70570166D01*
X118528229Y-70270000D01*
X140751928Y-70270000D01*
X140755000Y-70834250D01*
X140913750Y-70993000D01*
X142113000Y-70993000D01*
X142113000Y-69793750D01*
X142367000Y-69793750D01*
X142367000Y-70993000D01*
X143566250Y-70993000D01*
X143624906Y-70934344D01*
X147975000Y-70934344D01*
X147975000Y-71305656D01*
X148047439Y-71669834D01*
X148189534Y-72012882D01*
X148395825Y-72321618D01*
X148658382Y-72584175D01*
X148967118Y-72790466D01*
X149310166Y-72932561D01*
X149674344Y-73005000D01*
X150045656Y-73005000D01*
X150409834Y-72932561D01*
X150752882Y-72790466D01*
X151061618Y-72584175D01*
X151324175Y-72321618D01*
X151530466Y-72012882D01*
X151672561Y-71669834D01*
X151745000Y-71305656D01*
X151745000Y-70934344D01*
X151672561Y-70570166D01*
X151530466Y-70227118D01*
X151324175Y-69918382D01*
X151061618Y-69655825D01*
X150752882Y-69449534D01*
X150409834Y-69307439D01*
X150045656Y-69235000D01*
X149674344Y-69235000D01*
X149310166Y-69307439D01*
X148967118Y-69449534D01*
X148658382Y-69655825D01*
X148395825Y-69918382D01*
X148189534Y-70227118D01*
X148047439Y-70570166D01*
X147975000Y-70934344D01*
X143624906Y-70934344D01*
X143725000Y-70834250D01*
X143728072Y-70270000D01*
X143715812Y-70145518D01*
X143679502Y-70025820D01*
X143620537Y-69915506D01*
X143541185Y-69818815D01*
X143444494Y-69739463D01*
X143334180Y-69680498D01*
X143214482Y-69644188D01*
X143090000Y-69631928D01*
X142525750Y-69635000D01*
X142367000Y-69793750D01*
X142113000Y-69793750D01*
X141954250Y-69635000D01*
X141390000Y-69631928D01*
X141265518Y-69644188D01*
X141145820Y-69680498D01*
X141035506Y-69739463D01*
X140938815Y-69818815D01*
X140859463Y-69915506D01*
X140800498Y-70025820D01*
X140764188Y-70145518D01*
X140751928Y-70270000D01*
X118528229Y-70270000D01*
X118510466Y-70227118D01*
X118304175Y-69918382D01*
X118041618Y-69655825D01*
X117732882Y-69449534D01*
X117389834Y-69307439D01*
X117025656Y-69235000D01*
X116654344Y-69235000D01*
X116290166Y-69307439D01*
X115947118Y-69449534D01*
X115638382Y-69655825D01*
X115375825Y-69918382D01*
X115169534Y-70227118D01*
X115027439Y-70570166D01*
X114955000Y-70934344D01*
X113157000Y-70934344D01*
X113157000Y-67437000D01*
X153543000Y-67437000D01*
X153543000Y-131953000D01*
G37*
%TD.AperFunction*%
D22*
X136017000Y-78613000D02*
X136037000Y-78613000D01*
X136037000Y-78867000D01*
X136017000Y-78867000D01*
X136017000Y-80066250D01*
X136175750Y-80225000D01*
X136740000Y-80228072D01*
X136864482Y-80215812D01*
X136984180Y-80179502D01*
X137094494Y-80120537D01*
X137191185Y-80041185D01*
X137270537Y-79944494D01*
X137329502Y-79834180D01*
X137351513Y-79761620D01*
X137483368Y-79893475D01*
X137670000Y-80018178D01*
X137670001Y-109182667D01*
X137666324Y-109220000D01*
X137670001Y-109257333D01*
X137680998Y-109368986D01*
X137685856Y-109385000D01*
X137724454Y-109512246D01*
X137795026Y-109644276D01*
X137866201Y-109731002D01*
X137890000Y-109760001D01*
X137918998Y-109783799D01*
X148461312Y-120326114D01*
X148425000Y-120508665D01*
X148425000Y-120791335D01*
X148480147Y-121068574D01*
X148578077Y-121304999D01*
X135901923Y-121304999D01*
X135999853Y-121068574D01*
X136055000Y-120791335D01*
X136055000Y-120508665D01*
X135999853Y-120231426D01*
X135891680Y-119970273D01*
X135734637Y-119735241D01*
X135534759Y-119535363D01*
X135302241Y-119380000D01*
X135534759Y-119224637D01*
X135734637Y-119024759D01*
X135891680Y-118789727D01*
X135999853Y-118528574D01*
X136055000Y-118251335D01*
X136055000Y-117968665D01*
X135999853Y-117691426D01*
X135891680Y-117430273D01*
X135734637Y-117195241D01*
X135734600Y-117195204D01*
X136706014Y-116223790D01*
X136735011Y-116199993D01*
X136829984Y-116084268D01*
X136900556Y-115952239D01*
X136944013Y-115808978D01*
X136955010Y-115697325D01*
X136955010Y-115697317D01*
X136958686Y-115659992D01*
X136955010Y-115622667D01*
X136955010Y-107022343D01*
X136958687Y-106985010D01*
X136944013Y-106836024D01*
X136900556Y-106692763D01*
X136829984Y-106560734D01*
X136758809Y-106474007D01*
X136735011Y-106445009D01*
X136706013Y-106421211D01*
X136018688Y-105733886D01*
X136055000Y-105551335D01*
X136055000Y-105268665D01*
X135999853Y-104991426D01*
X135891680Y-104730273D01*
X135734637Y-104495241D01*
X135534759Y-104295363D01*
X135302241Y-104140000D01*
X135534759Y-103984637D01*
X135734637Y-103784759D01*
X135891680Y-103549727D01*
X135999853Y-103288574D01*
X136055000Y-103011335D01*
X136055000Y-102728665D01*
X135999853Y-102451426D01*
X135891680Y-102190273D01*
X135734637Y-101955241D01*
X135534759Y-101755363D01*
X135302241Y-101600000D01*
X135534759Y-101444637D01*
X135734637Y-101244759D01*
X135891680Y-101009727D01*
X135999853Y-100748574D01*
X136055000Y-100471335D01*
X136055000Y-100188665D01*
X135999853Y-99911426D01*
X135891680Y-99650273D01*
X135734637Y-99415241D01*
X135534759Y-99215363D01*
X135302241Y-99060000D01*
X135534759Y-98904637D01*
X135734637Y-98704759D01*
X135891680Y-98469727D01*
X135999853Y-98208574D01*
X136055000Y-97931335D01*
X136055000Y-97648665D01*
X135999853Y-97371426D01*
X135891680Y-97110273D01*
X135734637Y-96875241D01*
X135534759Y-96675363D01*
X135302241Y-96520000D01*
X135534759Y-96364637D01*
X135734637Y-96164759D01*
X135891680Y-95929727D01*
X135999853Y-95668574D01*
X136055000Y-95391335D01*
X136055000Y-95108665D01*
X135999853Y-94831426D01*
X135891680Y-94570273D01*
X135734637Y-94335241D01*
X135534759Y-94135363D01*
X135302241Y-93980000D01*
X135534759Y-93824637D01*
X135734637Y-93624759D01*
X135891680Y-93389727D01*
X135999853Y-93128574D01*
X136055000Y-92851335D01*
X136055000Y-92568665D01*
X135999853Y-92291426D01*
X135891680Y-92030273D01*
X135734637Y-91795241D01*
X135534759Y-91595363D01*
X135302241Y-91440000D01*
X135534759Y-91284637D01*
X135734637Y-91084759D01*
X135891680Y-90849727D01*
X135999853Y-90588574D01*
X136055000Y-90311335D01*
X136055000Y-90028665D01*
X135999853Y-89751426D01*
X135891680Y-89490273D01*
X135734637Y-89255241D01*
X135536039Y-89056643D01*
X135544482Y-89055812D01*
X135664180Y-89019502D01*
X135774494Y-88960537D01*
X135871185Y-88881185D01*
X135950537Y-88784494D01*
X136009502Y-88674180D01*
X136045812Y-88554482D01*
X136058072Y-88430000D01*
X136058072Y-86830000D01*
X136045812Y-86705518D01*
X136009502Y-86585820D01*
X135950537Y-86475506D01*
X135871185Y-86378815D01*
X135774494Y-86299463D01*
X135664180Y-86240498D01*
X135544482Y-86204188D01*
X135420000Y-86191928D01*
X133820000Y-86191928D01*
X133695518Y-86204188D01*
X133575820Y-86240498D01*
X133465506Y-86299463D01*
X133368815Y-86378815D01*
X133289463Y-86475506D01*
X133230498Y-86585820D01*
X133194188Y-86705518D01*
X133181928Y-86830000D01*
X133181928Y-88430000D01*
X133194188Y-88554482D01*
X133230498Y-88674180D01*
X133289463Y-88784494D01*
X133368815Y-88881185D01*
X133465506Y-88960537D01*
X133575820Y-89019502D01*
X133695518Y-89055812D01*
X133703961Y-89056643D01*
X133505363Y-89255241D01*
X133348320Y-89490273D01*
X133240147Y-89751426D01*
X133185000Y-90028665D01*
X133185000Y-90311335D01*
X133240147Y-90588574D01*
X133348320Y-90849727D01*
X133505363Y-91084759D01*
X133705241Y-91284637D01*
X133937759Y-91440000D01*
X133705241Y-91595363D01*
X133505363Y-91795241D01*
X133348320Y-92030273D01*
X133240147Y-92291426D01*
X133185000Y-92568665D01*
X133185000Y-92851335D01*
X133240147Y-93128574D01*
X133348320Y-93389727D01*
X133505363Y-93624759D01*
X133705241Y-93824637D01*
X133937759Y-93980000D01*
X133705241Y-94135363D01*
X133505363Y-94335241D01*
X133348320Y-94570273D01*
X133240147Y-94831426D01*
X133185000Y-95108665D01*
X133185000Y-95391335D01*
X133240147Y-95668574D01*
X133348320Y-95929727D01*
X133505363Y-96164759D01*
X133705241Y-96364637D01*
X133937759Y-96520000D01*
X133705241Y-96675363D01*
X133505363Y-96875241D01*
X133348320Y-97110273D01*
X133240147Y-97371426D01*
X133185000Y-97648665D01*
X133185000Y-97931335D01*
X133240147Y-98208574D01*
X133348320Y-98469727D01*
X133505363Y-98704759D01*
X133705241Y-98904637D01*
X133937759Y-99060000D01*
X133705241Y-99215363D01*
X133505363Y-99415241D01*
X133348320Y-99650273D01*
X133240147Y-99911426D01*
X133185000Y-100188665D01*
X133185000Y-100471335D01*
X133240147Y-100748574D01*
X133348320Y-101009727D01*
X133505363Y-101244759D01*
X133705241Y-101444637D01*
X133937759Y-101600000D01*
X133705241Y-101755363D01*
X133505363Y-101955241D01*
X133348320Y-102190273D01*
X133240147Y-102451426D01*
X133185000Y-102728665D01*
X133185000Y-103011335D01*
X133240147Y-103288574D01*
X133348320Y-103549727D01*
X133505363Y-103784759D01*
X133705241Y-103984637D01*
X133937759Y-104140000D01*
X133705241Y-104295363D01*
X133505363Y-104495241D01*
X133348320Y-104730273D01*
X133240147Y-104991426D01*
X133185000Y-105268665D01*
X133185000Y-105551335D01*
X133240147Y-105828574D01*
X133348320Y-106089727D01*
X133505363Y-106324759D01*
X133705241Y-106524637D01*
X133937759Y-106680000D01*
X133705241Y-106835363D01*
X133505363Y-107035241D01*
X133348320Y-107270273D01*
X133240147Y-107531426D01*
X133185000Y-107808665D01*
X133185000Y-107980198D01*
X130300000Y-105095199D01*
X130300000Y-88727775D01*
X130391013Y-88666962D01*
X130576962Y-88481013D01*
X130723061Y-88262359D01*
X130823696Y-88019405D01*
X130875000Y-87761486D01*
X130875000Y-87498514D01*
X130823696Y-87240595D01*
X130723061Y-86997641D01*
X130576962Y-86778987D01*
X130391013Y-86593038D01*
X130172359Y-86446939D01*
X129962470Y-86360000D01*
X130172359Y-86273061D01*
X130391013Y-86126962D01*
X130576962Y-85941013D01*
X130723061Y-85722359D01*
X130823696Y-85479405D01*
X130875000Y-85221486D01*
X130875000Y-84958514D01*
X130823696Y-84700595D01*
X130723061Y-84457641D01*
X130576962Y-84238987D01*
X130391013Y-84053038D01*
X130300000Y-83992225D01*
X130300000Y-83119799D01*
X134552798Y-78867002D01*
X134563748Y-78867002D01*
X134405000Y-79025750D01*
X134401928Y-79590000D01*
X134414188Y-79714482D01*
X134450498Y-79834180D01*
X134509463Y-79944494D01*
X134588815Y-80041185D01*
X134685506Y-80120537D01*
X134795820Y-80179502D01*
X134915518Y-80215812D01*
X135040000Y-80228072D01*
X135604250Y-80225000D01*
X135763000Y-80066250D01*
X135763000Y-78867000D01*
X135743000Y-78867000D01*
X135743000Y-78613000D01*
X135763000Y-78613000D01*
X135763000Y-78593000D01*
X136017000Y-78593000D01*
X136017000Y-78613000D01*
%TA.AperFunction,Conductor*%
D23*
G36*
X136017000Y-78613000D02*
G01*
X136037000Y-78613000D01*
X136037000Y-78867000D01*
X136017000Y-78867000D01*
X136017000Y-80066250D01*
X136175750Y-80225000D01*
X136740000Y-80228072D01*
X136864482Y-80215812D01*
X136984180Y-80179502D01*
X137094494Y-80120537D01*
X137191185Y-80041185D01*
X137270537Y-79944494D01*
X137329502Y-79834180D01*
X137351513Y-79761620D01*
X137483368Y-79893475D01*
X137670000Y-80018178D01*
X137670001Y-109182667D01*
X137666324Y-109220000D01*
X137670001Y-109257333D01*
X137680998Y-109368986D01*
X137685856Y-109385000D01*
X137724454Y-109512246D01*
X137795026Y-109644276D01*
X137866201Y-109731002D01*
X137890000Y-109760001D01*
X137918998Y-109783799D01*
X148461312Y-120326114D01*
X148425000Y-120508665D01*
X148425000Y-120791335D01*
X148480147Y-121068574D01*
X148578077Y-121304999D01*
X135901923Y-121304999D01*
X135999853Y-121068574D01*
X136055000Y-120791335D01*
X136055000Y-120508665D01*
X135999853Y-120231426D01*
X135891680Y-119970273D01*
X135734637Y-119735241D01*
X135534759Y-119535363D01*
X135302241Y-119380000D01*
X135534759Y-119224637D01*
X135734637Y-119024759D01*
X135891680Y-118789727D01*
X135999853Y-118528574D01*
X136055000Y-118251335D01*
X136055000Y-117968665D01*
X135999853Y-117691426D01*
X135891680Y-117430273D01*
X135734637Y-117195241D01*
X135734600Y-117195204D01*
X136706014Y-116223790D01*
X136735011Y-116199993D01*
X136829984Y-116084268D01*
X136900556Y-115952239D01*
X136944013Y-115808978D01*
X136955010Y-115697325D01*
X136955010Y-115697317D01*
X136958686Y-115659992D01*
X136955010Y-115622667D01*
X136955010Y-107022343D01*
X136958687Y-106985010D01*
X136944013Y-106836024D01*
X136900556Y-106692763D01*
X136829984Y-106560734D01*
X136758809Y-106474007D01*
X136735011Y-106445009D01*
X136706013Y-106421211D01*
X136018688Y-105733886D01*
X136055000Y-105551335D01*
X136055000Y-105268665D01*
X135999853Y-104991426D01*
X135891680Y-104730273D01*
X135734637Y-104495241D01*
X135534759Y-104295363D01*
X135302241Y-104140000D01*
X135534759Y-103984637D01*
X135734637Y-103784759D01*
X135891680Y-103549727D01*
X135999853Y-103288574D01*
X136055000Y-103011335D01*
X136055000Y-102728665D01*
X135999853Y-102451426D01*
X135891680Y-102190273D01*
X135734637Y-101955241D01*
X135534759Y-101755363D01*
X135302241Y-101600000D01*
X135534759Y-101444637D01*
X135734637Y-101244759D01*
X135891680Y-101009727D01*
X135999853Y-100748574D01*
X136055000Y-100471335D01*
X136055000Y-100188665D01*
X135999853Y-99911426D01*
X135891680Y-99650273D01*
X135734637Y-99415241D01*
X135534759Y-99215363D01*
X135302241Y-99060000D01*
X135534759Y-98904637D01*
X135734637Y-98704759D01*
X135891680Y-98469727D01*
X135999853Y-98208574D01*
X136055000Y-97931335D01*
X136055000Y-97648665D01*
X135999853Y-97371426D01*
X135891680Y-97110273D01*
X135734637Y-96875241D01*
X135534759Y-96675363D01*
X135302241Y-96520000D01*
X135534759Y-96364637D01*
X135734637Y-96164759D01*
X135891680Y-95929727D01*
X135999853Y-95668574D01*
X136055000Y-95391335D01*
X136055000Y-95108665D01*
X135999853Y-94831426D01*
X135891680Y-94570273D01*
X135734637Y-94335241D01*
X135534759Y-94135363D01*
X135302241Y-93980000D01*
X135534759Y-93824637D01*
X135734637Y-93624759D01*
X135891680Y-93389727D01*
X135999853Y-93128574D01*
X136055000Y-92851335D01*
X136055000Y-92568665D01*
X135999853Y-92291426D01*
X135891680Y-92030273D01*
X135734637Y-91795241D01*
X135534759Y-91595363D01*
X135302241Y-91440000D01*
X135534759Y-91284637D01*
X135734637Y-91084759D01*
X135891680Y-90849727D01*
X135999853Y-90588574D01*
X136055000Y-90311335D01*
X136055000Y-90028665D01*
X135999853Y-89751426D01*
X135891680Y-89490273D01*
X135734637Y-89255241D01*
X135536039Y-89056643D01*
X135544482Y-89055812D01*
X135664180Y-89019502D01*
X135774494Y-88960537D01*
X135871185Y-88881185D01*
X135950537Y-88784494D01*
X136009502Y-88674180D01*
X136045812Y-88554482D01*
X136058072Y-88430000D01*
X136058072Y-86830000D01*
X136045812Y-86705518D01*
X136009502Y-86585820D01*
X135950537Y-86475506D01*
X135871185Y-86378815D01*
X135774494Y-86299463D01*
X135664180Y-86240498D01*
X135544482Y-86204188D01*
X135420000Y-86191928D01*
X133820000Y-86191928D01*
X133695518Y-86204188D01*
X133575820Y-86240498D01*
X133465506Y-86299463D01*
X133368815Y-86378815D01*
X133289463Y-86475506D01*
X133230498Y-86585820D01*
X133194188Y-86705518D01*
X133181928Y-86830000D01*
X133181928Y-88430000D01*
X133194188Y-88554482D01*
X133230498Y-88674180D01*
X133289463Y-88784494D01*
X133368815Y-88881185D01*
X133465506Y-88960537D01*
X133575820Y-89019502D01*
X133695518Y-89055812D01*
X133703961Y-89056643D01*
X133505363Y-89255241D01*
X133348320Y-89490273D01*
X133240147Y-89751426D01*
X133185000Y-90028665D01*
X133185000Y-90311335D01*
X133240147Y-90588574D01*
X133348320Y-90849727D01*
X133505363Y-91084759D01*
X133705241Y-91284637D01*
X133937759Y-91440000D01*
X133705241Y-91595363D01*
X133505363Y-91795241D01*
X133348320Y-92030273D01*
X133240147Y-92291426D01*
X133185000Y-92568665D01*
X133185000Y-92851335D01*
X133240147Y-93128574D01*
X133348320Y-93389727D01*
X133505363Y-93624759D01*
X133705241Y-93824637D01*
X133937759Y-93980000D01*
X133705241Y-94135363D01*
X133505363Y-94335241D01*
X133348320Y-94570273D01*
X133240147Y-94831426D01*
X133185000Y-95108665D01*
X133185000Y-95391335D01*
X133240147Y-95668574D01*
X133348320Y-95929727D01*
X133505363Y-96164759D01*
X133705241Y-96364637D01*
X133937759Y-96520000D01*
X133705241Y-96675363D01*
X133505363Y-96875241D01*
X133348320Y-97110273D01*
X133240147Y-97371426D01*
X133185000Y-97648665D01*
X133185000Y-97931335D01*
X133240147Y-98208574D01*
X133348320Y-98469727D01*
X133505363Y-98704759D01*
X133705241Y-98904637D01*
X133937759Y-99060000D01*
X133705241Y-99215363D01*
X133505363Y-99415241D01*
X133348320Y-99650273D01*
X133240147Y-99911426D01*
X133185000Y-100188665D01*
X133185000Y-100471335D01*
X133240147Y-100748574D01*
X133348320Y-101009727D01*
X133505363Y-101244759D01*
X133705241Y-101444637D01*
X133937759Y-101600000D01*
X133705241Y-101755363D01*
X133505363Y-101955241D01*
X133348320Y-102190273D01*
X133240147Y-102451426D01*
X133185000Y-102728665D01*
X133185000Y-103011335D01*
X133240147Y-103288574D01*
X133348320Y-103549727D01*
X133505363Y-103784759D01*
X133705241Y-103984637D01*
X133937759Y-104140000D01*
X133705241Y-104295363D01*
X133505363Y-104495241D01*
X133348320Y-104730273D01*
X133240147Y-104991426D01*
X133185000Y-105268665D01*
X133185000Y-105551335D01*
X133240147Y-105828574D01*
X133348320Y-106089727D01*
X133505363Y-106324759D01*
X133705241Y-106524637D01*
X133937759Y-106680000D01*
X133705241Y-106835363D01*
X133505363Y-107035241D01*
X133348320Y-107270273D01*
X133240147Y-107531426D01*
X133185000Y-107808665D01*
X133185000Y-107980198D01*
X130300000Y-105095199D01*
X130300000Y-88727775D01*
X130391013Y-88666962D01*
X130576962Y-88481013D01*
X130723061Y-88262359D01*
X130823696Y-88019405D01*
X130875000Y-87761486D01*
X130875000Y-87498514D01*
X130823696Y-87240595D01*
X130723061Y-86997641D01*
X130576962Y-86778987D01*
X130391013Y-86593038D01*
X130172359Y-86446939D01*
X129962470Y-86360000D01*
X130172359Y-86273061D01*
X130391013Y-86126962D01*
X130576962Y-85941013D01*
X130723061Y-85722359D01*
X130823696Y-85479405D01*
X130875000Y-85221486D01*
X130875000Y-84958514D01*
X130823696Y-84700595D01*
X130723061Y-84457641D01*
X130576962Y-84238987D01*
X130391013Y-84053038D01*
X130300000Y-83992225D01*
X130300000Y-83119799D01*
X134552798Y-78867002D01*
X134563748Y-78867002D01*
X134405000Y-79025750D01*
X134401928Y-79590000D01*
X134414188Y-79714482D01*
X134450498Y-79834180D01*
X134509463Y-79944494D01*
X134588815Y-80041185D01*
X134685506Y-80120537D01*
X134795820Y-80179502D01*
X134915518Y-80215812D01*
X135040000Y-80228072D01*
X135604250Y-80225000D01*
X135763000Y-80066250D01*
X135763000Y-78867000D01*
X135743000Y-78867000D01*
X135743000Y-78613000D01*
X135763000Y-78613000D01*
X135763000Y-78593000D01*
X136017000Y-78593000D01*
X136017000Y-78613000D01*
G37*
%TD.AperFunction*%
%TD*%
M02*
