M48
; DRILL file {KiCad 5.1.9} date Sun May  9 18:33:32 2021
; FORMAT={-:-/ absolute / inch / decimal}
; #@! TF.CreationDate,2021-05-09T18:33:32+02:00
; #@! TF.GenerationSoftware,Kicad,Pcbnew,5.1.9
; #@! TF.FileFunction,Plated,1,2,PTH
FMAT,2
INCH
T1C0.0276
T2C0.0394
%
G90
G05
T1
X6.325Y-3.45
X6.325Y-3.75
T2
X4.475Y-2.4
X4.475Y-2.5
X4.475Y-2.6
X4.475Y-3.2
X4.475Y-3.3
X4.475Y-3.4
X5.125Y-2.3
X5.125Y-2.4
X5.125Y-2.5
X5.125Y-2.6
X5.125Y-2.7
X5.125Y-2.8
X5.125Y-2.9
X5.125Y-3.0
X5.125Y-3.1
X5.125Y-3.2
X5.125Y-3.3
X5.125Y-3.4
X5.125Y-3.5
X5.125Y-3.6
X5.125Y-3.7
X5.175Y-4.3
X5.275Y-4.3
X5.375Y-4.3
X5.475Y-4.3
X5.575Y-4.3
X5.675Y-4.3
X5.725Y-2.3
X5.725Y-2.4
X5.725Y-2.5
X5.725Y-2.6
X5.725Y-2.7
X5.725Y-2.8
X5.725Y-2.9
X5.725Y-3.0
X5.725Y-3.1
X5.725Y-3.2
X5.725Y-3.3
X5.725Y-3.4
X5.725Y-3.5
X5.725Y-3.6
X5.725Y-3.7
X6.825Y-4.075
X6.925Y-2.25
X6.925Y-2.35
X6.925Y-2.45
X6.925Y-2.55
X6.925Y-2.65
X6.925Y-2.75
X6.925Y-3.35
X6.925Y-3.45
X6.925Y-4.075
T0
M30
